<svg width="102" height="102" viewBox="0 0 102 102" fill="none" xmlns="http://www.w3.org/2000/svg">
<path d="M54.76 86.3477H14.4356C10.5352 86.3477 7.03986 84.1995 4.53764 80.8133C2.03516 77.4268 0.5 72.7746 0.5 67.6655C0.5 58.382 5.60876 50.4888 12.4486 49.1744V19.1831C12.4486 18.5295 12.6422 17.9178 12.9807 17.4575C13.3191 16.9973 13.8276 16.6622 14.4356 16.6622H95.0844C95.6951 16.6622 96.206 16.9956 96.5466 17.4568C96.8867 17.9174 97.0802 18.5295 97.0802 19.1831V55.5449C97.0802 56.198 96.8866 56.8101 96.5466 57.2707C96.2062 57.7319 95.6954 58.0658 95.0844 58.0658C94.4762 58.0658 93.9677 57.7302 93.6294 57.2699C93.2911 56.8096 93.0975 56.198 93.0975 55.5449V21.7028H16.4314V51.5043C16.4314 52.1579 16.2378 52.77 15.8977 53.2306C15.5572 53.6919 15.0464 54.0252 14.4356 54.0252C11.751 54.0252 9.27417 55.502 7.45053 57.9686C5.62717 60.4348 4.48275 63.8632 4.48275 67.6655C4.48275 71.4684 5.62718 74.8972 7.45054 77.3636C9.27418 79.8303 11.751 81.307 14.4356 81.307H54.76C55.3707 81.307 55.8816 81.6404 56.2221 82.1014C56.5622 82.5618 56.7559 83.1736 56.7559 83.8267C56.7559 84.4804 56.5623 85.0925 56.2222 85.5531C55.8816 86.0143 55.3707 86.3477 54.76 86.3477Z" fill="white" stroke="white"/>
<path d="M12.4541 49.1728V5.81836C7.99553 7.07035 4.48802 12.4984 4.48802 19.1818V54.5882C6.56495 51.7531 9.33017 49.7713 12.4541 49.1728ZM2.49225 70.1855C1.8859 70.1855 1.37762 69.8499 1.03904 69.3907C0.700097 68.931 0.504883 68.3196 0.504883 67.6657V19.1818C0.504883 14.0732 2.03932 9.42109 4.54159 6.03448C7.04362 2.6482 10.5392 0.49987 14.4415 0.49987C15.0504 0.49987 15.5609 0.833878 15.9015 1.29419C16.242 1.75445 16.4372 2.36652 16.4372 3.02084V51.5036C16.4372 52.158 16.242 52.77 15.9015 53.2303C15.5609 53.6906 15.0504 54.0246 14.4415 54.0246C11.7549 54.0246 9.27793 55.5015 7.45469 57.9682C5.63168 60.4345 4.48802 63.8631 4.48802 67.6657C4.48802 68.3196 4.29278 68.9314 3.95225 69.3914C3.61168 69.8516 3.10115 70.1855 2.49225 70.1855Z" fill="white" stroke="white"/>
<path d="M81.5813 60.5362C72.8636 60.5362 65.6541 68.6705 65.6541 78.8109C65.6541 88.951 72.8636 97.0855 81.5813 97.0855C90.3079 97.0855 97.5173 88.9508 97.5173 78.8109C97.5173 68.6706 90.308 60.5362 81.5813 60.5362ZM81.5813 101.499C70.5437 101.499 61.6714 91.2554 61.6714 78.8109C61.6714 66.3664 70.5437 56.1224 81.5813 56.1224C92.6275 56.1224 101.5 66.3663 101.5 78.8109C101.5 91.2555 92.6275 101.499 81.5813 101.499Z" fill="white" stroke="white"/>
<path d="M81.5826 81.0166C80.4253 81.0166 79.5879 79.965 79.5879 78.8094V65.1559C79.5879 63.9991 80.4255 62.9487 81.5826 62.9487C82.7503 62.9487 83.5773 64.0011 83.5773 65.1559V78.8094C83.5773 79.9629 82.7505 81.0166 81.5826 81.0166Z" fill="white" stroke="white"/>
<path d="M81.5826 60.5391C80.4253 60.5391 79.5879 59.4875 79.5879 58.3319V53.2113C79.5879 52.0553 80.4257 51.0051 81.5826 51.0051C82.7501 51.0051 83.5773 52.0574 83.5773 53.2113V58.3319C83.5773 59.4854 82.7505 60.5391 81.5826 60.5391Z" fill="white" stroke="white"/>
<path d="M84.5688 55.4189H78.595C77.4335 55.4189 76.606 54.3649 76.606 53.2122C76.606 52.0595 77.4335 51.0054 78.595 51.0054H84.5688C85.7374 51.0054 86.5666 52.0575 86.5666 53.2122C86.5666 54.3669 85.7374 55.4189 84.5688 55.4189Z" fill="white" stroke="white"/>
<path d="M69.7012 63.2809L69.7011 63.2809L69.6991 63.2786L66.714 59.8651L66.7138 59.8649C65.9678 59.011 65.9678 57.646 66.7138 56.7921C67.4944 55.8987 68.8035 55.8986 69.5841 56.7919C69.5841 56.7919 69.5841 56.792 69.5841 56.792C69.5842 56.792 69.5842 56.7921 69.5843 56.7921L72.5692 60.2054L72.5693 60.2056C73.3154 61.0595 73.3154 62.4245 72.5693 63.2784L72.5693 63.2784L72.5672 63.2809C72.1817 63.7162 71.6657 63.9482 71.1341 63.9482C70.6025 63.9482 70.0866 63.7162 69.7012 63.2809Z" fill="white" stroke="white"/>
<path d="M65.2175 61.5783L65.2175 61.5783L65.2151 61.5755C64.47 60.7214 64.47 59.3569 65.2151 58.5029L65.2157 58.5021L68.2059 55.0887C68.206 55.0886 68.2061 55.0886 68.2061 55.0885C68.9862 54.196 70.2941 54.196 71.0741 55.0887L71.0743 55.089C71.8194 55.9431 71.8194 57.3076 71.0743 58.1616L71.0736 58.1624L68.0845 61.5746C67.7038 62.0164 67.1761 62.2461 66.6493 62.2461C66.1173 62.2461 65.6021 62.0126 65.2175 61.5783Z" fill="white" stroke="white"/>
<path d="M81.5896 94.6729C73.8401 94.6729 67.6479 87.4928 67.6479 78.8119C67.6479 70.13 73.8401 62.9502 81.5896 62.9502C82.7574 62.9502 83.5793 64.0062 83.5793 65.1576C83.5793 66.3094 82.757 67.364 81.5896 67.364C76.1619 67.364 71.636 72.4353 71.636 78.8119C71.636 85.1885 76.1619 90.2593 81.5896 90.2593C87.0173 90.2593 91.5432 85.1885 91.5432 78.8119C91.5432 77.6565 92.3774 76.6045 93.5417 76.6045C94.6988 76.6045 95.5313 77.6585 95.5313 78.8119C95.5313 87.4928 89.3391 94.6729 81.5896 94.6729Z" fill="white" stroke="white"/>
<path d="M69.729 28.9924L69.729 28.9924L69.7276 28.9905C69.3652 28.4958 69.1982 27.8694 69.1982 27.266C69.1982 26.6626 69.3652 26.0361 69.7276 25.5415L69.7276 25.5415L69.7298 25.5386C70.101 25.0395 70.6232 24.7463 71.1887 24.7463C71.7543 24.7463 72.2765 25.0395 72.6477 25.5386L72.6486 25.5398L78.6185 33.6187C78.6187 33.6188 78.6188 33.619 78.6189 33.6192C78.9865 34.1144 79.1564 34.7418 79.1564 35.3468C79.1564 35.9513 78.9867 36.5782 78.6194 37.0728C78.2522 37.5733 77.7272 37.8672 77.1681 37.8672C76.6019 37.8672 76.0762 37.5748 75.7078 37.0725C75.7075 37.0721 75.7073 37.0718 75.707 37.0715L69.729 28.9924Z" fill="white" stroke="white"/>
<path d="M69.7319 37.0772L69.7318 37.0772L69.7276 37.0715C69.3652 36.5768 69.1982 35.9503 69.1982 35.3468C69.1982 34.7432 69.3652 34.1166 69.7274 33.6215L69.7274 33.6215L69.729 33.6193L75.707 25.5415C75.7073 25.5411 75.7076 25.5408 75.7078 25.5404C76.0756 25.0389 76.5989 24.7463 77.1637 24.7463C77.7284 24.7463 78.2516 25.0388 78.6194 25.54C78.9867 26.0347 79.1564 26.6615 79.1564 27.266C79.1564 27.8707 78.9865 28.4978 78.6189 28.9925C78.6187 28.9928 78.6185 28.9931 78.6183 28.9934L72.6498 37.0715C72.6496 37.0717 72.6494 37.072 72.6492 37.0723C72.2808 37.5747 71.755 37.8672 71.1888 37.8672C70.6286 37.8672 70.1058 37.5725 69.7319 37.0772Z" fill="white" stroke="white"/>
<path d="M26.3911 66.1456C25.7625 66.1456 25.1504 66.4903 24.6775 67.1283C24.205 67.7658 23.8974 68.6692 23.8974 69.6859C23.8974 70.7027 24.205 71.606 24.6775 72.2436C25.1504 72.8815 25.7625 73.2263 26.3911 73.2263C27.0147 73.2263 27.6248 72.8824 28.097 72.2439C28.5688 71.6062 28.8764 70.7027 28.8764 69.6859C28.8764 68.6691 28.5688 67.7656 28.097 67.1279C27.6248 66.4895 27.0147 66.1456 26.3911 66.1456ZM26.3911 78.2666C24.5459 78.2666 22.9148 77.2513 21.7628 75.694C20.6107 74.1365 19.9121 72.0096 19.9121 69.6859C19.9121 67.3622 20.6107 65.2354 21.7628 63.6778C22.9148 62.1206 24.5459 61.1052 26.3911 61.1052C28.2325 61.1052 29.8615 62.121 31.0121 63.678C32.1631 65.2355 32.8616 67.3622 32.8616 69.6859C32.8616 72.0096 32.1631 74.1364 31.0121 75.6938C29.8615 77.2509 28.2325 78.2666 26.3911 78.2666Z" fill="white" stroke="white"/>
<path d="M45.8031 74.2256C43.9623 74.2256 42.3336 73.21 41.183 71.6531C40.0321 70.0957 39.3335 67.969 39.3335 65.6449V53.5244C39.3335 53.0622 39.1945 52.664 38.9943 52.393C38.794 52.122 38.5575 52.0045 38.3411 52.0045H29.378C29.1616 52.0045 28.9251 52.122 28.7248 52.393C28.5246 52.664 28.3856 53.0622 28.3856 53.5244V57.5641C28.3856 58.2181 28.1905 58.8301 27.8507 59.2902C27.511 59.7503 27.0013 60.0852 26.3932 60.0852C25.7823 60.0852 25.2703 59.752 24.9286 59.291C24.5872 58.8304 24.3921 58.2181 24.3921 57.5641V53.5244C24.3921 51.7559 24.9237 50.134 25.8059 48.9425C26.6878 47.7514 27.9456 46.9635 29.378 46.9635H38.3411C39.7697 46.9635 41.0253 47.7519 41.9058 48.9428C42.7867 50.1341 43.3184 51.7559 43.3184 53.5244V65.6449C43.3184 66.6626 43.6243 67.5663 44.0948 68.2038C44.5655 68.8415 45.1752 69.1858 45.8031 69.1858C46.431 69.1858 47.0408 68.8415 47.5115 68.2038C47.982 67.5663 48.288 66.6626 48.288 65.6449V45.4436C48.288 44.9815 48.149 44.5832 47.9488 44.3123C47.7484 44.0412 47.5119 43.9238 47.2955 43.9238H31.6166C29.9798 43.9238 28.5375 43.0215 27.5224 41.6472C26.5071 40.2726 25.8932 38.3982 25.8932 36.3524C25.8932 34.3072 26.5071 32.433 27.5224 31.0585C28.5375 29.6844 29.9798 28.7822 31.6166 28.7822H66.7142C67.3221 28.7822 67.8318 29.1166 68.1716 29.5764C68.5115 30.0364 68.7066 30.6481 68.7066 31.3021C68.7066 31.9561 68.5115 32.568 68.1717 33.0282C67.832 33.4882 67.3223 33.8231 66.7142 33.8231H31.6166C31.1969 33.8231 30.7736 34.0536 30.4372 34.5084C30.1012 34.9626 29.878 35.6133 29.878 36.3524C29.878 37.0921 30.1013 37.7431 30.4373 38.1975C30.7737 38.6524 31.197 38.8828 31.6166 38.8828H47.2955C48.7279 38.8828 49.9858 39.6706 50.8677 40.8618C51.7498 42.0532 52.2815 43.6752 52.2815 45.4436V65.6449C52.2815 67.969 51.5828 70.0958 50.4307 71.6533C49.2788 73.2105 47.6478 74.2256 45.8031 74.2256Z" fill="white" stroke="white"/>
</svg>
