<svg width="100" height="100" viewBox="0 0 100 100" fill="none" xmlns="http://www.w3.org/2000/svg">
<path d="M6.29485 100C3.40766 100 0.873995 97.5578 0.420294 94.1456C0.161037 92.1464 -1.90713 74.3361 6.28305 63.2969C10.2132 57.9941 15.8756 55.1873 22.6576 55.1873C36.6987 55.1873 41.1591 66.4825 44.4175 74.7252C47.564 82.6928 49.2197 86.2128 55.3594 86.2128C58.3703 86.2128 60.5269 85.1985 62.1649 83.0423C66.696 77.0152 66.3071 63.7495 65.8063 59.5742C65.3644 55.8078 67.6388 52.326 70.8972 51.8093C74.1556 51.2681 77.1547 53.9219 77.6025 57.6985C77.8736 59.9783 79.9889 80.3386 71.1329 92.102C67.244 97.2725 61.7878 100 55.3594 100C41.3241 100 36.8578 88.7144 33.5994 80.4622C30.4471 72.4945 28.7972 68.9746 22.6576 68.9746C18.2679 68.9746 16.3647 70.8598 15.3099 72.2829C11.3445 77.6356 11.7393 88.6359 12.193 92.0679C12.6879 95.8247 10.4548 99.3502 7.20814 99.9215C6.90175 99.9754 6.60124 100 6.29485 100Z" fill="white"/>
<path d="M60.4629 33.2914C57.5776 33.2914 55.2393 34.4693 55.2393 35.9202V38.3868C55.2393 39.8381 57.5776 41.0156 60.4629 41.0156C63.3471 41.0156 65.6855 39.8381 65.6855 38.3868V35.9202C65.6855 34.4693 63.3471 33.2914 60.4629 33.2914ZM87.1528 33.2914C84.2683 33.2914 81.9286 34.4693 81.9286 35.9202V38.3868C81.9286 39.8381 84.2655 41.0156 87.1528 41.0156C90.0373 41.0156 92.3742 39.8381 92.3742 38.3868V35.9202C92.3742 34.4693 90.0373 33.2914 87.1528 33.2914Z" fill="white"/>
<path d="M85.6696 17.9941L84.3035 10.3072C83.8548 7.76902 81.9102 5.93224 79.6748 5.93224H67.9453C65.7139 5.93224 63.7679 7.76902 63.3182 10.3072L62.027 17.5703L57.0142 16.3732L58.304 9.11007C59.2388 3.83222 63.2951 4.37543e-05 67.9453 4.37543e-05H79.6748C84.3289 4.37543e-05 88.3847 3.83222 89.3189 9.11007L90.6849 16.8012L85.6696 17.9941Z" fill="white"/>
<path d="M98.8321 9.40172H93.0632C92.4168 9.40172 91.8947 10.0073 91.8947 10.7558V12.4265L88.8465 14.0592L90.1335 17.2871L94.6155 14.8895H98.8321C99.4785 14.8895 100.001 14.2839 100.001 13.5354V10.7558C100.001 10.0073 99.4785 9.40172 98.8321 9.40172ZM55.7252 10.7558C55.7252 10.0073 55.2028 9.40172 54.5576 9.40172H48.7872C48.1435 9.40172 47.6196 10.0073 47.6196 10.7558V13.5354C47.6196 14.2839 48.1435 14.8895 48.7872 14.8895H53.0053L57.487 17.2871L58.7748 14.0592L55.7252 12.4265V10.7558Z" fill="white"/>
<path d="M86.5923 26.5065C84.7352 26.5065 83.2309 24.7642 83.2309 22.6119C83.2309 20.4605 84.7352 18.7169 86.5923 18.7169C88.4467 18.7169 89.9538 20.4605 89.9538 22.6119C89.9538 24.7642 88.4467 26.5065 86.5923 26.5065ZM61.0303 26.5065C59.1748 26.5065 57.67 24.7642 57.67 22.6119C57.67 20.4605 59.1748 18.7169 61.0303 18.7169C62.8868 18.7169 64.3917 20.4605 64.3917 22.6119C64.3917 24.7642 62.8868 26.5065 61.0303 26.5065ZM87.075 15.2376H60.5462C56.3237 15.2376 52.9004 17.3772 52.9004 24.3705V32.9125C52.9004 34.8808 54.2763 36.4736 55.9754 36.4736H91.6473C93.3463 36.4736 94.7208 34.8808 94.7208 32.9125V24.3705C94.7208 17.3772 91.2973 15.2376 87.075 15.2376Z" fill="white"/>
</svg>
