<svg width="294" height="243" viewBox="0 0 294 243" fill="none" xmlns="http://www.w3.org/2000/svg">
<path d="M68.6696 153.713L53.7266 132.692C55.0633 131.737 56.5367 130.594 58.1459 129.356C67.7154 121.953 83.7364 109.572 105.916 108.094L107.639 133.827C93.2896 134.781 82.5475 143.086 73.9142 149.758C72.0041 151.237 70.2539 152.587 68.6696 153.713ZM145.56 160.781C141.329 147.402 137.148 141.1 130.65 138.297C127.34 136.879 124.046 135.77 120.859 135.013L126.809 109.916C131.443 111.017 136.167 112.59 140.851 114.611C158.35 122.151 165.483 138.246 170.149 153L145.56 160.781ZM179.559 227.826C162.01 214.516 155.207 194.587 150.207 176.953L175.016 169.92C179.219 184.751 183.924 198.765 195.14 207.269L179.559 227.826ZM241.009 242.872C231.459 242.872 224.16 242.597 218.679 242.038C211.278 241.273 204.404 239.811 198.239 237.679L206.65 213.296C210.952 214.783 215.889 215.823 221.322 216.374C225.837 216.847 232.464 217.079 241.009 217.079C245.247 217.079 249.468 217.027 253.311 216.958L253.758 242.751C249.769 242.82 245.393 242.872 241.009 242.872Z" fill="white"/>
<path d="M45.1434 58.8562C37.0926 58.8562 30.571 52.3582 30.571 44.3476C30.571 36.3371 37.0926 29.8393 45.1434 29.8393C53.19 29.8393 59.7125 36.3371 59.7125 44.3476C59.7125 52.3582 53.19 58.8562 45.1434 58.8562ZM45.1434 0.114741C20.2102 0.114741 0 20.2347 0 45.0553C0 75.4954 45.1434 117.02 45.1434 117.02C45.1434 117.02 90.2835 75.4954 90.2835 45.0553C90.2835 20.2347 70.0725 0.114741 45.1434 0.114741Z" fill="white"/>
<path d="M248.858 145.667C240.807 145.667 234.286 139.169 234.286 131.159C234.286 123.148 240.807 116.65 248.858 116.65C256.905 116.65 263.427 123.148 263.427 131.159C263.427 139.169 256.905 145.667 248.858 145.667ZM248.858 86.9258C223.925 86.9258 203.715 107.046 203.715 131.866C203.715 162.306 248.858 203.831 248.858 203.831C248.858 203.831 293.998 162.306 293.998 131.866C293.998 107.046 273.787 86.9258 248.858 86.9258Z" fill="white"/>
</svg>
