<svg width="101" height="101" viewBox="0 0 101 101" fill="none" xmlns="http://www.w3.org/2000/svg">
<path d="M36.6697 50.7018C36.6697 49.4412 37.6013 48.4109 38.761 48.4109L53.05 48.4109C58.7108 48.4109 63.3065 53.4646 63.3065 59.6651L63.3065 82.0734C63.3065 85.7571 66.0339 88.7459 69.3803 88.7459L97.9584 88.7459C99.1181 88.7459 100.05 89.7761 100.05 91.0367C100.05 92.2973 99.1181 93.3275 97.9584 93.3275L69.3803 93.3275C63.7196 93.3275 59.1239 88.2739 59.1239 82.0734L59.1239 59.6651C59.1239 55.9813 56.3965 52.9926 53.05 52.9926L38.761 52.9926C37.6013 52.9926 36.6697 51.9624 36.6697 50.7018Z" fill="white" stroke="white" stroke-width="0.1"/>
<path d="M90.3536 96.1405L90.3536 96.1404L96.4774 89.418C97.2934 88.5206 98.6239 88.5206 99.4398 89.418C100.253 90.3121 100.253 91.7597 99.4398 92.6538L99.4398 92.6538L93.3159 99.3763C92.5 100.274 91.1695 100.274 90.3535 99.3763C89.9464 98.9287 89.7435 98.3428 89.7435 97.7584C89.7435 97.174 89.9464 96.588 90.3536 96.1405Z" fill="white" stroke="white" stroke-width="0.1"/>
<path d="M99.4398 89.4129L99.4398 89.4129L93.3159 82.6905L99.4398 89.4129ZM99.4398 89.4129C100.253 90.307 100.253 91.7546 99.4398 92.6487C98.6239 93.5461 97.2934 93.5461 96.4774 92.6487L90.3536 85.9263L90.3536 85.9262M99.4398 89.4129L90.3536 85.9262M90.3536 85.9262C89.9464 85.4787 89.7435 84.8927 89.7435 84.3083C89.7435 83.7239 89.9464 83.138 90.3536 82.6904M90.3536 85.9262L90.3536 82.6904M90.3536 82.6904C91.1695 81.793 92.5 81.793 93.3159 82.6904L90.3905 82.7241L90.3536 82.6904Z" fill="white" stroke="white" stroke-width="0.1"/>
<path d="M67.8985 69.2514L67.8985 69.2514L76.0636 60.2881C76.8796 59.3907 78.2101 59.3907 79.026 60.2881C79.8395 61.1822 79.8395 62.6298 79.026 63.5239L79.026 63.5239L70.8609 72.4872C70.0449 73.3846 68.7144 73.3846 67.8985 72.4872C67.4913 72.0397 67.2884 71.4537 67.2884 70.8693C67.2884 70.2849 67.4913 69.699 67.8985 69.2514Z" fill="white" stroke="white" stroke-width="0.1"/>
<path d="M79.026 69.2514L79.026 69.2514L70.8609 60.2881L79.026 69.2514ZM79.026 69.2514C79.8395 70.1455 79.8395 71.5931 79.026 72.4872C78.2101 73.3846 76.8796 73.3846 76.0636 72.4872L67.8985 63.5239L67.8985 63.5239M79.026 69.2514L67.8985 63.5239M67.8985 63.5239C67.4913 63.0764 67.2884 62.4904 67.2884 61.906C67.2884 61.3216 67.4913 60.7356 67.8985 60.2881M67.8985 63.5239L67.8985 60.2881M67.8985 60.2881C68.7144 59.3907 70.0449 59.3907 70.8608 60.2881L67.3384 61.906C67.3384 61.3329 67.5374 60.7593 67.9355 60.3217L67.8985 60.2881Z" fill="white" stroke="white" stroke-width="0.1"/>
<path d="M43.4043 71.4916L43.4044 71.4916L51.5695 62.5283C52.3854 61.6309 53.7159 61.6309 54.5319 62.5283C55.3453 63.4225 55.3453 64.87 54.5319 65.7641L54.5318 65.7642L46.3667 74.7274C45.5508 75.6249 44.2203 75.6249 43.4043 74.7275C42.9972 74.2799 42.7942 73.6939 42.7942 73.1096C42.7942 72.5252 42.9972 71.9392 43.4043 71.4916Z" fill="white" stroke="white" stroke-width="0.1"/>
<path d="M54.5319 71.4916L54.5318 71.4916L46.3667 62.5283L54.5319 71.4916ZM54.5319 71.4916C55.3453 72.3858 55.3453 73.8333 54.5319 74.7274C53.7159 75.6249 52.3854 75.6249 51.5695 74.7274L43.4044 65.7642L43.4043 65.7641M54.5319 71.4916L43.4043 65.7641M43.4043 65.7641C42.9972 65.3166 42.7942 64.7306 42.7942 64.1462C42.7942 63.5618 42.9972 62.9759 43.4043 62.5283M43.4043 65.7641L43.4043 62.5283M43.4043 62.5283C44.2203 61.6309 45.5507 61.6309 46.3667 62.5283L42.8442 64.1462C42.8442 63.5731 43.0433 62.9995 43.4413 62.562L43.4043 62.5283Z" fill="white" stroke="white" stroke-width="0.1"/>
<path d="M43.4043 89.4184L43.4044 89.4184L51.5695 80.4551C52.3854 79.5577 53.7159 79.5577 54.5319 80.4551C55.3453 81.3492 55.3453 82.7968 54.5319 83.6909L54.5318 83.6909L46.3667 92.6542C45.5508 93.5516 44.2203 93.5516 43.4043 92.6542C42.9972 92.2067 42.7942 91.6207 42.7942 91.0363C42.7942 90.4519 42.9972 89.8659 43.4043 89.4184Z" fill="white" stroke="white" stroke-width="0.1"/>
<path d="M54.5319 89.4184L54.5318 89.4184L46.3667 80.4551L54.5319 89.4184ZM54.5319 89.4184C55.3453 90.3125 55.3453 91.7601 54.5319 92.6542C53.7159 93.5516 52.3854 93.5516 51.5695 92.6542L43.4044 83.6909L43.4043 83.6909M54.5319 89.4184L43.4043 83.6909M43.4043 83.6909C42.9972 83.2434 42.7942 82.6574 42.7942 82.073C42.7942 81.4886 42.9972 80.9026 43.4043 80.4551M43.4043 83.6909L43.4043 80.4551M43.4043 80.4551C44.2203 79.5577 45.5507 79.5577 46.3667 80.4551L42.8442 82.073C42.8442 81.4999 43.0433 80.9263 43.4413 80.4887L43.4043 80.4551Z" fill="white" stroke="white" stroke-width="0.1"/>
<path d="M84.229 60.2885L84.2291 60.2885L92.3942 51.3252C93.2101 50.4278 94.5406 50.4278 95.3566 51.3252C96.17 52.2193 96.17 53.6669 95.3566 54.561L95.3566 54.561L87.1914 63.5243C86.3755 64.4217 85.045 64.4217 84.229 63.5243C83.8219 63.0768 83.6189 62.4908 83.6189 61.9064C83.6189 61.322 83.8219 60.7361 84.229 60.2885Z" fill="white" stroke="white" stroke-width="0.1"/>
<path d="M95.3566 60.2885L95.3566 60.2885L87.1914 51.3252L95.3566 60.2885ZM95.3566 60.2885C96.17 61.1826 96.17 62.6302 95.3566 63.5243C94.5406 64.4217 93.2101 64.4217 92.3942 63.5243L84.2291 54.561L84.229 54.561M95.3566 60.2885L84.229 54.561M84.229 54.561C83.8219 54.1135 83.6189 53.5275 83.6189 52.9431C83.6189 52.3587 83.8219 51.7727 84.229 51.3252M84.229 54.561L84.229 51.3252M84.229 51.3252C85.045 50.4278 86.3755 50.4278 87.1914 51.3252L83.6689 52.9431C83.6689 52.37 83.868 51.7964 84.266 51.3589L84.229 51.3252Z" fill="white" stroke="white" stroke-width="0.1"/>
<path d="M67.8985 51.3198L67.8985 51.3197L76.0636 42.3565C76.8796 41.459 78.2101 41.459 79.026 42.3565C79.8395 43.2506 79.8395 44.6981 79.026 45.5923L79.026 45.5923L70.8609 54.5556C70.0449 55.453 68.7144 55.453 67.8985 54.5556C67.4913 54.108 67.2884 53.5221 67.2884 52.9377C67.2884 52.3533 67.4913 51.7673 67.8985 51.3198Z" fill="white" stroke="white" stroke-width="0.1"/>
<path d="M79.026 51.3198L79.026 51.3198L70.8609 42.3565L79.026 51.3198ZM79.026 51.3198C79.8395 52.2139 79.8395 53.6614 79.026 54.5556C78.2101 55.453 76.8796 55.453 76.0636 54.5556L67.8985 45.5923L67.8985 45.5923M79.026 51.3198L67.8985 45.5923M67.8985 45.5923C67.4913 45.1447 67.2884 44.5588 67.2884 43.9744C67.2884 43.39 67.4913 42.804 67.8985 42.3565M67.8985 45.5923L67.8985 42.3565M67.8985 42.3565C68.7144 41.459 70.0449 41.459 70.8608 42.3564L67.3384 43.9744C67.3384 43.4013 67.5374 42.8276 67.9355 42.3901L67.8985 42.3565Z" fill="white" stroke="white" stroke-width="0.1"/>
<path d="M13.9366 34.2314C10.8056 34.2314 8.26807 35.4426 8.26807 36.9345V39.4708C8.26807 40.963 10.8056 42.1738 13.9366 42.1738C17.0665 42.1738 19.604 40.963 19.604 39.4708V36.9345C19.604 35.4426 17.0665 34.2314 13.9366 34.2314ZM42.8997 34.2314C39.7696 34.2314 37.2305 35.4426 37.2305 36.9345V39.4708C37.2305 40.963 39.7665 42.1738 42.8997 42.1738C46.0299 42.1738 48.5658 40.963 48.5658 39.4708V36.9345C48.5658 35.4426 46.0299 34.2314 42.8997 34.2314Z" fill="white"/>
<path d="M41.2933 18.502L39.8109 10.5979C39.3239 7.98793 37.2137 6.09925 34.7879 6.09925H22.0594C19.6379 6.09925 17.5262 7.98793 17.0383 10.5979L15.637 18.0662L10.1973 16.8352L11.597 9.36687C12.6113 3.93989 17.0131 -0.000555661 22.0594 -0.000555661H34.7879C39.8385 -0.000555661 44.2396 3.93989 45.2534 9.36687L46.7358 17.2753L41.2933 18.502Z" fill="white"/>
<path d="M55.5743 9.67013H49.314C48.6126 9.67013 48.046 10.2929 48.046 11.0625V12.7804L44.7382 14.4593L46.1348 17.7783L50.9985 15.313H55.5743C56.2757 15.313 56.8422 14.6903 56.8422 13.9206V11.0625C56.8422 10.2929 56.2757 9.67013 55.5743 9.67013ZM8.79597 11.0625C8.79597 10.2929 8.22904 9.67013 7.52889 9.67013H1.26706C0.568439 9.67013 0 10.2929 0 11.0625V13.9206C0 14.6903 0.568439 15.313 1.26706 15.313H5.84437L10.7078 17.7783L12.1053 14.4593L8.79597 12.7804V11.0625Z" fill="white"/>
<path d="M42.293 27.2542C40.2776 27.2542 38.6452 25.4627 38.6452 23.2495C38.6452 21.0374 40.2776 19.2445 42.293 19.2445C44.3052 19.2445 45.9407 21.0374 45.9407 23.2495C45.9407 25.4627 44.3052 27.2542 42.293 27.2542ZM14.5538 27.2542C12.5403 27.2542 10.9072 25.4627 10.9072 23.2495C10.9072 21.0374 12.5403 19.2445 14.5538 19.2445C16.5684 19.2445 18.2015 21.0374 18.2015 23.2495C18.2015 25.4627 16.5684 27.2542 14.5538 27.2542ZM42.8167 15.6669H14.0285C9.44629 15.6669 5.73145 17.8669 5.73145 25.0579V33.8412C5.73145 35.8651 7.22455 37.5029 9.06834 37.5029H47.7784C49.6222 37.5029 51.1137 35.8651 51.1137 33.8412V25.0579C51.1137 17.8669 47.3986 15.6669 42.8167 15.6669Z" fill="white"/>
</svg>
