<svg width="100" height="98" viewBox="0 0 100 98" fill="none" xmlns="http://www.w3.org/2000/svg">
<path d="M56.8571 31.5141C53.7085 31.5141 51.1567 32.6289 51.1567 34.0023V36.337C51.1567 37.7106 53.7085 38.8252 56.8571 38.8252C60.0045 38.8252 62.5562 37.7106 62.5562 36.337V34.0023C62.5562 32.6289 60.0045 31.5141 56.8571 31.5141ZM85.9824 31.5141C82.8347 31.5141 80.2815 32.6289 80.2815 34.0023V36.337C80.2815 37.7106 82.8316 38.8252 85.9824 38.8252C89.1301 38.8252 91.6803 37.7106 91.6803 36.337V34.0023C91.6803 32.6289 89.1301 31.5141 85.9824 31.5141Z" fill="white"/>
<path d="M84.3606 17.0312L82.8699 9.7554C82.3802 7.35292 80.2581 5.61435 77.8188 5.61435H65.0189C62.5839 5.61435 60.4603 7.35292 59.9697 9.7554L58.5606 16.6301L53.0903 15.497L54.4979 8.62226C55.5179 3.62663 59.9444 -0.000618038 65.0189 -0.000618038H77.8188C82.8976 -0.000618038 87.3234 3.62663 88.3429 8.62226L89.8336 15.9021L84.3606 17.0312Z" fill="white"/>
<path d="M98.7245 8.90151H92.4291C91.7238 8.90151 91.154 9.47474 91.154 10.1832V11.7646L87.8277 13.31L89.2322 16.3652L94.1231 14.0958H98.7245C99.4298 14.0958 99.9996 13.5226 99.9996 12.8141V10.1832C99.9996 9.47474 99.4298 8.90151 98.7245 8.90151ZM51.6841 10.1832C51.6841 9.47474 51.114 8.90151 50.4099 8.90151H44.113C43.4105 8.90151 42.8389 9.47474 42.8389 10.1832V12.8141C42.8389 13.5226 43.4105 14.0958 44.113 14.0958H48.716L53.6066 16.3652L55.012 13.31L51.6841 11.7646V10.1832Z" fill="white"/>
<path d="M85.3669 25.0835C83.3403 25.0835 81.6988 23.4343 81.6988 21.3971C81.6988 19.3608 83.3403 17.7104 85.3669 17.7104C87.3905 17.7104 89.0352 19.3608 89.0352 21.3971C89.0352 23.4343 87.3905 25.0835 85.3669 25.0835ZM57.4723 25.0835C55.4476 25.0835 53.8054 23.4343 53.8054 21.3971C53.8054 19.3608 55.4476 17.7104 57.4723 17.7104C59.4983 17.7104 61.1405 19.3608 61.1405 21.3971C61.1405 23.4343 59.4983 25.0835 57.4723 25.0835ZM85.8936 14.4171H56.9441C52.3362 14.4171 48.6006 16.4423 48.6006 23.0617V31.1469C48.6006 33.0099 50.1021 34.5176 51.9562 34.5176H90.8831C92.7372 34.5176 94.2372 33.0099 94.2372 31.1469V23.0617C94.2372 16.4423 90.5012 14.4171 85.8936 14.4171Z" fill="white"/>
<path d="M58.1072 50L46.6263 80.4782H34.7471C30.7158 87.8996 26.6592 94.1329 24 98H53.8972L65.378 67.5218H93V50H58.1072Z" fill="white"/>
<path d="M20.5 54.1374C16.8456 54.1374 13.8834 51.0256 13.8834 47.1878C13.8834 43.35 16.8456 40.2379 20.5 40.2379C24.1544 40.2379 27.1178 43.35 27.1178 47.1878C27.1178 51.0256 24.1544 54.1374 20.5 54.1374ZM20.5 26C9.17742 26 0 35.6392 0 47.53C0 62.1065 20.5 82 20.5 82C20.5 82 41 62.1065 41 47.53C41 35.6392 31.8226 26 20.5 26Z" fill="white"/>
</svg>
