<svg width="100" height="100" viewBox="0 0 100 100" fill="none" xmlns="http://www.w3.org/2000/svg">
<path d="M6.44838 99.999C3.49077 99.999 0.895311 97.5566 0.430545 94.1443C0.164964 92.1449 -1.95365 74.3335 6.43629 63.2936C10.4623 57.9904 16.2628 55.1835 23.2102 55.1835C37.5938 55.1835 42.163 66.4794 45.5008 74.7226C48.724 82.6907 50.4201 86.2109 56.7096 86.2109C59.7939 86.2109 62.0031 85.1966 63.6811 83.0402C68.3227 77.0128 67.9243 63.7462 67.4113 59.5707C66.9586 55.804 69.2885 52.3221 72.6263 51.8053C75.9642 51.264 79.0365 53.918 79.4952 57.6949C79.7728 59.9748 81.9398 80.3364 72.8678 92.1005C68.884 97.2713 63.2948 99.999 56.7096 99.999C42.332 99.999 37.7568 88.7127 34.4189 80.4599C31.1897 72.4918 29.4996 68.9716 23.2102 68.9716C18.7134 68.9716 16.7638 70.857 15.6833 72.2802C11.6212 77.6332 12.0256 88.6342 12.4904 92.0664C12.9974 95.8235 10.7097 99.3492 7.38395 99.9205C7.07008 99.9744 6.76225 99.999 6.44838 99.999Z" fill="white"/>
<path d="M88.6652 36.2996C88.6652 37.204 87.8738 37.94 86.9013 37.94H85.9965C85.024 37.94 84.2326 37.204 84.2326 36.2996V36.0875H88.6652V36.2996ZM80.5938 29.5261C80.0194 29.5261 79.5537 29.093 79.5537 28.5588V28.4325C79.5537 27.2246 80.6067 26.2453 81.9055 26.2453H86.936C87.8726 26.2453 88.6317 26.9518 88.6317 27.8228V27.9491C88.6317 28.8202 87.8726 29.5261 86.936 29.5261H80.5938ZM69.8825 21.3243L72.971 14.2893C73.339 13.4506 72.9063 12.4932 72.0044 12.1509C71.1036 11.8091 70.0729 12.2105 69.7049 13.0498L66.0719 21.3243H63.7448C62.7706 21.3243 61.9809 20.5905 61.9809 19.6839V8.20143C61.9809 7.29541 62.7706 6.56108 63.7448 6.56108H87.2629C88.2372 6.56108 89.0268 7.29541 89.0268 8.20143V19.6839C89.0268 20.5905 88.2372 21.3243 87.2629 21.3243H81.1041L84.1926 14.2893C84.5607 13.4506 84.128 12.4932 83.2261 12.1509C82.3247 11.8091 81.2946 12.2105 80.9266 13.0498L77.2936 21.3243H69.8825ZM70.2781 28.5588C70.2781 29.093 69.8125 29.5261 69.2381 29.5261H62.8964C61.9598 29.5261 61.2001 28.8202 61.2001 27.9491V27.8228C61.2001 26.9518 61.9598 26.2453 62.8964 26.2453H67.9263C69.2251 26.2453 70.2781 27.2246 70.2781 28.4325V28.5588ZM66.7751 36.2996C66.7751 37.204 65.9837 37.94 65.0113 37.94H64.1064C63.1339 37.94 62.3425 37.204 62.3425 36.2996V36.0875H66.7751V36.2996ZM99.8163 14.0067C99.3836 13.1952 98.3265 12.8622 97.4522 13.2652L94.9063 14.4386V8.20143C94.9063 3.67897 90.95 -0.000346962 86.087 -0.000346962H64.9207C60.0578 -0.000346962 56.1014 3.67897 56.1014 8.20143V14.3413L53.7678 13.2652C52.8947 12.8622 51.8364 13.1952 51.4037 14.0067C50.9709 14.8181 51.3278 15.8023 52.2003 16.2042L56.1014 18.0026V34.4471C56.1014 35.3537 56.891 36.0875 57.8653 36.0875H58.8148V36.2996C58.8148 39.0133 61.189 41.2207 64.1064 41.2207H65.0113C67.9287 41.2207 70.3028 39.0133 70.3028 36.2996V36.0875H80.7049V36.2996C80.7049 39.0133 83.0791 41.2207 85.9965 41.2207H86.9013C89.8188 41.2207 92.1929 39.0133 92.1929 36.2996V36.0875H93.1425C94.1167 36.0875 94.9063 35.3537 94.9063 34.4471V18.0999L99.0191 16.2042C99.8922 15.8023 100.249 14.8181 99.8163 14.0067Z" fill="white"/>
</svg>
