<svg width="98" height="100" viewBox="0 0 98 100" fill="none" xmlns="http://www.w3.org/2000/svg">
<path d="M58.1072 52L46.6263 82.4782H34.7471C30.7158 89.8996 26.6592 96.1329 24 100H53.8972L65.378 69.5218H93V52H58.1072Z" fill="white"/>
<path d="M20.5 56.1374C16.8456 56.1374 13.8834 53.0256 13.8834 49.1878C13.8834 45.35 16.8456 42.2379 20.5 42.2379C24.1544 42.2379 27.1178 45.35 27.1178 49.1878C27.1178 53.0256 24.1544 56.1374 20.5 56.1374ZM20.5 28C9.17742 28 0 37.6392 0 49.53C0 64.1065 20.5 84 20.5 84C20.5 84 41 64.1065 41 49.53C41 37.6392 31.8226 28 20.5 28Z" fill="white"/>
<path d="M85.1747 36.1518C85.1747 37.0525 84.2833 37.7854 83.188 37.7854H82.1689C81.0736 37.7854 80.1823 37.0525 80.1823 36.1518V35.9405H85.1747V36.1518ZM76.0839 29.4058C75.4369 29.4058 74.9124 28.9746 74.9124 28.4425V28.3167C74.9124 27.1138 76.0984 26.1385 77.5613 26.1385H83.2271C84.282 26.1385 85.1369 26.8421 85.1369 27.7096V27.8354C85.1369 28.7028 84.282 29.4058 83.2271 29.4058H76.0839ZM64.0197 21.2376L67.4983 14.2313C67.9129 13.396 67.4255 12.4425 66.4097 12.1016C65.3952 11.7612 64.2343 12.161 63.8198 12.9968L59.728 21.2376H57.1069C56.0097 21.2376 55.1203 20.5068 55.1203 19.6039V8.16829C55.1203 7.26597 56.0097 6.53463 57.1069 6.53463H83.5953C84.6926 6.53463 85.5819 7.26597 85.5819 8.16829V19.6039C85.5819 20.5068 84.6926 21.2376 83.5953 21.2376H76.6587L80.1373 14.2313C80.5518 13.396 80.0644 12.4425 79.0486 12.1016C78.0334 11.7612 76.8732 12.161 76.4587 12.9968L72.3669 21.2376H64.0197ZM64.4654 28.4425C64.4654 28.9746 63.9409 29.4058 63.294 29.4058H56.1514C55.0965 29.4058 54.2409 28.7028 54.2409 27.8354V27.7096C54.2409 26.8421 55.0965 26.1385 56.1514 26.1385H61.8166C63.2794 26.1385 64.4654 27.1138 64.4654 28.3167V28.4425ZM60.52 36.1518C60.52 37.0525 59.6286 37.7854 58.5333 37.7854H57.5142C56.4189 37.7854 55.5276 37.0525 55.5276 36.1518V35.9405H60.52V36.1518ZM97.7341 13.9498C97.2467 13.1417 96.0561 12.8101 95.0714 13.2114L92.204 14.38V8.16829C92.204 3.6643 87.748 8.73984e-07 82.2709 8.73984e-07H58.4314C52.9542 8.73984e-07 48.4982 3.6643 48.4982 8.16829V14.2831L45.8699 13.2114C44.8865 12.8101 43.6946 13.1417 43.2072 13.9498C42.7198 14.7579 43.1218 15.7381 44.1045 16.1384L48.4982 17.9294V34.3068C48.4982 35.2097 49.3876 35.9405 50.4849 35.9405H51.5543V36.1518C51.5543 38.8544 54.2283 41.0527 57.5142 41.0527H58.5333C61.8192 41.0527 64.4932 38.8544 64.4932 36.1518V35.9405H76.209V36.1518C76.209 38.8544 78.883 41.0527 82.1689 41.0527H83.188C86.4739 41.0527 89.1479 38.8544 89.1479 36.1518V35.9405H90.2174C91.3147 35.9405 92.204 35.2097 92.204 34.3068V18.0263L96.8362 16.1384C97.8196 15.7381 98.2215 14.7579 97.7341 13.9498Z" fill="white"/>
</svg>
