<svg width="100" height="101" viewBox="0 0 100 101" fill="none" xmlns="http://www.w3.org/2000/svg">
<path d="M35.6697 50.7018C35.6697 49.4412 36.6013 48.4109 37.761 48.4109L52.05 48.4109C57.7108 48.4109 62.3065 53.4646 62.3065 59.6651L62.3065 82.0734C62.3065 85.7571 65.0339 88.7459 68.3803 88.7459L96.9584 88.7459C98.1181 88.7459 99.0497 89.7761 99.0497 91.0367C99.0497 92.2973 98.1181 93.3275 96.9584 93.3275L68.3803 93.3275C62.7196 93.3275 58.1239 88.2739 58.1239 82.0734L58.1239 59.6651C58.1239 55.9813 55.3965 52.9926 52.05 52.9926L37.761 52.9926C36.6013 52.9926 35.6697 51.9624 35.6697 50.7018Z" fill="white" stroke="white" stroke-width="0.1"/>
<path d="M89.3536 96.1405L89.3536 96.1404L95.4774 89.418C96.2934 88.5206 97.6239 88.5206 98.4398 89.418C99.2533 90.3121 99.2533 91.7597 98.4398 92.6538L98.4398 92.6538L92.3159 99.3763C91.5 100.274 90.1695 100.274 89.3535 99.3763C88.9464 98.9287 88.7435 98.3428 88.7435 97.7584C88.7435 97.174 88.9464 96.588 89.3536 96.1405Z" fill="white" stroke="white" stroke-width="0.1"/>
<path d="M98.4398 89.4129L98.4398 89.4129L92.3159 82.6905L98.4398 89.4129ZM98.4398 89.4129C99.2532 90.307 99.2533 91.7546 98.4398 92.6487C97.6239 93.5461 96.2934 93.5461 95.4774 92.6487L89.3536 85.9263L89.3536 85.9262M98.4398 89.4129L89.3536 85.9262M89.3536 85.9262C88.9464 85.4787 88.7435 84.8927 88.7435 84.3083C88.7435 83.7239 88.9464 83.138 89.3536 82.6904M89.3536 85.9262L89.3536 82.6904M89.3536 82.6904C90.1695 81.793 91.5 81.793 92.3159 82.6904L89.3905 82.7241L89.3536 82.6904Z" fill="white" stroke="white" stroke-width="0.1"/>
<path d="M66.8985 69.2514L66.8985 69.2514L75.0636 60.2881C75.8796 59.3907 77.2101 59.3907 78.026 60.2881C78.8395 61.1822 78.8395 62.6298 78.026 63.5239L78.026 63.5239L69.8609 72.4872C69.0449 73.3846 67.7144 73.3846 66.8985 72.4872C66.4913 72.0397 66.2884 71.4537 66.2884 70.8693C66.2884 70.2849 66.4913 69.699 66.8985 69.2514Z" fill="white" stroke="white" stroke-width="0.1"/>
<path d="M78.026 69.2514L78.026 69.2514L69.8609 60.2881L78.026 69.2514ZM78.026 69.2514C78.8395 70.1455 78.8395 71.5931 78.026 72.4872C77.2101 73.3846 75.8796 73.3846 75.0636 72.4872L66.8985 63.5239L66.8985 63.5239M78.026 69.2514L66.8985 63.5239M66.8985 63.5239C66.4913 63.0764 66.2884 62.4904 66.2884 61.906C66.2884 61.3216 66.4913 60.7356 66.8985 60.2881M66.8985 63.5239L66.8985 60.2881M66.8985 60.2881C67.7144 59.3907 69.0449 59.3907 69.8608 60.2881L66.3384 61.906C66.3384 61.3329 66.5374 60.7593 66.9355 60.3217L66.8985 60.2881Z" fill="white" stroke="white" stroke-width="0.1"/>
<path d="M42.4043 71.4916L42.4044 71.4916L50.5695 62.5283C51.3854 61.6309 52.7159 61.6309 53.5319 62.5283C54.3453 63.4225 54.3453 64.87 53.5319 65.7641L53.5318 65.7642L45.3667 74.7274C44.5508 75.6249 43.2203 75.6249 42.4043 74.7275C41.9972 74.2799 41.7942 73.6939 41.7942 73.1096C41.7942 72.5252 41.9972 71.9392 42.4043 71.4916Z" fill="white" stroke="white" stroke-width="0.1"/>
<path d="M53.5319 71.4916L53.5318 71.4916L45.3667 62.5283L53.5319 71.4916ZM53.5319 71.4916C54.3453 72.3858 54.3453 73.8333 53.5319 74.7274C52.7159 75.6249 51.3854 75.6249 50.5695 74.7274L42.4044 65.7642L42.4043 65.7641M53.5319 71.4916L42.4043 65.7641M42.4043 65.7641C41.9972 65.3166 41.7942 64.7306 41.7942 64.1462C41.7942 63.5618 41.9972 62.9759 42.4043 62.5283M42.4043 65.7641L42.4043 62.5283M42.4043 62.5283C43.2203 61.6309 44.5507 61.6309 45.3667 62.5283L41.8442 64.1462C41.8442 63.5731 42.0433 62.9995 42.4413 62.562L42.4043 62.5283Z" fill="white" stroke="white" stroke-width="0.1"/>
<path d="M42.4043 89.4184L42.4044 89.4184L50.5695 80.4551C51.3854 79.5577 52.7159 79.5577 53.5319 80.4551C54.3453 81.3492 54.3453 82.7968 53.5319 83.6909L53.5318 83.6909L45.3667 92.6542C44.5508 93.5516 43.2203 93.5516 42.4043 92.6542C41.9972 92.2067 41.7942 91.6207 41.7942 91.0363C41.7942 90.4519 41.9972 89.8659 42.4043 89.4184Z" fill="white" stroke="white" stroke-width="0.1"/>
<path d="M53.5319 89.4184L53.5318 89.4184L45.3667 80.4551L53.5319 89.4184ZM53.5319 89.4184C54.3453 90.3125 54.3453 91.7601 53.5319 92.6542C52.7159 93.5516 51.3854 93.5516 50.5695 92.6542L42.4044 83.6909L42.4043 83.6909M53.5319 89.4184L42.4043 83.6909M42.4043 83.6909C41.9972 83.2434 41.7942 82.6574 41.7942 82.073C41.7942 81.4886 41.9972 80.9026 42.4043 80.4551M42.4043 83.6909L42.4043 80.4551M42.4043 80.4551C43.2203 79.5577 44.5507 79.5577 45.3667 80.4551L41.8442 82.073C41.8442 81.4999 42.0433 80.9263 42.4413 80.4887L42.4043 80.4551Z" fill="white" stroke="white" stroke-width="0.1"/>
<path d="M83.229 60.2885L83.2291 60.2885L91.3942 51.3252C92.2101 50.4278 93.5406 50.4278 94.3566 51.3252C95.17 52.2193 95.17 53.6669 94.3566 54.561L94.3566 54.561L86.1914 63.5243C85.3755 64.4217 84.045 64.4217 83.229 63.5243C82.8219 63.0768 82.6189 62.4908 82.6189 61.9064C82.6189 61.322 82.8219 60.7361 83.229 60.2885Z" fill="white" stroke="white" stroke-width="0.1"/>
<path d="M94.3566 60.2885L94.3566 60.2885L86.1914 51.3252L94.3566 60.2885ZM94.3566 60.2885C95.17 61.1826 95.17 62.6302 94.3566 63.5243C93.5406 64.4217 92.2101 64.4217 91.3942 63.5243L83.2291 54.561L83.229 54.561M94.3566 60.2885L83.229 54.561M83.229 54.561C82.8219 54.1135 82.6189 53.5275 82.6189 52.9431C82.6189 52.3587 82.8219 51.7727 83.229 51.3252M83.229 54.561L83.229 51.3252M83.229 51.3252C84.045 50.4278 85.3755 50.4278 86.1914 51.3252L82.6689 52.9431C82.6689 52.37 82.868 51.7964 83.266 51.3589L83.229 51.3252Z" fill="white" stroke="white" stroke-width="0.1"/>
<path d="M66.8985 51.3198L66.8985 51.3197L75.0636 42.3565C75.8796 41.459 77.2101 41.459 78.026 42.3565C78.8395 43.2506 78.8395 44.6981 78.026 45.5923L78.026 45.5923L69.8609 54.5556C69.0449 55.453 67.7144 55.453 66.8985 54.5556C66.4913 54.108 66.2884 53.5221 66.2884 52.9377C66.2884 52.3533 66.4913 51.7673 66.8985 51.3198Z" fill="white" stroke="white" stroke-width="0.1"/>
<path d="M78.026 51.3198L78.026 51.3198L69.8609 42.3565L78.026 51.3198ZM78.026 51.3198C78.8395 52.2139 78.8395 53.6614 78.026 54.5556C77.2101 55.453 75.8796 55.453 75.0636 54.5556L66.8985 45.5923L66.8985 45.5923M78.026 51.3198L66.8985 45.5923M66.8985 45.5923C66.4913 45.1447 66.2884 44.5588 66.2884 43.9744C66.2884 43.39 66.4913 42.804 66.8985 42.3565M66.8985 45.5923L66.8985 42.3565M66.8985 42.3565C67.7144 41.459 69.0449 41.459 69.8608 42.3564L66.3384 43.9744C66.3384 43.4013 66.5374 42.8276 66.9355 42.3901L66.8985 42.3565Z" fill="white" stroke="white" stroke-width="0.1"/>
<path d="M41.5086 37.1597C41.5086 38.0855 40.6314 38.8389 39.5534 38.8389H38.5503C37.4723 38.8389 36.5951 38.0855 36.5951 37.1597V36.9425H41.5086V37.1597ZM32.5614 30.2257C31.9246 30.2257 31.4084 29.7824 31.4084 29.2355V29.1062C31.4084 27.8697 32.5757 26.8673 34.0154 26.8673H39.5918C40.6301 26.8673 41.4715 27.5904 41.4715 28.4821V28.6114C41.4715 29.503 40.6301 30.2257 39.5918 30.2257H32.5614ZM20.6878 21.8296L24.1114 14.6281C24.5194 13.7695 24.0397 12.7894 23.04 12.439C22.0415 12.0891 20.899 12.5 20.491 13.3592L16.4638 21.8296H13.8842C12.8042 21.8296 11.9289 21.0785 11.9289 20.1504V8.39602C11.9289 7.46854 12.8042 6.71681 13.8842 6.71681H39.9542C41.0342 6.71681 41.9095 7.46854 41.9095 8.39602V20.1504C41.9095 21.0785 41.0342 21.8296 39.9542 21.8296H33.1271L36.5508 14.6281C36.9588 13.7695 36.4791 12.7894 35.4793 12.439C34.4801 12.0891 33.3383 12.5 32.9303 13.3592L28.9031 21.8296H20.6878ZM21.1264 29.2355C21.1264 29.7824 20.6102 30.2257 19.9735 30.2257H12.9437C11.9054 30.2257 11.0634 29.503 11.0634 28.6114V28.4821C11.0634 27.5904 11.9054 26.8673 12.9437 26.8673H18.5194C19.9591 26.8673 21.1264 27.8697 21.1264 29.1062V29.2355ZM17.2433 37.1597C17.2433 38.0855 16.366 38.8389 15.288 38.8389H14.285C13.207 38.8389 12.3297 38.0855 12.3297 37.1597V36.9425H17.2433V37.1597ZM53.8697 14.3387C53.3901 13.5081 52.2182 13.1672 51.2491 13.5797L48.427 14.7809V8.39602C48.427 3.76645 44.0413 -8.90574e-07 38.6507 -8.90574e-07H15.1877C9.79703 -8.90574e-07 5.4114 3.76645 5.4114 8.39602V14.6813L2.82459 13.5797C1.85674 13.1672 0.683593 13.5081 0.203904 14.3387C-0.275785 15.1694 0.119828 16.1769 1.08703 16.5883L5.4114 18.4293V35.2633C5.4114 36.1913 6.2867 36.9425 7.36665 36.9425H8.41923V37.1597C8.41923 39.9376 11.051 42.1973 14.285 42.1973H15.288C18.522 42.1973 21.1538 39.9376 21.1538 37.1597V36.9425H32.6846V37.1597C32.6846 39.9376 35.3163 42.1973 38.5503 42.1973H39.5534C42.7874 42.1973 45.4191 39.9376 45.4191 37.1597V36.9425H46.4717C47.5517 36.9425 48.427 36.1913 48.427 35.2633V18.5289L52.986 16.5883C53.9538 16.1769 54.3494 15.1694 53.8697 14.3387Z" fill="white"/>
</svg>
