<svg width="24" height="22" viewBox="0 0 24 22" fill="none" xmlns="http://www.w3.org/2000/svg">
<path d="M2.51594 19.2829H21.4841V14.983H2.51594V19.2829ZM22.267 20.8496H1.73297C1.29979 20.8496 0.95 20.499 0.95 20.0662V14.1996C0.95 13.7669 1.29979 13.4163 1.73297 13.4163H22.267C22.7002 13.4163 23.05 13.7669 23.05 14.1996V20.0662C23.05 20.499 22.7002 20.8496 22.267 20.8496Z" fill="white" stroke="black" stroke-width="0.1"/>
<path d="M15.6657 14.9829C15.2336 14.9829 14.8836 14.6322 14.8836 14.1995V6.86627C14.8836 6.43356 15.2336 6.08297 15.6657 6.08297C16.0997 6.08297 16.4498 6.43347 16.4498 6.86627V14.1995C16.4498 14.6323 16.0997 14.9829 15.6657 14.9829Z" fill="white" stroke="black" stroke-width="0.1"/>
<path d="M19.5118 12.5539L19.5118 12.5538L19.5471 11.481L19.5118 11.4456C19.5118 11.4456 19.5118 11.4456 19.5118 11.4456C22.0367 8.92038 22.0367 4.81245 19.5118 2.28743L19.5118 2.28741C19.2054 1.98086 19.2054 1.48555 19.5118 1.179L19.5118 1.17894C19.8182 0.873546 20.3147 0.873546 20.6211 1.17894L20.6211 1.179C23.7565 4.31517 23.7565 9.41766 20.6211 12.5538L20.6211 12.5538L20.6208 12.5541C20.4657 12.7067 20.2662 12.7832 20.0665 12.7832C19.8647 12.7832 19.665 12.7068 19.5118 12.5539Z" fill="white" stroke="black" stroke-width="0.1"/>
<path d="M17.316 9.98733L17.316 9.98733L17.3158 9.98715C17.0103 9.68074 17.0103 9.18528 17.3158 8.87888L17.3159 8.87883C18.4255 7.76907 18.4255 5.96368 17.3159 4.85392L17.3158 4.85388C17.0103 4.54747 17.0103 4.05201 17.3158 3.7456L17.3159 3.74555C17.6215 3.43999 18.1177 3.43999 18.4232 3.74555L18.3879 3.78091L18.4232 3.74555C20.1439 5.46642 20.1439 8.26633 18.4232 9.9872L18.4231 9.98733C18.2693 10.1399 18.0694 10.2163 17.8696 10.2163C17.6697 10.2163 17.4698 10.1399 17.316 9.98733Z" fill="white" stroke="black" stroke-width="0.1"/>
<path d="M10.7125 12.5544L10.7122 12.5542C7.57614 9.418 7.57614 4.31537 10.7122 1.17921L10.7123 1.17909C11.0197 0.873718 11.5135 0.873718 11.821 1.17909L11.8211 1.17927C12.1264 1.48564 12.1264 1.98098 11.8211 2.28753L11.8211 2.28761C9.29567 4.81271 9.29567 8.92066 11.8211 11.4458L11.8211 11.4458C12.1264 11.7522 12.1264 12.2475 11.8211 12.5541L11.8211 12.5541L11.8208 12.5544C11.6662 12.7068 11.4665 12.7832 11.2666 12.7832C11.0668 12.7832 10.8671 12.7068 10.7125 12.5544Z" fill="white" stroke="black" stroke-width="0.1"/>
<path d="M12.9159 9.98751L12.9158 9.9874C11.1958 8.26662 11.1958 5.46652 12.9158 3.74574L12.9159 3.74563C13.223 3.4403 13.7177 3.4403 14.0248 3.74563L14.025 3.74583C14.33 4.05232 14.33 4.54765 14.025 4.85395L14.025 4.85403C12.9151 5.96388 12.9151 7.76926 14.0249 8.87889L14.025 8.87899C14.33 9.18549 14.33 9.68081 14.025 9.98731L14.0248 9.98751C13.8713 10.1402 13.6702 10.2165 13.4693 10.2165C13.2705 10.2165 13.0694 10.1401 12.9159 9.98751Z" fill="white" stroke="black" stroke-width="0.1"/>
<path d="M6.13779 17.1828H3.93783C3.50468 17.1828 3.15312 16.8324 3.15312 16.3995C3.15312 15.9666 3.50467 15.6162 3.93783 15.6162H6.13779C6.56896 15.6162 6.92043 15.9667 6.92043 16.3995C6.92043 16.8323 6.56896 17.1828 6.13779 17.1828Z" fill="white" stroke="black" stroke-width="0.1"/>
<path d="M9.06524 17.1831H8.33041C7.89776 17.1831 7.54766 16.8325 7.54766 16.3997C7.54766 15.967 7.89776 15.6164 8.33041 15.6164H9.06524C9.49789 15.6164 9.84797 15.967 9.84797 16.3997C9.84797 16.8324 9.49789 17.1831 9.06524 17.1831Z" fill="white" stroke="black" stroke-width="0.1"/>
</svg>
