<svg width="22" height="22" viewBox="0 0 22 22" fill="none" xmlns="http://www.w3.org/2000/svg">
<path d="M19.2345 15.5863H20.4828V11.7924L1.51724 11.7934V15.5863H2.76555C3.0928 14.4911 4.10983 13.6898 5.31035 13.6898C6.51086 13.6898 7.52789 14.4911 7.85514 15.5863H14.1449C14.4721 14.4911 15.4891 13.6898 16.6897 13.6898C17.8902 13.6898 18.9072 14.4911 19.2345 15.5863ZM20.4828 17.1035H18.5862C18.1673 17.1035 17.8276 16.764 17.8276 16.3449C17.8276 15.7172 17.3171 15.207 16.6897 15.207C16.0622 15.207 15.5517 15.7172 15.5517 16.3449C15.5517 16.764 15.2121 17.1035 14.7931 17.1035H7.2069C6.78795 17.1035 6.44828 16.764 6.44828 16.3449C6.44828 15.7172 5.93782 15.207 5.31035 15.207C4.68287 15.207 4.17241 15.7172 4.17241 16.3449C4.17241 16.764 3.83274 17.1035 3.41379 17.1035H1.51724C0.680672 17.1035 0 16.4227 0 15.5863V11.7934C0 10.957 0.680672 10.2762 1.51724 10.2762H20.4828C21.3193 10.2762 22 10.957 22 11.7934V15.5863C22 16.4227 21.3193 17.1035 20.4828 17.1035Z" fill="white"/>
<path d="M5.31142 15.207C4.68395 15.207 4.17349 15.7172 4.17349 16.3449C4.17349 16.9727 4.68395 17.4828 5.31142 17.4828C5.9389 17.4828 6.44935 16.9727 6.44935 16.3449C6.44935 15.7172 5.9389 15.207 5.31142 15.207ZM5.31142 19C3.84738 19 2.65625 17.809 2.65625 16.3449C2.65625 14.8808 3.84738 13.6898 5.31142 13.6898C6.77547 13.6898 7.9666 14.8808 7.9666 16.3449C7.9666 17.809 6.77547 19 5.31142 19Z" fill="white"/>
<path d="M16.6903 15.207C16.0629 15.207 15.5524 15.7172 15.5524 16.3449C15.5524 16.9727 16.0629 17.4828 16.6903 17.4828C17.3178 17.4828 17.8283 16.9727 17.8283 16.3449C17.8283 15.7172 17.3178 15.207 16.6903 15.207ZM16.6903 19C15.2263 19 14.0352 17.809 14.0352 16.3449C14.0352 14.8808 15.2263 13.6898 16.6903 13.6898C18.1544 13.6898 19.3455 14.8808 19.3455 16.3449C19.3455 17.809 18.1544 19 16.6903 19Z" fill="white"/>
<path d="M18.2076 11.7935C17.7886 11.7935 17.449 11.454 17.449 11.0349C17.449 8.52487 14.5563 6.4833 11.0007 6.4833C7.44502 6.4833 4.5524 8.52487 4.5524 11.0349C4.5524 11.454 4.21273 11.7935 3.79378 11.7935C3.37483 11.7935 3.03516 11.454 3.03516 11.0349C3.03516 7.68852 6.60845 4.96612 11.0007 4.96612C15.3929 4.96612 18.9662 7.68852 18.9662 11.0349C18.9662 11.454 18.6265 11.7935 18.2076 11.7935Z" fill="white"/>
<path d="M11.0008 11.7935C10.5819 11.7935 10.2422 11.454 10.2422 11.0349V5.72471C10.2422 5.30559 10.5819 4.96612 11.0008 4.96612C11.4198 4.96612 11.7594 5.30559 11.7594 5.72471V11.0349C11.7594 11.454 11.4198 11.7935 11.0008 11.7935Z" fill="white"/>
<path d="M13.654 13.6899H12.8953C12.4764 13.6899 12.1367 13.3505 12.1367 12.9313C12.1367 12.5122 12.4764 12.1728 12.8953 12.1728H13.654C14.0729 12.1728 14.4126 12.5122 14.4126 12.9313C14.4126 13.3505 14.0729 13.6899 13.654 13.6899Z" fill="white"/>
<path d="M9.10318 13.6899H8.34456C7.92561 13.6899 7.58594 13.3505 7.58594 12.9313C7.58594 12.5122 7.92561 12.1728 8.34456 12.1728H9.10318C9.52213 12.1728 9.8618 12.5122 9.8618 12.9313C9.8618 13.3505 9.52213 13.6899 9.10318 13.6899Z" fill="white"/>
<path d="M20.4806 6.104C20.0617 6.104 19.722 5.76453 19.722 5.34541C19.722 4.00554 18.7861 3.06963 17.4461 3.06963C17.0272 3.06963 16.6875 2.73016 16.6875 2.31104C16.6875 1.89191 17.0272 1.55244 17.4461 1.55244C19.6087 1.55244 21.2392 3.18342 21.2392 5.34541C21.2392 5.76453 20.8996 6.104 20.4806 6.104Z" fill="white"/>
<path d="M18.2091 6.48315C17.7901 6.48315 17.4504 6.14368 17.4504 5.72456C17.4504 5.55767 17.2378 5.34526 17.0711 5.34526C16.6522 5.34526 16.3125 5.00579 16.3125 4.58667C16.3125 4.16755 16.6522 3.82808 17.0711 3.82808C18.0814 3.82808 18.9677 4.71468 18.9677 5.72456C18.9677 6.14368 18.628 6.48315 18.2091 6.48315Z" fill="white"/>
<path d="M1.51643 6.104C1.09748 6.104 0.757812 5.76453 0.757812 5.34541C0.757812 3.18342 2.38837 1.55244 4.55092 1.55244C4.96986 1.55244 5.30954 1.89191 5.30954 2.31104C5.30954 2.73016 4.96986 3.06963 4.55092 3.06963C3.21091 3.06963 2.27505 4.00554 2.27505 5.34541C2.27505 5.76453 1.93538 6.104 1.51643 6.104Z" fill="white"/>
<path d="M3.79378 6.48315C3.37483 6.48315 3.03516 6.14368 3.03516 5.72456C3.03516 4.71468 3.92141 3.82808 4.93171 3.82808C5.35066 3.82808 5.69033 4.16755 5.69033 4.58667C5.69033 5.00579 5.35066 5.34526 4.93171 5.34526C4.765 5.34526 4.5524 5.55767 4.5524 5.72456C4.5524 6.14368 4.21273 6.48315 3.79378 6.48315Z" fill="white"/>
</svg>
