<svg width="79" height="80" viewBox="0 0 79 80" fill="none" xmlns="http://www.w3.org/2000/svg">
<path d="M59.431 54.919C57.636 54.615 55.9419 55.831 55.6423 57.6242C55.3428 59.4185 56.5541 61.1151 58.347 61.4136C67.9246 63.0126 71.5213 65.2788 72.3091 66.2138C70.7313 68.2232 60.0126 72.433 39.5 72.433C18.9907 72.433 8.27196 68.2254 6.69086 66.2149C7.44355 65.3293 10.7703 63.2003 19.5284 61.6101C21.3168 61.2841 22.504 59.57 22.1782 57.7811C21.8534 55.9923 20.1395 54.8104 18.3521 55.1297C6.17407 57.3433 0 61.069 0 66.2061C0 76.319 24.8279 79.0176 39.5 79.0176C54.171 79.0176 79 76.319 79 66.2061C79 60.8847 72.4156 57.0876 59.431 54.919Z" fill="white"/>
<path d="M39.8633 17.1524C44.2873 17.1524 47.8862 20.752 47.8862 25.1768C47.8862 29.6028 44.2873 33.2024 39.8633 33.2024C35.4393 33.2024 31.8404 29.6028 31.8404 25.1768C31.8404 20.752 35.4393 17.1524 39.8633 17.1524ZM36.8821 65.2244C36.9908 65.423 37.1103 65.6129 37.2508 65.7786C37.8334 66.4645 38.7573 66.9375 39.7711 66.9375C39.8051 66.9375 39.8391 66.9375 39.8732 66.9364C40.9034 66.9408 41.88 66.4788 42.478 65.7731C42.6173 65.6085 42.7358 65.4219 42.8433 65.2244C46.3248 61.9266 60.5997 47.953 63.8058 37.6514C65.0325 33.7094 65.7851 31.0558 65.7851 26.372C65.7851 11.831 54.1568 0.000611581 39.8633 0.000611581C25.5709 0.000611581 13.9414 11.831 13.9414 26.372C13.9414 31.0284 14.6875 33.6699 15.9032 37.5943C19.106 47.9321 33.3963 61.9222 36.8821 65.2244Z" fill="white"/>
</svg>
