<svg width="102" height="102" viewBox="0 0 102 102" fill="none" xmlns="http://www.w3.org/2000/svg">
<path d="M5.6875 5.14616C5.04511 5.14616 4.425 5.8112 4.425 6.76923V95.2308C4.425 96.1888 5.04511 96.8538 5.6875 96.8538H96.3125C96.9549 96.8538 97.575 96.1888 97.575 95.2308V6.76923C97.575 5.8112 96.9549 5.14616 96.3125 5.14616H5.6875ZM96.3125 101.3H5.6875C2.88067 101.3 0.7 98.5179 0.7 95.2308V6.76923C0.7 3.48206 2.88067 0.699997 5.6875 0.699997H96.3125C99.1193 0.699997 101.3 3.48206 101.3 6.76923V95.2308C101.3 98.5179 99.1193 101.3 96.3125 101.3Z" fill="white" stroke="white" stroke-width="0.6"/>
<path d="M99.4375 16.6838H2.5625C1.47833 16.6838 0.7 15.6277 0.7 14.4607C0.7 13.2937 1.47833 12.2376 2.5625 12.2376H99.4375C100.522 12.2376 101.3 13.2937 101.3 14.4607C101.3 15.6277 100.522 16.6838 99.4375 16.6838Z" fill="white" stroke="white" stroke-width="0.6"/>
<path d="M66.625 10.9143H16.625C15.5408 10.9143 14.7625 9.85815 14.7625 8.69118C14.7625 7.52421 15.5408 6.4681 16.625 6.4681H66.625C67.7092 6.4681 68.4875 7.52421 68.4875 8.69118C68.4875 9.85815 67.7092 10.9143 66.625 10.9143Z" fill="white" stroke="white" stroke-width="0.6"/>
<path d="M76 10.9143H72.875C71.7908 10.9143 71.0125 9.85815 71.0125 8.69118C71.0125 7.52421 71.7908 6.4681 72.875 6.4681H76C77.0842 6.4681 77.8625 7.52421 77.8625 8.69118C77.8625 9.85815 77.0842 10.9143 76 10.9143Z" fill="white" stroke="white" stroke-width="0.6"/>
<path d="M85.375 10.9143H82.25C81.1658 10.9143 80.3875 9.85815 80.3875 8.69118C80.3875 7.52421 81.1658 6.4681 82.25 6.4681H85.375C86.4592 6.4681 87.2375 7.52421 87.2375 8.69118C87.2375 9.85815 86.4592 10.9143 85.375 10.9143Z" fill="white" stroke="white" stroke-width="0.6"/>
<path d="M32.55 37.2367H69.45V26.2982H32.55V37.2367ZM71.3125 41.6828H30.6875C29.6033 41.6828 28.825 40.6267 28.825 39.4597V24.0751C28.825 22.9081 29.6033 21.852 30.6875 21.852H71.3125C72.3967 21.852 73.175 22.9081 73.175 24.0751V39.4597C73.175 40.6267 72.3967 41.6828 71.3125 41.6828Z" fill="white" stroke="white" stroke-width="0.6"/>
<path d="M32.55 62.2391H69.45V51.3006H32.55V62.2391ZM71.3125 66.6853H30.6875C29.6033 66.6853 28.825 65.6292 28.825 64.4622V49.0776C28.825 47.9106 29.6033 46.8545 30.6875 46.8545H71.3125C72.3967 46.8545 73.175 47.9106 73.175 49.0776V64.4622C73.175 65.6292 72.3967 66.6853 71.3125 66.6853Z" fill="white" stroke="white" stroke-width="0.6"/>
<path d="M32.55 87.2406H69.45V76.3021H32.55V87.2406ZM71.3125 91.6867H30.6875C29.6033 91.6867 28.825 90.6306 28.825 89.4636V74.079C28.825 72.9121 29.6033 71.856 30.6875 71.856H71.3125C72.3967 71.856 73.175 72.9121 73.175 74.079V89.4636C73.175 90.6306 72.3967 91.6867 71.3125 91.6867Z" fill="white" stroke="white" stroke-width="0.6"/>
<path d="M86.9375 58.9919H76C74.9158 58.9919 74.1375 57.9358 74.1375 56.7688C74.1375 55.6018 74.9158 54.5457 76 54.5457H85.075V33.9919H76C74.9158 33.9919 74.1375 32.9358 74.1375 31.7688C74.1375 30.6018 74.9158 29.5457 76 29.5457H86.9375C88.0217 29.5457 88.8 30.6018 88.8 31.7688V56.7688C88.8 57.9358 88.0217 58.9919 86.9375 58.9919Z" fill="white" stroke="white" stroke-width="0.6"/>
<path d="M79.125 62.8386C78.6287 62.8386 78.1434 62.6043 77.7867 62.1653L74.6617 58.3191C73.9628 57.4589 73.9628 56.0798 74.6617 55.2196C75.0183 54.7807 75.5015 54.5463 76 54.5463C76.4985 54.5463 76.9817 54.7807 77.3383 55.2196L80.4633 59.0657C81.1622 59.926 81.1622 61.305 80.4633 62.1653C80.1066 62.6043 79.6213 62.8386 79.125 62.8386Z" fill="white" stroke="white" stroke-width="0.6"/>
<path d="M76 58.9919C75.5037 58.9919 75.0184 58.7576 74.6617 58.3186C73.9628 57.4584 73.9628 56.0793 74.6617 55.2191L77.7867 51.3729C78.1433 50.934 78.6265 50.6996 79.125 50.6996C79.6235 50.6996 80.1067 50.934 80.4633 51.3729C81.1622 52.2331 81.1622 53.6122 80.4633 54.4724L77.3383 58.3186C76.9816 58.7576 76.4963 58.9919 76 58.9919Z" fill="white" stroke="white" stroke-width="0.6"/>
<path d="M26 83.9938H15.0625C13.9783 83.9938 13.2 82.9377 13.2 81.7708V56.7708C13.2 55.6038 13.9783 54.5477 15.0625 54.5477H26C27.0842 54.5477 27.8625 55.6038 27.8625 56.7708C27.8625 57.9377 27.0842 58.9938 26 58.9938H16.925V79.5477H26C27.0842 79.5477 27.8625 80.6038 27.8625 81.7708C27.8625 82.9377 27.0842 83.9938 26 83.9938Z" fill="white" stroke="white" stroke-width="0.6"/>
<path d="M22.875 87.8371C22.3787 87.8371 21.8934 87.6028 21.5367 87.1638C20.8378 86.3036 20.8378 84.9245 21.5367 84.0643L24.6617 80.2181C25.0183 79.7793 25.5015 79.5448 26 79.5448C26.4985 79.5448 26.9817 79.7793 27.3383 80.2181C28.0372 81.0783 28.0372 82.4574 27.3383 83.3176L24.2133 87.1638C23.8566 87.6028 23.3713 87.8371 22.875 87.8371Z" fill="white" stroke="white" stroke-width="0.6"/>
<path d="M26 83.9938C25.5037 83.9938 25.0184 83.7596 24.6617 83.3205L21.5367 79.4744C20.8378 78.6142 20.8378 77.2351 21.5367 76.3749C21.8933 75.936 22.3765 75.7015 22.875 75.7015C23.3735 75.7015 23.8567 75.936 24.2133 76.3749L27.3383 80.221C28.0372 81.0812 28.0372 82.4603 27.3383 83.3205C26.9816 83.7596 26.4963 83.9938 26 83.9938Z" fill="white" stroke="white" stroke-width="0.6"/>
<path d="M26 32.0695H15.0625C13.9783 32.0695 13.2 31.0134 13.2 29.8465C13.2 28.6795 13.9783 27.6234 15.0625 27.6234H26C27.0842 27.6234 27.8625 28.6795 27.8625 29.8465C27.8625 31.0134 27.0842 32.0695 26 32.0695Z" fill="white" stroke="white" stroke-width="0.6"/>
<path d="M26 32.0695C25.5037 32.0695 25.0184 31.8353 24.6617 31.3962L21.5367 27.5501C20.8378 26.6898 20.8378 25.3108 21.5367 24.4505C21.8933 24.0117 22.3765 23.7772 22.875 23.7772C23.3735 23.7772 23.8567 24.0117 24.2133 24.4505L27.3383 28.2967C28.0372 29.1569 28.0372 30.536 27.3383 31.3962C26.9816 31.8353 26.4963 32.0695 26 32.0695Z" fill="white" stroke="white" stroke-width="0.6"/>
<path d="M22.875 35.9162C22.3787 35.9162 21.8934 35.6819 21.5367 35.2429C20.8378 34.3827 20.8378 33.0036 21.5367 32.1434L24.6617 28.2972C25.0183 27.8584 25.5015 27.6239 26 27.6239C26.4985 27.6239 26.9817 27.8584 27.3383 28.2972C28.0372 29.1574 28.0372 30.5365 27.3383 31.3967L24.2133 35.2429C23.8566 35.6819 23.3713 35.9162 22.875 35.9162Z" fill="white" stroke="white" stroke-width="0.6"/>
</svg>
