<svg width="100" height="100" viewBox="0 0 100 100" fill="none" xmlns="http://www.w3.org/2000/svg">
<path d="M69.6418 93.333H92.8583V44.7952L50 7.86835L7.1418 44.7952V93.333H30.3583V81.6665C30.3583 71.5573 39.1661 63.333 50 63.333C60.826 63.333 69.6418 71.5573 69.6418 81.6665V93.333ZM96.4252 100H66.067C64.0958 100 62.5 98.507 62.5 96.6665V81.6665C62.5 75.2332 56.8914 69.9993 50 69.9993C43.1086 69.9993 37.5 75.2332 37.5 81.6665V96.6665C37.5 98.507 35.8964 100 33.9252 100H3.567C1.59579 100 0 98.507 0 96.6665V43.335C0 42.4005 0.414626 41.5172 1.1421 40.882L47.5751 0.881584C48.944 -0.293823 51.056 -0.293823 52.4249 0.881584L98.8501 40.882C99.5854 41.5172 100 42.4005 100 43.335V96.6665C100 98.507 98.4042 100 96.4252 100Z" fill="white"/>
<path d="M70.2055 44.4863C69.2859 44.4863 68.374 44.1573 67.6766 43.5064C62.9482 39.1005 56.6718 36.6758 49.9968 36.6758C43.3142 36.6758 37.0378 39.1005 32.3247 43.5064C30.9299 44.8082 28.6615 44.8082 27.2668 43.5064C25.872 42.2047 25.872 40.0947 27.2668 38.793C33.3363 33.1282 41.406 30.0025 49.9968 30.0025C58.5876 30.0025 66.6573 33.1282 72.7268 38.793C74.1216 40.0947 74.1216 42.2047 72.7268 43.5064C72.0294 44.1573 71.1098 44.4863 70.2055 44.4863Z" fill="white"/>
<path d="M62.6237 51.5527C61.7096 51.5527 60.7956 51.2257 60.1024 50.5716C57.406 48.055 53.8107 46.6687 49.9946 46.6687C46.1785 46.6687 42.5985 48.055 39.902 50.5716C38.5005 51.8797 36.2382 51.8726 34.8443 50.5716C33.4503 49.2706 33.4503 47.1664 34.8443 45.8583C38.8889 42.0833 44.2742 40.0004 49.9946 40.0004C55.7226 40.0004 61.1079 42.0833 65.1525 45.8583C66.5464 47.1664 66.5464 49.2707 65.1525 50.5788C64.4518 51.2257 63.5377 51.5527 62.6237 51.5527Z" fill="white"/>
<path d="M55.0442 58.6191C54.1357 58.6191 53.2197 58.2941 52.5232 57.6441C51.1681 56.3864 48.8212 56.3864 47.4737 57.6441C46.0807 58.9442 43.8171 58.9442 42.4241 57.6441C41.0312 56.344 41.0312 54.2313 42.4241 52.9312C44.4455 51.0447 47.133 49.9989 49.9947 49.9989C52.8563 49.9989 55.5514 51.0447 57.5727 52.9312C58.9657 54.2313 58.9657 56.344 57.5727 57.6441C56.8762 58.2941 55.9602 58.6191 55.0442 58.6191Z" fill="white"/>
</svg>
