<svg width="100" height="100" viewBox="0 0 100 100" fill="none" xmlns="http://www.w3.org/2000/svg">
<path d="M70.0009 85.0146H93.3341V71.6788H70.0009V85.0146ZM96.6673 91.6797H66.6677C64.8266 91.6797 63.3345 90.1854 63.3345 88.3471V68.3462C63.3345 66.508 64.8266 65.0137 66.6677 65.0137H96.6673C98.5084 65.0137 100.001 66.508 100.001 68.3462V88.3471C100.001 90.1854 98.5084 91.6797 96.6673 91.6797Z" fill="white"/>
<path d="M86.6651 99.9946H76.6648C74.8241 99.9946 73.3315 98.5027 73.3315 96.661C73.3315 94.8192 74.8241 93.3273 76.6648 93.3273H86.6651C88.5058 93.3273 89.9983 94.8192 89.9983 96.661C89.9983 98.5027 88.5058 99.9946 86.6651 99.9946Z" fill="white"/>
<path d="M6.66645 85.0146H29.9996V71.6788H6.66645V85.0146ZM33.3328 91.6797H3.33323C1.49208 91.6797 0 90.1854 0 88.3471V68.3462C0 66.508 1.49208 65.0137 3.33323 65.0137H33.3328C35.174 65.0137 36.666 66.508 36.666 68.3462V88.3471C36.666 90.1854 35.174 91.6797 33.3328 91.6797Z" fill="white"/>
<path d="M23.3335 99.9946H13.3332C11.4926 99.9946 10 98.5027 10 96.661C10 94.8192 11.4926 93.3273 13.3332 93.3273H23.3335C25.1742 93.3273 26.6668 94.8192 26.6668 96.661C26.6668 98.5027 25.1742 99.9946 23.3335 99.9946Z" fill="white"/>
<path d="M73.334 59.9956H61.6671C59.8262 59.9956 58.3336 58.5043 58.3336 56.6628C58.3336 54.8214 59.8262 53.3301 61.6671 53.3301H73.334C79.7667 53.3301 85.0002 48.0955 85.0002 41.6654C85.0002 36.7206 81.8702 32.2951 77.2121 30.6589C75.8071 30.1699 74.9008 28.7994 74.9895 27.3141C75.0022 27.0968 75.0004 26.8794 75.0004 26.6681C75.0004 20.232 69.7668 14.9974 63.3342 14.9974C61.9654 14.9974 60.6371 15.2329 59.386 15.6917C57.7902 16.2834 56.0055 15.571 55.2489 14.0495C52.9853 9.49717 48.4202 6.66555 43.3339 6.66555C35.9817 6.66555 30.0006 12.6488 30.0006 19.9965C30.0006 21.7233 28.6826 23.2508 26.9636 23.4017C19.1935 24.096 13.3338 30.514 13.3338 38.3327C13.3338 46.6042 20.063 53.3301 28.3342 53.3301H38.334C40.1749 53.3301 41.6675 54.8214 41.6675 56.6628C41.6675 58.5043 40.1749 59.9956 38.334 59.9956H28.3342C16.3865 59.9956 6.66748 50.2811 6.66748 38.3327C6.66748 28.0084 13.7438 19.3747 23.5383 17.2011C24.9306 7.46251 33.2767 1.90735e-05 43.3339 1.90735e-05C50.0268 1.90735e-05 56.1184 3.2603 59.8087 8.66998C60.9601 8.44659 62.1393 8.3319 63.3342 8.3319C72.9862 8.3319 80.9199 15.8306 81.6173 25.3096C87.713 28.3948 91.6672 34.698 91.6672 41.6654C91.6672 51.7724 83.4431 59.9956 73.334 59.9956Z" fill="white"/>
<path d="M53.3336 50.0152C53.3336 51.8556 51.8411 53.3452 50 53.3452C48.1595 53.3452 46.667 51.8556 46.667 50.0152C46.667 48.1748 48.1595 46.6794 50 46.6794C51.8411 46.6794 53.3336 48.1748 53.3336 50.0152Z" fill="white"/>
<path d="M53.3336 58.3456C53.3336 60.1867 51.8412 61.6802 50.0006 61.6802C48.1594 61.6802 46.667 60.1867 46.667 58.3456C46.667 56.5044 48.1594 55.011 50.0006 55.011C51.8412 55.011 53.3336 56.5044 53.3336 58.3456Z" fill="white"/>
<path d="M53.3313 66.6627C53.3313 68.5043 51.8387 69.9956 49.9982 69.9956C48.1571 69.9956 46.6646 68.5043 46.6646 66.6627C46.6646 64.8211 48.1571 63.3297 49.9982 63.3297C51.8387 63.3297 53.3313 64.8211 53.3313 66.6627Z" fill="white"/>
<path d="M53.3333 74.9888C53.3333 76.8306 51.8408 78.3252 50.0001 78.3252C48.1595 78.3252 46.667 76.8306 46.667 74.9888C46.667 73.1527 48.1595 71.6581 50.0001 71.6581C51.8408 71.6581 53.3333 73.1527 53.3333 74.9888Z" fill="white"/>
<path d="M61.6682 74.9888C61.6682 76.8306 60.1758 78.3252 58.3351 78.3252C56.4944 78.3252 55.002 76.8306 55.002 74.9888C55.002 73.1527 56.4944 71.6581 58.3351 71.6581C60.1758 71.6581 61.6682 73.1527 61.6682 74.9888Z" fill="white"/>
<path d="M45.0013 74.9888C45.0013 76.8306 43.5088 78.3252 41.6676 78.3252C39.8269 78.3252 38.3345 76.8306 38.3345 74.9888C38.3345 73.1527 39.8269 71.6581 41.6676 71.6581C43.5088 71.6581 45.0013 73.1527 45.0013 74.9888Z" fill="white"/>
</svg>
