<svg width="20" height="20" viewBox="0 0 20 20" fill="none" xmlns="http://www.w3.org/2000/svg">
<path d="M4.15993 13.6846C3.64867 13.6846 3.20005 13.3113 3.12048 12.7907C3.07392 12.4851 2.7091 9.76631 4.15739 8.08017C4.85233 7.27011 5.8537 6.8418 7.05313 6.8418C9.53664 6.8418 10.3264 8.56604 10.9037 9.82557C11.4589 11.0419 11.7518 11.5794 12.8378 11.5794C13.3703 11.5794 13.7529 11.4245 14.0415 11.0953C14.8431 10.1752 14.7745 8.14958 14.6873 7.51135C14.6078 6.9366 15.0107 6.40502 15.5863 6.3263C16.1619 6.24674 16.6935 6.64965 16.773 7.22524C16.8213 7.57314 17.1946 10.6822 15.6286 12.4775C14.9396 13.2673 13.9746 13.6846 12.8378 13.6846C10.3543 13.6846 9.56542 11.9612 8.98814 10.7017C8.43201 9.48445 8.13914 8.94694 7.05313 8.94694C6.27693 8.94694 5.94004 9.23474 5.75382 9.45143C5.0521 10.27 5.12151 11.9493 5.20193 12.4733C5.28911 13.0472 4.89466 13.5855 4.31991 13.6727C4.26574 13.6812 4.21241 13.6846 4.15993 13.6846Z" fill="white"/>
<path d="M2.10562 17.8952H17.8944V2.10563H2.10562V17.8952ZM18.9472 20H1.05282C0.470703 20 0 19.5284 0 18.9472V1.05281C0 0.47156 0.470703 0 1.05282 0H18.9472C19.5284 0 20 0.47156 20 1.05281V18.9472C20 19.5284 19.5284 20 18.9472 20Z" fill="white"/>
</svg>
