<svg width="100" height="100" viewBox="0 0 100 100" fill="none" xmlns="http://www.w3.org/2000/svg">
<path d="M96.6666 45.0098H3.33299C1.49246 45.0098 0 43.5187 0 41.6742C0 39.8342 1.49246 38.3431 3.33299 38.3431H96.6666C98.5071 38.3431 100 39.8342 100 41.6742C100 43.5187 98.5071 45.0098 96.6666 45.0098Z" fill="white"/>
<path d="M41.6665 100C40.9581 100 40.2588 99.7734 39.6768 99.3429C38.8311 98.7129 38.333 97.7204 38.333 96.6689V86.8888L6.61889 67.8588C5.61455 67.2605 5 66.1729 5 65.0036V41.6681C5 39.8281 6.49245 38.337 8.33343 38.337C10.174 38.337 11.6664 39.8281 11.6664 41.6681V63.1137L43.381 82.1437C44.3853 82.7465 44.9999 83.8297 44.9999 85.0035V92.1868L54.9998 89.1866V85.0035C54.9998 83.8297 55.6143 82.7465 56.6187 82.1437L88.3332 63.1137V41.6681C88.3332 39.8281 89.8257 38.337 91.6667 38.337C93.5072 38.337 94.9997 39.8281 94.9997 41.6681V65.0036C94.9997 66.1729 94.3851 67.2605 93.3812 67.8588L61.6666 86.8888V91.6701C61.6666 93.1385 60.7017 94.4392 59.2913 94.8607L42.6246 99.8595C42.3105 99.9547 41.9873 100 41.6665 100Z" fill="white"/>
<path d="M25.0023 16.6666C23.1641 16.6666 21.669 18.1584 21.669 19.9984V23.3301C21.669 25.1701 23.1641 26.6666 25.0023 26.6666C26.8409 26.6666 28.3356 25.1701 28.3356 23.3301V19.9984C28.3356 18.1584 26.8409 16.6666 25.0023 16.6666ZM25.0023 33.3301C19.4882 33.3301 15.0024 28.8454 15.0024 23.3301V19.9984C15.0024 14.4831 19.4882 9.99837 25.0023 9.99837C30.5164 9.99837 35.0026 14.4831 35.0026 19.9984V23.3301C35.0026 28.8454 30.5164 33.3301 25.0023 33.3301Z" fill="white"/>
<path d="M53.3326 6.66879C51.4943 6.66879 49.9992 8.16569 49.9992 10.0058V13.3381C49.9992 15.1735 51.4943 16.6704 53.3326 16.6704C55.1709 16.6704 56.6659 15.1735 56.6659 13.3381V10.0058C56.6659 8.16569 55.1709 6.66879 53.3326 6.66879ZM53.3326 23.335C47.8182 23.335 43.3325 18.849 43.3325 13.3381V10.0058C43.3325 4.49018 47.8182 0.00424957 53.3326 0.00424957C58.8465 0.00424957 63.3326 4.49018 63.3326 10.0058V13.3381C63.3326 18.849 58.8465 23.335 53.3326 23.335Z" fill="white"/>
<path d="M73.3352 28.3449C71.4967 28.3449 70.0016 29.8371 70.0016 31.6769V35.009C70.0016 36.8488 71.4967 38.341 73.3352 38.341C75.1737 38.341 76.6683 36.8488 76.6683 35.009V31.6769C76.6683 29.8371 75.1737 28.3449 73.3352 28.3449ZM73.3352 45.0098C67.8211 45.0098 63.335 40.5238 63.335 35.009V31.6769C63.335 26.1621 67.8211 21.6761 73.3352 21.6761C78.8493 21.6761 83.335 26.1621 83.335 31.6769V35.009C83.335 40.5238 78.8493 45.0098 73.3352 45.0098Z" fill="white"/>
<path d="M11.6683 16.665C9.82762 16.665 8.33496 15.1729 8.33496 13.3328V3.33121C8.33496 1.49107 9.82762 -0.00108337 11.6683 -0.00108337C13.5095 -0.00108337 15.0016 1.49107 15.0016 3.33121V13.3328C15.0016 15.1729 13.5095 16.665 11.6683 16.665Z" fill="white"/>
<path d="M39.9986 45.0098C38.1575 45.0098 36.665 43.5169 36.665 41.6796V31.6798C36.665 29.8378 38.1575 28.345 39.9986 28.345C41.8392 28.345 43.3316 29.8378 43.3316 31.6798V41.6796C43.3316 43.5169 41.8392 45.0098 39.9986 45.0098Z" fill="white"/>
<path d="M88.3358 18.3252C86.4948 18.3252 85.0024 16.8363 85.0024 14.9953V4.99608C85.0024 3.15513 86.4948 1.66145 88.3358 1.66145C90.1763 1.66145 91.6691 3.15513 91.6691 4.99608V14.9953C91.6691 16.8363 90.1763 18.3252 88.3358 18.3252Z" fill="white"/>
</svg>
