<svg width="101" height="101" viewBox="0 0 101 101" fill="none" xmlns="http://www.w3.org/2000/svg">
<path d="M25.0068 75.0051H75.0046V25.0045H34.3855L25.0068 34.3828V75.0051ZM78.3381 81.6719H21.6733C19.8313 81.6719 18.3398 80.1758 18.3398 78.3385V33.0036C18.3398 32.12 18.6905 31.2738 19.3123 30.6474L30.6452 19.3148C31.2717 18.6883 32.1226 18.3377 33.0063 18.3377H78.3381C80.1802 18.3377 81.6716 19.8291 81.6716 21.6711V78.3385C81.6716 80.1758 80.1802 81.6719 78.3381 81.6719Z" fill="white"/>
<path d="M96.6695 53.332H78.3371C76.4938 53.332 75 51.8383 75 49.9951C75 48.1567 76.4938 46.6629 78.3371 46.6629H96.6695C98.508 46.6629 100.002 48.1567 100.002 49.9951C100.002 51.8383 98.508 53.332 96.6695 53.332Z" fill="white"/>
<path d="M96.6695 40.0068H78.3371C76.4938 40.0068 75 38.5131 75 36.6699C75 34.8315 76.4938 33.3377 78.3371 33.3377H96.6695C98.508 33.3377 100.002 34.8315 100.002 36.6699C100.002 38.5131 98.508 40.0068 96.6695 40.0068Z" fill="white"/>
<path d="M96.6695 66.667H78.3371C76.4938 66.667 75 65.1781 75 63.3348C75 61.4964 76.4938 60.0026 78.3371 60.0026H96.6695C98.508 60.0026 100.002 61.4964 100.002 63.3348C100.002 65.1781 98.508 66.667 96.6695 66.667Z" fill="white"/>
<path d="M50.0031 25.0068C48.1575 25.0068 46.6675 23.5124 46.6675 21.6714V3.3375C46.6675 1.49646 48.1575 0.00652695 50.0031 0.00652695C51.8442 0.00652695 53.3342 1.49646 53.3342 3.3375V21.6714C53.3342 23.5124 51.8442 25.0068 50.0031 25.0068Z" fill="white"/>
<path d="M36.6723 24.9971C34.8293 24.9971 33.3398 23.5077 33.3398 21.6647V3.33251C33.3398 1.48957 34.8293 0.000211716 36.6723 0.000211716C38.5153 0.000211716 40.0047 1.48957 40.0047 3.33251V21.6647C40.0047 23.5077 38.5153 24.9971 36.6723 24.9971Z" fill="white"/>
<path d="M63.3342 25.002C61.4917 25.002 59.9976 23.5124 59.9976 21.67V3.33759C59.9976 1.49518 61.4917 0.00110054 63.3342 0.00110054C65.1766 0.00110054 66.6662 1.49518 66.6662 3.33759V21.67C66.6662 23.5124 65.1766 25.002 63.3342 25.002Z" fill="white"/>
<path d="M21.6686 53.3271H3.33664C1.49306 53.3271 0 51.8342 0 49.995C0 48.1515 1.49306 46.6628 3.33664 46.6628H21.6686C23.5078 46.6628 25.0008 48.1515 25.0008 49.995C25.0008 51.8342 23.5078 53.3271 21.6686 53.3271Z" fill="white"/>
<path d="M21.6686 66.6719H3.33664C1.49306 66.6719 0 65.1789 0 63.3397C0 61.4962 1.49306 60.0032 3.33664 60.0032H21.6686C23.5078 60.0032 25.0008 61.4962 25.0008 63.3397C25.0008 65.1789 23.5078 66.6719 21.6686 66.6719Z" fill="white"/>
<path d="M21.6686 40.002H3.33664C1.49306 40.002 0 38.509 0 36.6698C0 34.8263 1.49306 33.3376 3.33664 33.3376H21.6686C23.5078 33.3376 25.0008 34.8263 25.0008 36.6698C25.0008 38.509 23.5078 40.002 21.6686 40.002Z" fill="white"/>
<path d="M50.0031 99.9971C48.1575 99.9971 46.6675 98.5026 46.6675 96.6616V78.3277C46.6675 76.4867 48.1575 74.9967 50.0031 74.9967C51.8442 74.9967 53.3342 76.4867 53.3342 78.3277V96.6616C53.3342 98.5026 51.8442 99.9971 50.0031 99.9971Z" fill="white"/>
<path d="M63.3342 100.002C61.4917 100.002 59.9976 98.5078 59.9976 96.6654V78.333C59.9976 76.4952 61.4917 75.0011 63.3342 75.0011C65.1766 75.0011 66.6662 76.4952 66.6662 78.333V96.6654C66.6662 98.5078 65.1766 100.002 63.3342 100.002Z" fill="white"/>
<path d="M36.6723 99.9873C34.8293 99.9873 33.3398 98.4979 33.3398 96.655V78.3227C33.3398 76.4842 34.8293 74.9904 36.6723 74.9904C38.5153 74.9904 40.0047 76.4842 40.0047 78.3227V96.655C40.0047 98.4979 38.5153 99.9873 36.6723 99.9873Z" fill="white"/>
<path d="M38.3302 63.3371H61.6651V50.0027H38.3302V63.3371ZM64.9954 70.002H34.9953C33.1579 70.002 31.665 68.5091 31.665 66.6718V46.6725C31.665 44.8306 33.1579 43.3378 34.9953 43.3378H64.9954C66.8373 43.3378 68.3302 44.8306 68.3302 46.6725V66.6718C68.3302 68.5091 66.8373 70.002 64.9954 70.002Z" fill="white"/>
<path d="M43.3338 43.3359H56.6663C56.6663 39.6584 53.6731 36.6699 50 36.6699C46.3224 36.6699 43.3338 39.6584 43.3338 43.3359ZM59.9972 50.002H39.9983C38.1595 50.002 36.6675 48.51 36.6675 46.6667V43.3359C36.6675 35.9855 42.6493 29.9993 50 29.9993C57.3507 29.9993 63.3326 35.9855 63.3326 43.3359V46.6667C63.3326 48.51 61.8406 50.002 59.9972 50.002Z" fill="white"/>
<path d="M50.0031 61.6719C48.1575 61.6719 46.6675 60.182 46.6675 58.3364V55.0054C46.6675 53.1644 48.1575 51.6699 50.0031 51.6699C51.8442 51.6699 53.3342 53.1644 53.3342 55.0054V58.3364C53.3342 60.182 51.8442 61.6719 50.0031 61.6719Z" fill="white"/>
</svg>
