<svg width="100" height="100" viewBox="0 0 100 100" fill="none" xmlns="http://www.w3.org/2000/svg">
<path d="M21.6665 26.1273C13.3958 26.1273 6.66654 32.9771 6.66654 41.402C6.66654 49.8209 13.3958 56.6706 21.6665 56.6706H81.6667C88.0996 56.6706 93.3335 51.3357 93.3335 44.7816C93.3335 38.4629 88.4871 33.2486 82.2998 32.9046C81.4126 32.8563 80.5834 32.458 79.9955 31.7942C79.4041 31.1303 79.1041 30.2613 79.1542 29.3802C79.1663 29.1569 79.1663 28.9335 79.1663 28.7103C79.1663 22.1562 73.9331 16.8212 67.5001 16.8212C65.3872 16.8212 63.3165 17.4067 61.5083 18.5171C60.6459 19.0421 59.5957 19.1507 58.65 18.8128C57.7043 18.4748 56.9583 17.7265 56.6209 16.779C54.4917 10.7379 48.8168 6.67634 42.5003 6.67634C34.2289 6.67634 27.5002 13.5261 27.5002 21.945L27.5166 22.977C27.5166 23.9546 27.0874 24.8841 26.3415 25.5177C25.5997 26.1514 24.6124 26.423 23.6503 26.2661C23.0583 26.1755 22.4083 26.1273 21.6665 26.1273ZM81.6667 63.3394H21.6665C9.72096 63.3394 0 53.4962 0 41.402C0 29.5371 9.34621 19.8448 20.9707 19.4706C22.1874 8.53513 31.3791 0.00762177 42.5003 0.00762177C50.4083 0.00762177 57.6168 4.38907 61.4039 11.2147C63.3539 10.5146 65.4125 10.1586 67.5001 10.1586C76.929 10.1586 84.7205 17.4006 85.7248 26.6765C93.9376 28.5594 100 35.9886 100 44.7816C100 55.017 91.7751 63.3394 81.6667 63.3394Z" fill="white"/>
<path d="M49.9986 99.9971C40.6069 99.9971 31.2196 96.4228 24.0735 89.2743C22.7698 87.9706 22.7698 85.8602 24.0735 84.562C25.3735 83.2583 27.4861 83.2583 28.786 84.562C40.4821 96.2571 59.5152 96.2571 71.2113 84.562C72.5112 83.2583 74.6238 83.2583 75.9237 84.562C77.2275 85.8602 77.2275 87.9706 75.9237 89.2743C68.7777 96.4228 59.3904 99.9971 49.9986 99.9971Z" fill="white"/>
<path d="M49.9969 86.6646C44.0221 86.6646 38.0473 84.3926 33.4971 79.8431C32.1969 78.5425 32.1969 76.4268 33.4971 75.1262C34.7972 73.8255 36.9096 73.8255 38.2097 75.1262C44.7099 81.6238 55.2845 81.6238 61.7847 75.1262C63.0848 73.8255 65.1972 73.8255 66.4968 75.1262C67.7969 76.4268 67.7969 78.5425 66.4968 79.8431C61.9471 84.3926 55.9717 86.6646 49.9969 86.6646Z" fill="white"/>
<path d="M49.9997 73.3516C47.4373 73.3516 44.8789 72.3759 42.9291 70.43C41.6245 69.1272 41.6245 67.0178 42.9291 65.715C44.2292 64.4121 46.3414 64.4121 47.6415 65.715C48.9416 67.0122 51.0584 67.0122 52.3579 65.715C53.6579 64.4121 55.7708 64.4121 57.0703 65.715C58.3748 67.0178 58.3748 69.1272 57.0703 70.43C55.1204 72.3759 52.562 73.3516 49.9997 73.3516Z" fill="white"/>
</svg>
