<svg width="104" height="104" viewBox="0 0 104 104" fill="none" xmlns="http://www.w3.org/2000/svg">
<path d="M86.3691 88.9395C84.9502 88.9395 83.812 87.7881 83.812 86.3769V78.565C83.812 77.1539 84.9502 76.0025 86.3691 76.0025C87.7814 76.0025 88.9341 77.1473 88.9341 78.565V86.3769C88.9341 87.7947 87.7814 88.9395 86.3691 88.9395Z" fill="white" stroke="white" stroke-width="2"/>
<path d="M94.1816 88.9395H86.3736C84.9551 88.9395 83.8071 87.7935 83.8071 86.3772C83.8071 84.9597 84.9555 83.8149 86.3736 83.8149H94.1816C95.5997 83.8149 96.748 84.9597 96.748 86.3772C96.748 87.7935 95.6 88.9395 94.1816 88.9395Z" fill="white" stroke="white" stroke-width="2"/>
<path d="M17.6229 28.0068C16.2053 28.0068 15.0649 26.8572 15.0649 25.4444V17.6329C15.0649 16.2201 16.2054 15.0705 17.6229 15.0705C19.0449 15.0705 20.1885 16.2169 20.1885 17.6329V25.4444C20.1885 26.8604 19.0449 28.0068 17.6229 28.0068Z" fill="white" stroke="white" stroke-width="2"/>
<path d="M17.6208 20.1997H9.808C8.39007 20.1997 7.25 19.049 7.25 17.6373C7.25 16.2244 8.39042 15.0748 9.808 15.0748H17.6208C19.0428 15.0748 20.1864 16.2212 20.1864 17.6373C20.1864 19.0522 19.0431 20.1997 17.6208 20.1997Z" fill="white" stroke="white" stroke-width="2"/>
<path d="M19.3592 16.1332C18.4655 15.0391 18.6164 13.4226 19.7208 12.5268C28.7939 5.10019 40.2521 1.01004 51.9994 1.01004C80.1231 1.01004 103.001 23.8851 103.001 52.0061C103.001 65.5577 97.7391 78.3178 88.1988 87.9339L88.1988 87.9339L88.1932 87.9395C87.6948 88.4339 87.0363 88.6904 86.3751 88.6904C85.7302 88.6904 85.0676 88.4435 84.5707 87.9452C83.5654 86.9437 83.5686 85.3259 84.5575 84.3239L84.5596 84.3218C93.1472 75.6701 97.8775 64.1974 97.8775 52.0061C97.8775 26.713 77.2996 6.13497 51.9994 6.13497C41.4384 6.13497 31.1212 9.81236 22.9627 16.4895L22.962 16.4901C21.8691 17.3827 20.2533 17.2303 19.3592 16.1332ZM19.3592 16.1332C19.3594 16.1334 19.3596 16.1336 19.3597 16.1338L20.134 15.5009L19.3585 16.1323C19.3588 16.1326 19.359 16.1329 19.3592 16.1332Z" fill="white" stroke="white" stroke-width="2"/>
<path d="M19.4256 16.0583L19.4279 16.0606C20.4352 17.0612 20.432 18.6809 19.4428 19.683L19.4408 19.685C10.851 28.3372 6.12167 39.8092 6.12167 52.0013C6.12167 77.2943 26.7051 97.8725 52.0022 97.8725C62.5606 97.8725 72.8711 94.1955 81.0374 87.5194C82.1327 86.6107 83.7484 86.788 84.6422 87.8683L84.6423 87.8682L84.6504 87.8783C85.5306 88.9707 85.3839 90.5835 84.2802 91.4805C75.2065 98.9063 63.7471 102.997 52.0022 102.997C23.8808 102.997 1 80.1216 1 52.0013C1 38.4536 6.25627 25.6904 15.8067 16.0743C16.8054 15.0639 18.4252 15.0709 19.4256 16.0583Z" fill="white" stroke="white" stroke-width="2"/>
<mask id="path-7-outside-1_669_8016" maskUnits="userSpaceOnUse" x="20.3101" y="19.6846" width="64" height="64" fill="black">
<rect fill="white" x="20.3101" y="19.6846" width="64" height="64"/>
<path d="M41.3264 69.9626C41.8986 69.9626 42.4788 70.0881 43.0032 70.3456C43.7661 70.7206 44.5687 71.0488 45.3793 71.3261C46.7779 71.8029 47.803 73.0838 47.9937 74.5951L48.3911 77.7862C48.4467 78.228 48.8281 78.5602 49.2731 78.5602H54.7325C55.1775 78.5602 55.551 78.228 55.6066 77.7862L56.012 74.5951C56.1947 73.0838 57.2199 71.8029 58.6185 71.3261C59.437 71.0488 60.2316 70.7206 60.9945 70.3456C62.3216 69.6972 63.9507 69.8807 65.1507 70.8144L67.6856 72.7826C68.0353 73.0567 68.5359 73.025 68.8538 72.7127L72.7158 68.8501C73.0258 68.5331 73.0576 68.0333 72.7874 67.682L70.8166 65.1473C69.8869 63.9482 69.6961 62.3193 70.3477 60.9907C70.7212 60.2334 71.047 59.4325 71.3252 58.6164C71.802 57.2219 73.0893 56.1945 74.5992 56.0069L77.7859 55.6088C78.2309 55.554 78.5646 55.175 78.5646 54.734V49.2655C78.5646 48.8245 78.2309 48.4455 77.7859 48.3906L74.5992 47.9917C73.0893 47.8042 71.802 46.7776 71.3252 45.3831C71.047 44.567 70.7212 43.766 70.3477 43.008C69.6961 41.6802 69.8869 40.0513 70.8166 38.8522L72.7874 36.3174C73.0576 35.9662 73.0258 35.4656 72.7158 35.1493L68.8538 31.2868C68.5359 30.9697 68.0353 30.9427 67.6856 31.2161L65.1507 33.1851C63.9507 34.114 62.3216 34.3055 60.9945 33.6539C60.2316 33.2788 59.437 32.9507 58.6185 32.6733C57.2199 32.1966 56.1947 30.9157 56.012 29.4036L55.6066 26.2124C55.551 25.7714 55.1775 25.4393 54.7325 25.4393H49.2731C48.8281 25.4393 48.4467 25.7714 48.3911 26.2124L47.9937 29.4036C47.803 30.9157 46.7779 32.1966 45.3793 32.6733C44.5687 32.9507 43.7661 33.2788 43.0112 33.6539C41.6761 34.3015 40.055 34.1179 38.8551 33.1851L36.32 31.2161C35.9624 30.9427 35.4619 30.9697 35.1519 31.2868L31.2819 35.1493C30.972 35.4656 30.9402 35.9662 31.2183 36.3174L33.1811 38.8522C34.1188 40.0513 34.3016 41.6802 33.65 43.008C33.2844 43.766 32.9507 44.567 32.6726 45.3831C32.1958 46.7776 30.9163 47.8042 29.4064 47.9917L26.2119 48.3906C25.7669 48.4455 25.4411 48.8245 25.4411 49.2655V54.734C25.4411 55.175 25.7669 55.554 26.2119 55.6088L29.4064 56.0069C30.9163 56.1945 32.1958 57.2219 32.6726 58.6164C32.9507 59.4325 33.2844 60.2334 33.65 60.9907C34.3016 62.3193 34.1188 63.9482 33.1811 65.1473L31.2183 67.682C30.9402 68.0333 30.972 68.5331 31.2819 68.8501L35.1519 72.7127C35.4619 73.0289 35.9624 73.0607 36.32 72.7826L38.8551 70.8144C39.5782 70.2518 40.4523 69.9626 41.3264 69.9626ZM54.7325 81.6846H49.2731C47.2467 81.6846 45.5382 80.1772 45.2919 78.1732L44.8945 74.9821C44.8548 74.6539 44.6482 74.3766 44.3701 74.2828C43.4324 73.9626 42.5105 73.5836 41.6364 73.1505C41.3742 73.025 41.0324 73.0758 40.7702 73.2792L38.2352 75.2515C36.6459 76.4894 34.3652 76.3488 32.9427 74.9233L29.0727 71.0567C27.6503 69.6312 27.5072 67.3579 28.7469 65.7639L30.7176 63.2291C30.9242 62.9677 30.972 62.6236 30.8448 62.3662C30.4157 61.4873 30.0342 60.5656 29.7164 59.6279C29.621 59.3586 29.3429 59.1472 29.0091 59.1083L25.8225 58.7102C23.8279 58.4599 22.3101 56.7491 22.3101 54.734V49.2655C22.3101 47.2504 23.8279 45.5388 25.8225 45.2893L29.0171 44.8912C29.3429 44.8515 29.621 44.6409 29.7164 44.3715C30.0342 43.4339 30.4157 42.5121 30.8448 41.6333C30.972 41.3759 30.9242 41.0318 30.7176 40.7704L28.7469 38.2348C27.5072 36.6416 27.6503 34.3683 29.0727 32.9427L32.9427 29.0762C34.3652 27.6538 36.638 27.5092 38.2352 28.748L40.7702 30.7202C41.0324 30.9228 41.3742 30.9777 41.6364 30.845C42.5105 30.4151 43.4324 30.0369 44.3701 29.7166C44.6482 29.6229 44.8548 29.3456 44.8945 29.0174L45.2919 25.8262C45.5382 23.8223 47.2467 22.3149 49.2731 22.3149H54.7325C56.751 22.3149 58.4596 23.8223 58.7138 25.8262L59.1112 29.0174C59.1509 29.3456 59.3575 29.6229 59.6277 29.7166C60.5654 30.0369 61.4872 30.4151 62.3693 30.8489C62.6316 30.9737 62.9653 30.9228 63.2275 30.7202L65.7625 28.748C67.3518 27.5092 69.6326 27.6499 71.055 29.0762L74.9251 32.9427C76.3555 34.3683 76.4905 36.6416 75.2509 38.2348L73.2801 40.7704C73.0814 41.0318 73.0258 41.3759 73.1529 41.6333C73.59 42.5121 73.9635 43.4339 74.2813 44.3715C74.3767 44.6409 74.6628 44.8515 74.9886 44.8912L78.1752 45.2893C80.1778 45.5388 81.6877 47.2504 81.6877 49.2655V54.734C81.6877 56.7491 80.1778 58.4599 78.1752 58.7102L74.9806 59.1083C74.6628 59.1472 74.3767 59.3586 74.2813 59.6279C73.9635 60.5656 73.59 61.4873 73.1529 62.3662C73.0258 62.6236 73.0814 62.9677 73.2801 63.2291L75.2509 65.7639C76.4905 67.3579 76.3555 69.6312 74.9251 71.0567L71.055 74.9233C69.6326 76.3488 67.3598 76.4894 65.7625 75.2515L63.2275 73.2792C62.9653 73.0758 62.6236 73.021 62.3693 73.1537C61.4872 73.5836 60.5654 73.9626 59.6277 74.2828C59.3575 74.3766 59.1509 74.6539 59.1112 74.9821L58.7138 78.1732C58.4596 80.1772 56.751 81.6846 54.7325 81.6846Z"/>
</mask>
<path d="M41.3264 69.9626C41.8986 69.9626 42.4788 70.0881 43.0032 70.3456C43.7661 70.7206 44.5687 71.0488 45.3793 71.3261C46.7779 71.8029 47.803 73.0838 47.9937 74.5951L48.3911 77.7862C48.4467 78.228 48.8281 78.5602 49.2731 78.5602H54.7325C55.1775 78.5602 55.551 78.228 55.6066 77.7862L56.012 74.5951C56.1947 73.0838 57.2199 71.8029 58.6185 71.3261C59.437 71.0488 60.2316 70.7206 60.9945 70.3456C62.3216 69.6972 63.9507 69.8807 65.1507 70.8144L67.6856 72.7826C68.0353 73.0567 68.5359 73.025 68.8538 72.7127L72.7158 68.8501C73.0258 68.5331 73.0576 68.0333 72.7874 67.682L70.8166 65.1473C69.8869 63.9482 69.6961 62.3193 70.3477 60.9907C70.7212 60.2334 71.047 59.4325 71.3252 58.6164C71.802 57.2219 73.0893 56.1945 74.5992 56.0069L77.7859 55.6088C78.2309 55.554 78.5646 55.175 78.5646 54.734V49.2655C78.5646 48.8245 78.2309 48.4455 77.7859 48.3906L74.5992 47.9917C73.0893 47.8042 71.802 46.7776 71.3252 45.3831C71.047 44.567 70.7212 43.766 70.3477 43.008C69.6961 41.6802 69.8869 40.0513 70.8166 38.8522L72.7874 36.3174C73.0576 35.9662 73.0258 35.4656 72.7158 35.1493L68.8538 31.2868C68.5359 30.9697 68.0353 30.9427 67.6856 31.2161L65.1507 33.1851C63.9507 34.114 62.3216 34.3055 60.9945 33.6539C60.2316 33.2788 59.437 32.9507 58.6185 32.6733C57.2199 32.1966 56.1947 30.9157 56.012 29.4036L55.6066 26.2124C55.551 25.7714 55.1775 25.4393 54.7325 25.4393H49.2731C48.8281 25.4393 48.4467 25.7714 48.3911 26.2124L47.9937 29.4036C47.803 30.9157 46.7779 32.1966 45.3793 32.6733C44.5687 32.9507 43.7661 33.2788 43.0112 33.6539C41.6761 34.3015 40.055 34.1179 38.8551 33.1851L36.32 31.2161C35.9624 30.9427 35.4619 30.9697 35.1519 31.2868L31.2819 35.1493C30.972 35.4656 30.9402 35.9662 31.2183 36.3174L33.1811 38.8522C34.1188 40.0513 34.3016 41.6802 33.65 43.008C33.2844 43.766 32.9507 44.567 32.6726 45.3831C32.1958 46.7776 30.9163 47.8042 29.4064 47.9917L26.2119 48.3906C25.7669 48.4455 25.4411 48.8245 25.4411 49.2655V54.734C25.4411 55.175 25.7669 55.554 26.2119 55.6088L29.4064 56.0069C30.9163 56.1945 32.1958 57.2219 32.6726 58.6164C32.9507 59.4325 33.2844 60.2334 33.65 60.9907C34.3016 62.3193 34.1188 63.9482 33.1811 65.1473L31.2183 67.682C30.9402 68.0333 30.972 68.5331 31.2819 68.8501L35.1519 72.7127C35.4619 73.0289 35.9624 73.0607 36.32 72.7826L38.8551 70.8144C39.5782 70.2518 40.4523 69.9626 41.3264 69.9626ZM54.7325 81.6846H49.2731C47.2467 81.6846 45.5382 80.1772 45.2919 78.1732L44.8945 74.9821C44.8548 74.6539 44.6482 74.3766 44.3701 74.2828C43.4324 73.9626 42.5105 73.5836 41.6364 73.1505C41.3742 73.025 41.0324 73.0758 40.7702 73.2792L38.2352 75.2515C36.6459 76.4894 34.3652 76.3488 32.9427 74.9233L29.0727 71.0567C27.6503 69.6312 27.5072 67.3579 28.7469 65.7639L30.7176 63.2291C30.9242 62.9677 30.972 62.6236 30.8448 62.3662C30.4157 61.4873 30.0342 60.5656 29.7164 59.6279C29.621 59.3586 29.3429 59.1472 29.0091 59.1083L25.8225 58.7102C23.8279 58.4599 22.3101 56.7491 22.3101 54.734V49.2655C22.3101 47.2504 23.8279 45.5388 25.8225 45.2893L29.0171 44.8912C29.3429 44.8515 29.621 44.6409 29.7164 44.3715C30.0342 43.4339 30.4157 42.5121 30.8448 41.6333C30.972 41.3759 30.9242 41.0318 30.7176 40.7704L28.7469 38.2348C27.5072 36.6416 27.6503 34.3683 29.0727 32.9427L32.9427 29.0762C34.3652 27.6538 36.638 27.5092 38.2352 28.748L40.7702 30.7202C41.0324 30.9228 41.3742 30.9777 41.6364 30.845C42.5105 30.4151 43.4324 30.0369 44.3701 29.7166C44.6482 29.6229 44.8548 29.3456 44.8945 29.0174L45.2919 25.8262C45.5382 23.8223 47.2467 22.3149 49.2731 22.3149H54.7325C56.751 22.3149 58.4596 23.8223 58.7138 25.8262L59.1112 29.0174C59.1509 29.3456 59.3575 29.6229 59.6277 29.7166C60.5654 30.0369 61.4872 30.4151 62.3693 30.8489C62.6316 30.9737 62.9653 30.9228 63.2275 30.7202L65.7625 28.748C67.3518 27.5092 69.6326 27.6499 71.055 29.0762L74.9251 32.9427C76.3555 34.3683 76.4905 36.6416 75.2509 38.2348L73.2801 40.7704C73.0814 41.0318 73.0258 41.3759 73.1529 41.6333C73.59 42.5121 73.9635 43.4339 74.2813 44.3715C74.3767 44.6409 74.6628 44.8515 74.9886 44.8912L78.1752 45.2893C80.1778 45.5388 81.6877 47.2504 81.6877 49.2655V54.734C81.6877 56.7491 80.1778 58.4599 78.1752 58.7102L74.9806 59.1083C74.6628 59.1472 74.3767 59.3586 74.2813 59.6279C73.9635 60.5656 73.59 61.4873 73.1529 62.3662C73.0258 62.6236 73.0814 62.9677 73.2801 63.2291L75.2509 65.7639C76.4905 67.3579 76.3555 69.6312 74.9251 71.0567L71.055 74.9233C69.6326 76.3488 67.3598 76.4894 65.7625 75.2515L63.2275 73.2792C62.9653 73.0758 62.6236 73.021 62.3693 73.1537C61.4872 73.5836 60.5654 73.9626 59.6277 74.2828C59.3575 74.3766 59.1509 74.6539 59.1112 74.9821L58.7138 78.1732C58.4596 80.1772 56.751 81.6846 54.7325 81.6846Z" fill="white"/>
<path d="M41.3264 69.9626C41.8986 69.9626 42.4788 70.0881 43.0032 70.3456C43.7661 70.7206 44.5687 71.0488 45.3793 71.3261C46.7779 71.8029 47.803 73.0838 47.9937 74.5951L48.3911 77.7862C48.4467 78.228 48.8281 78.5602 49.2731 78.5602H54.7325C55.1775 78.5602 55.551 78.228 55.6066 77.7862L56.012 74.5951C56.1947 73.0838 57.2199 71.8029 58.6185 71.3261C59.437 71.0488 60.2316 70.7206 60.9945 70.3456C62.3216 69.6972 63.9507 69.8807 65.1507 70.8144L67.6856 72.7826C68.0353 73.0567 68.5359 73.025 68.8538 72.7127L72.7158 68.8501C73.0258 68.5331 73.0576 68.0333 72.7874 67.682L70.8166 65.1473C69.8869 63.9482 69.6961 62.3193 70.3477 60.9907C70.7212 60.2334 71.047 59.4325 71.3252 58.6164C71.802 57.2219 73.0893 56.1945 74.5992 56.0069L77.7859 55.6088C78.2309 55.554 78.5646 55.175 78.5646 54.734V49.2655C78.5646 48.8245 78.2309 48.4455 77.7859 48.3906L74.5992 47.9917C73.0893 47.8042 71.802 46.7776 71.3252 45.3831C71.047 44.567 70.7212 43.766 70.3477 43.008C69.6961 41.6802 69.8869 40.0513 70.8166 38.8522L72.7874 36.3174C73.0576 35.9662 73.0258 35.4656 72.7158 35.1493L68.8538 31.2868C68.5359 30.9697 68.0353 30.9427 67.6856 31.2161L65.1507 33.1851C63.9507 34.114 62.3216 34.3055 60.9945 33.6539C60.2316 33.2788 59.437 32.9507 58.6185 32.6733C57.2199 32.1966 56.1947 30.9157 56.012 29.4036L55.6066 26.2124C55.551 25.7714 55.1775 25.4393 54.7325 25.4393H49.2731C48.8281 25.4393 48.4467 25.7714 48.3911 26.2124L47.9937 29.4036C47.803 30.9157 46.7779 32.1966 45.3793 32.6733C44.5687 32.9507 43.7661 33.2788 43.0112 33.6539C41.6761 34.3015 40.055 34.1179 38.8551 33.1851L36.32 31.2161C35.9624 30.9427 35.4619 30.9697 35.1519 31.2868L31.2819 35.1493C30.972 35.4656 30.9402 35.9662 31.2183 36.3174L33.1811 38.8522C34.1188 40.0513 34.3016 41.6802 33.65 43.008C33.2844 43.766 32.9507 44.567 32.6726 45.3831C32.1958 46.7776 30.9163 47.8042 29.4064 47.9917L26.2119 48.3906C25.7669 48.4455 25.4411 48.8245 25.4411 49.2655V54.734C25.4411 55.175 25.7669 55.554 26.2119 55.6088L29.4064 56.0069C30.9163 56.1945 32.1958 57.2219 32.6726 58.6164C32.9507 59.4325 33.2844 60.2334 33.65 60.9907C34.3016 62.3193 34.1188 63.9482 33.1811 65.1473L31.2183 67.682C30.9402 68.0333 30.972 68.5331 31.2819 68.8501L35.1519 72.7127C35.4619 73.0289 35.9624 73.0607 36.32 72.7826L38.8551 70.8144C39.5782 70.2518 40.4523 69.9626 41.3264 69.9626ZM54.7325 81.6846H49.2731C47.2467 81.6846 45.5382 80.1772 45.2919 78.1732L44.8945 74.9821C44.8548 74.6539 44.6482 74.3766 44.3701 74.2828C43.4324 73.9626 42.5105 73.5836 41.6364 73.1505C41.3742 73.025 41.0324 73.0758 40.7702 73.2792L38.2352 75.2515C36.6459 76.4894 34.3652 76.3488 32.9427 74.9233L29.0727 71.0567C27.6503 69.6312 27.5072 67.3579 28.7469 65.7639L30.7176 63.2291C30.9242 62.9677 30.972 62.6236 30.8448 62.3662C30.4157 61.4873 30.0342 60.5656 29.7164 59.6279C29.621 59.3586 29.3429 59.1472 29.0091 59.1083L25.8225 58.7102C23.8279 58.4599 22.3101 56.7491 22.3101 54.734V49.2655C22.3101 47.2504 23.8279 45.5388 25.8225 45.2893L29.0171 44.8912C29.3429 44.8515 29.621 44.6409 29.7164 44.3715C30.0342 43.4339 30.4157 42.5121 30.8448 41.6333C30.972 41.3759 30.9242 41.0318 30.7176 40.7704L28.7469 38.2348C27.5072 36.6416 27.6503 34.3683 29.0727 32.9427L32.9427 29.0762C34.3652 27.6538 36.638 27.5092 38.2352 28.748L40.7702 30.7202C41.0324 30.9228 41.3742 30.9777 41.6364 30.845C42.5105 30.4151 43.4324 30.0369 44.3701 29.7166C44.6482 29.6229 44.8548 29.3456 44.8945 29.0174L45.2919 25.8262C45.5382 23.8223 47.2467 22.3149 49.2731 22.3149H54.7325C56.751 22.3149 58.4596 23.8223 58.7138 25.8262L59.1112 29.0174C59.1509 29.3456 59.3575 29.6229 59.6277 29.7166C60.5654 30.0369 61.4872 30.4151 62.3693 30.8489C62.6316 30.9737 62.9653 30.9228 63.2275 30.7202L65.7625 28.748C67.3518 27.5092 69.6326 27.6499 71.055 29.0762L74.9251 32.9427C76.3555 34.3683 76.4905 36.6416 75.2509 38.2348L73.2801 40.7704C73.0814 41.0318 73.0258 41.3759 73.1529 41.6333C73.59 42.5121 73.9635 43.4339 74.2813 44.3715C74.3767 44.6409 74.6628 44.8515 74.9886 44.8912L78.1752 45.2893C80.1778 45.5388 81.6877 47.2504 81.6877 49.2655V54.734C81.6877 56.7491 80.1778 58.4599 78.1752 58.7102L74.9806 59.1083C74.6628 59.1472 74.3767 59.3586 74.2813 59.6279C73.9635 60.5656 73.59 61.4873 73.1529 62.3662C73.0258 62.6236 73.0814 62.9677 73.2801 63.2291L75.2509 65.7639C76.4905 67.3579 76.3555 69.6312 74.9251 71.0567L71.055 74.9233C69.6326 76.3488 67.3598 76.4894 65.7625 75.2515L63.2275 73.2792C62.9653 73.0758 62.6236 73.021 62.3693 73.1537C61.4872 73.5836 60.5654 73.9626 59.6277 74.2828C59.3575 74.3766 59.1509 74.6539 59.1112 74.9821L58.7138 78.1732C58.4596 80.1772 56.751 81.6846 54.7325 81.6846Z" stroke="white" stroke-width="4" mask="url(#path-7-outside-1_669_8016)"/>
<path d="M51.9952 42.2623C46.6291 42.2623 42.2569 46.6344 42.2569 52.0036C42.2569 57.3728 46.6291 61.745 51.9952 61.745C57.3696 61.745 61.7413 57.3723 61.7413 52.0036C61.7413 46.6349 57.3696 42.2623 51.9952 42.2623ZM51.9952 66.8696C43.8052 66.8696 37.1328 60.2 37.1328 52.0036C37.1328 43.8081 43.8052 37.1376 51.9952 37.1376C60.1927 37.1376 66.8655 43.8077 66.8655 52.0036C66.8655 60.2004 60.1927 66.8696 51.9952 66.8696Z" fill="white" stroke="white" stroke-width="2"/>
</svg>
