<svg width="31" height="32" viewBox="0 0 31 32" fill="none" xmlns="http://www.w3.org/2000/svg">
<path d="M23.321 21.8577C22.6167 21.7367 21.9519 22.2208 21.8343 22.9346C21.7168 23.6489 22.1921 24.3244 22.8957 24.4432C26.654 25.0797 28.0653 25.9819 28.3745 26.3541C27.7553 27.154 23.5492 28.8299 15.5 28.8299C7.45206 28.8299 3.24596 27.1549 2.62553 26.3545C2.92089 26.002 4.22633 25.1544 7.66303 24.5214C8.36483 24.3916 8.8307 23.7092 8.70282 22.9971C8.57538 22.285 7.90285 21.8145 7.20147 21.9416C2.42274 22.8228 0 24.306 0 26.351C0 30.3769 9.74261 31.4512 15.5 31.4512C21.257 31.4512 31 30.3769 31 26.351C31 24.2326 28.4162 22.721 23.321 21.8577Z" fill="white"/>
<path d="M15.6426 6.82743C17.3786 6.82743 18.7908 8.2604 18.7908 10.0219C18.7908 11.7838 17.3786 13.2168 15.6426 13.2168C13.9066 13.2168 12.4944 11.7838 12.4944 10.0219C12.4944 8.2604 13.9066 6.82743 15.6426 6.82743ZM14.4728 25.9645C14.5154 26.0436 14.5623 26.1192 14.6174 26.1851C14.846 26.4582 15.2086 26.6465 15.6064 26.6465C15.6198 26.6465 15.6331 26.6465 15.6465 26.646C16.0507 26.6478 16.4339 26.4639 16.6686 26.183C16.7233 26.1174 16.7698 26.0432 16.812 25.9645C18.1781 24.6517 23.7796 19.0889 25.0377 14.9879C25.5191 13.4186 25.8145 12.3623 25.8145 10.4977C25.8145 4.709 21.2514 -0.00056076 15.6426 -0.00056076C10.0342 -0.00056076 5.4707 4.709 5.4707 10.4977C5.4707 12.3513 5.76348 13.4029 6.24054 14.9652C7.49733 19.0806 13.1049 24.6499 14.4728 25.9645Z" fill="white"/>
</svg>
