<svg width="100" height="100" viewBox="0 0 100 100" fill="none" xmlns="http://www.w3.org/2000/svg">
<path d="M91.666 48.3333C90.7432 48.3333 90.0036 49.0789 90.0036 50.0002C90.0036 50.9208 90.7432 51.6663 91.666 51.6663C92.5887 51.6663 93.3357 50.9208 93.3357 50.0002C93.3357 49.0789 92.5887 48.3333 91.666 48.3333ZM91.666 58.333C87.0742 58.333 83.332 54.5957 83.332 50.0002C83.332 45.4039 87.0742 41.6666 91.666 41.6666C96.265 41.6666 99.9999 45.4039 99.9999 50.0002C99.9999 54.5957 96.265 58.333 91.666 58.333Z" fill="white"/>
<path d="M86.6625 53.334H76.6629C74.8183 53.334 73.3296 51.8423 73.3296 50.0013C73.3296 48.1589 74.8183 46.668 76.6629 46.668H86.6625C88.507 46.668 89.9958 48.1589 89.9958 50.0013C89.9958 51.8423 88.507 53.334 86.6625 53.334Z" fill="white"/>
<path d="M86.6656 24.9999C85.7468 24.9999 85.0029 25.746 85.0029 26.6664C85.0029 27.5875 85.7468 28.3335 86.6656 28.3335C87.5918 28.3335 88.3356 27.5875 88.3356 26.6664C88.3356 25.746 87.5918 24.9999 86.6656 24.9999ZM86.6656 35C82.0713 35 78.3374 31.2624 78.3374 26.6664C78.3374 22.0703 82.0713 18.3334 86.6656 18.3334C91.2673 18.3334 95.0011 22.0703 95.0011 26.6664C95.0011 31.2624 91.2673 35 86.6656 35Z" fill="white"/>
<path d="M86.6625 41.668H76.6629C74.8183 41.668 73.3296 40.1763 73.3296 38.3346C73.3296 36.4929 74.8183 35.0012 76.6629 35.0012H83.3293V31.6679C83.3293 29.8262 84.818 28.3345 86.6625 28.3345C88.507 28.3345 89.9958 29.8262 89.9958 31.6679V38.3346C89.9958 40.1763 88.507 41.668 86.6625 41.668Z" fill="white"/>
<path d="M86.6656 71.6664C85.7468 71.6664 85.0029 72.4118 85.0029 73.3329C85.0029 74.254 85.7468 74.9993 86.6656 74.9993C87.5918 74.9993 88.3356 74.254 88.3356 73.3329C88.3356 72.4118 87.5918 71.6664 86.6656 71.6664ZM86.6656 81.6665C82.0713 81.6665 78.3374 77.9289 78.3374 73.3329C78.3374 68.7368 82.0713 64.9999 86.6656 64.9999C91.2673 64.9999 95.0011 68.7368 95.0011 73.3329C95.0011 77.9289 91.2673 81.6665 86.6656 81.6665Z" fill="white"/>
<path d="M86.6625 71.6675C84.818 71.6675 83.3293 70.1758 83.3293 68.3341V65.0007H76.6629C74.8183 65.0007 73.3296 63.5091 73.3296 61.6674C73.3296 59.8257 74.8183 58.334 76.6629 58.334H86.6625C88.507 58.334 89.9958 59.8257 89.9958 61.6674V68.3341C89.9958 70.1758 88.507 71.6675 86.6625 71.6675Z" fill="white"/>
<path d="M50.0017 6.66648C49.0829 6.66648 48.3338 7.41287 48.3338 8.33312C48.3338 9.25408 49.0829 10.0004 50.0017 10.0004C50.9205 10.0004 51.6698 9.25408 51.6698 8.33312C51.6698 7.41287 50.9205 6.66648 50.0017 6.66648ZM50.0017 16.667C45.4077 16.667 41.6689 12.9294 41.6689 8.33312C41.6689 3.73751 45.4077 -3.11029e-05 50.0017 -3.11029e-05C54.5957 -3.11029e-05 58.3346 3.73751 58.3346 8.33312C58.3346 12.9294 54.5957 16.667 50.0017 16.667Z" fill="white"/>
<path d="M50.0009 26.6665C48.1642 26.6665 46.6724 25.1746 46.6724 23.3336V13.3336C46.6724 11.4912 48.1642 10 50.0009 10C51.8446 10 53.3365 11.4912 53.3365 13.3336V23.3336C53.3365 25.1746 51.8446 26.6665 50.0009 26.6665Z" fill="white"/>
<path d="M26.6692 11.6678C25.7483 11.6678 25.0004 12.4136 25.0004 13.3347C25.0004 14.2557 25.7483 15.0014 26.6692 15.0014C27.5902 15.0014 28.3311 14.2557 28.3311 13.3347C28.3311 12.4136 27.5902 11.6678 26.6692 11.6678ZM26.6692 21.668C22.0713 21.668 18.332 17.9307 18.332 13.3347C18.332 8.73865 22.0713 5.0013 26.6692 5.0013C31.2602 5.0013 34.9994 8.73865 34.9994 13.3347C34.9994 17.9307 31.2602 21.668 26.6692 21.668Z" fill="white"/>
<path d="M38.3324 26.6665C36.4935 26.6665 35.0029 25.1752 35.0029 23.3334V16.6665H31.6665C29.8276 16.6665 28.3369 15.1752 28.3369 13.3334C28.3369 11.4917 29.8276 10.0003 31.6665 10.0003H38.3324C40.1782 10.0003 41.6688 11.4917 41.6688 13.3334V23.3334C41.6688 25.1752 40.1782 26.6665 38.3324 26.6665Z" fill="white"/>
<path d="M73.3275 11.6681C72.4118 11.6681 71.6618 12.4137 71.6618 13.3346C71.6618 14.2554 72.4118 15.0018 73.3275 15.0018C74.2505 15.0018 75.0004 14.2554 75.0004 13.3346C75.0004 12.4137 74.2505 11.6681 73.3275 11.6681ZM73.3275 21.6685C68.7342 21.6685 64.999 17.931 64.999 13.3346C64.999 8.73895 68.7342 5.00143 73.3275 5.00143C77.928 5.00143 81.6632 8.73895 81.6632 13.3346C81.6632 17.931 77.928 21.6685 73.3275 21.6685Z" fill="white"/>
<path d="M61.6642 26.667C59.8267 26.667 58.3325 25.1755 58.3325 23.3338V13.3341C58.3325 11.4923 59.8267 10.0009 61.6642 10.0009H68.3347C70.1721 10.0009 71.6663 11.4923 71.6663 13.3341C71.6663 15.1759 70.1721 16.6673 68.3347 16.6673H65.003V23.3338C65.003 25.1755 63.5087 26.667 61.6642 26.667Z" fill="white"/>
<path d="M8.33803 48.3334C7.4184 48.3334 6.66907 49.0794 6.66907 50.0004C6.66907 50.9208 7.4184 51.6667 8.33803 51.6667C9.25767 51.6667 10.0001 50.9208 10.0001 50.0004C10.0001 49.0794 9.25767 48.3334 8.33803 48.3334ZM8.33803 58.334C3.73987 58.334 0 54.596 0 50.0004C0 45.4048 3.73987 41.6668 8.33803 41.6668C12.9294 41.6668 16.6692 45.4048 16.6692 50.0004C16.6692 54.596 12.9294 58.334 8.33803 58.334Z" fill="white"/>
<path d="M23.333 53.3345H13.3321C11.4901 53.3345 9.99854 51.8429 9.99854 50.0014C9.99854 48.1593 11.4901 46.6677 13.3321 46.6677H23.333C25.1751 46.6677 26.6666 48.1593 26.6666 50.0014C26.6666 51.8429 25.1751 53.3345 23.333 53.3345Z" fill="white"/>
<path d="M13.3335 71.6673C12.4166 71.6673 11.6707 72.4131 11.6707 73.3335C11.6707 74.2546 12.4166 75.0005 13.3335 75.0005C14.2573 75.0005 15.0031 74.2546 15.0031 73.3335C15.0031 72.4131 14.2573 71.6673 13.3335 71.6673ZM13.3335 81.667C8.742 81.667 4.99902 77.9293 4.99902 73.3335C4.99902 68.7378 8.742 65.0001 13.3335 65.0001C17.9318 65.0001 21.668 68.7378 21.668 73.3335C21.668 77.9293 17.9318 81.667 13.3335 81.667Z" fill="white"/>
<path d="M13.3321 71.668C11.4901 71.668 9.99854 70.1757 9.99854 68.3342V61.6674C9.99854 59.826 11.4901 58.3344 13.3321 58.3344H23.333C25.1751 58.3344 26.6666 59.826 26.6666 61.6674C26.6666 63.5096 25.1751 65.0012 23.333 65.0012H16.6658V68.3342C16.6658 70.1757 15.1742 71.668 13.3321 71.668Z" fill="white"/>
<path d="M13.3335 25.0008C12.4166 25.0008 11.6707 25.7467 11.6707 26.6677C11.6707 27.5881 12.4166 28.334 13.3335 28.334C14.2573 28.334 15.0031 27.5881 15.0031 26.6677C15.0031 25.7467 14.2573 25.0008 13.3335 25.0008ZM13.3335 35.0005C8.742 35.0005 4.99902 31.2635 4.99902 26.6677C4.99902 22.0713 8.742 18.3343 13.3335 18.3343C17.9318 18.3343 21.668 22.0713 21.668 26.6677C21.668 31.2635 17.9318 35.0005 13.3335 35.0005Z" fill="white"/>
<path d="M23.333 41.6675H13.3321C11.4901 41.6675 9.99854 40.1759 9.99854 38.3344V31.6676C9.99854 29.8255 11.4901 28.3339 13.3321 28.3339C15.1742 28.3339 16.6658 29.8255 16.6658 31.6676V35.0007H23.333C25.1751 35.0007 26.6666 36.4923 26.6666 38.3344C26.6666 40.1759 25.1751 41.6675 23.333 41.6675Z" fill="white"/>
<path d="M50.0017 90.0002C49.0829 90.0002 48.3338 90.7459 48.3338 91.6669C48.3338 92.5871 49.0829 93.3335 50.0017 93.3335C50.9205 93.3335 51.6698 92.5871 51.6698 91.6669C51.6698 90.7459 50.9205 90.0002 50.0017 90.0002ZM50.0017 100C45.4077 100 41.6689 96.2625 41.6689 91.6669C41.6689 87.0705 45.4077 83.3337 50.0017 83.3337C54.5957 83.3337 58.3346 87.0705 58.3346 91.6669C58.3346 96.2625 54.5957 100 50.0017 100Z" fill="white"/>
<path d="M50.0009 90C48.1642 90 46.6724 88.5081 46.6724 86.6664V76.6664C46.6724 74.8247 48.1642 73.3328 50.0009 73.3328C51.8446 73.3328 53.3365 74.8247 53.3365 76.6664V86.6664C53.3365 88.5081 51.8446 90 50.0009 90Z" fill="white"/>
<path d="M73.3275 85.0013C72.4118 85.0013 71.6618 85.747 71.6618 86.6678C71.6618 87.5887 72.4118 88.3343 73.3275 88.3343C74.2505 88.3343 75.0004 87.5887 75.0004 86.6678C75.0004 85.747 74.2505 85.0013 73.3275 85.0013ZM73.3275 95.001C68.7342 95.001 64.999 91.2635 64.999 86.6678C64.999 82.0722 68.7342 78.3347 73.3275 78.3347C77.928 78.3347 81.6632 82.0722 81.6632 86.6678C81.6632 91.2635 77.928 95.001 73.3275 95.001Z" fill="white"/>
<path d="M68.3347 90.0005H61.6642C59.8267 90.0005 58.3325 88.5091 58.3325 86.6673V76.6669C58.3325 74.8251 59.8267 73.3336 61.6642 73.3336C63.5087 73.3336 65.003 74.8251 65.003 76.6669V83.334H68.3347C70.1721 83.334 71.6663 84.8255 71.6663 86.6673C71.6663 88.5091 70.1721 90.0005 68.3347 90.0005Z" fill="white"/>
<path d="M26.6692 85.0008C25.7483 85.0008 25.0004 85.7466 25.0004 86.6676C25.0004 87.588 25.7483 88.3345 26.6692 88.3345C27.5902 88.3345 28.3311 87.588 28.3311 86.6676C28.3311 85.7466 27.5902 85.0008 26.6692 85.0008ZM26.6692 95.001C22.0713 95.001 18.332 91.2636 18.332 86.6676C18.332 82.0716 22.0713 78.3343 26.6692 78.3343C31.2602 78.3343 34.9994 82.0716 34.9994 86.6676C34.9994 91.2636 31.2602 95.001 26.6692 95.001Z" fill="white"/>
<path d="M38.3324 90.0005H31.6665C29.8276 90.0005 28.3369 88.5084 28.3369 86.6667C28.3369 84.8249 29.8276 83.3336 31.6665 83.3336H35.0029V76.6667C35.0029 74.8249 36.4935 73.3336 38.3324 73.3336C40.1782 73.3336 41.6688 74.8249 41.6688 76.6667V86.6667C41.6688 88.5084 40.1782 90.0005 38.3324 90.0005Z" fill="white"/>
<path d="M31.8422 68.1579H68.1558V31.8423H38.654L31.8422 38.6538V68.1579ZM70.5769 73H29.4211C28.0832 73 27 71.9134 27 70.579V37.6521C27 37.0103 27.2547 36.3958 27.7063 35.9408L35.9374 27.7099C36.3925 27.2549 37.0105 27.0002 37.6523 27.0002H70.5769C71.9148 27.0002 72.998 28.0834 72.998 29.4213V70.579C72.998 71.9134 71.9148 73 70.5769 73Z" fill="white"/>
<path d="M62.7751 51.6353H37.785C36.7992 51.6353 36 50.903 36 49.999C36 49.095 36.7992 48.3627 37.785 48.3627H62.7751C63.7609 48.3627 64.5601 49.095 64.5601 49.999C64.5601 50.903 63.7609 51.6353 62.7751 51.6353Z" fill="white"/>
<path d="M50.2801 44.2725H37.785C36.7992 44.2725 36 43.5402 36 42.6362C36 41.7322 36.7992 40.9999 37.785 40.9999H50.2801C51.2658 40.9999 52.0651 41.7322 52.0651 42.6362C52.0651 43.5402 51.2658 44.2725 50.2801 44.2725Z" fill="white"/>
<path d="M62.7751 59H37.785C36.7992 59 36 58.2678 36 57.3637C36 56.4597 36.7992 55.7275 37.785 55.7275H62.7751C63.7609 55.7275 64.5601 56.4597 64.5601 57.3637C64.5601 58.2678 63.7609 59 62.7751 59Z" fill="white"/>
</svg>
