<svg width="102" height="103" viewBox="0 0 102 103" fill="none" xmlns="http://www.w3.org/2000/svg">
<mask id="path-1-outside-1_669_8186" maskUnits="userSpaceOnUse" x="11.6675" y="11.3325" width="79" height="79" fill="black">
<rect fill="white" x="11.6675" y="11.3325" width="79" height="79"/>
<path d="M30.996 30.9973H33.736C34.0687 29.8885 34.4308 28.818 34.832 27.7885C33.462 28.7426 32.1801 29.8181 30.996 30.9973ZM34.9788 34.3302H27.3068C26.6707 34.3302 26.0934 33.9682 25.8096 33.3977C25.5356 32.8262 25.6041 32.1471 25.9857 31.6431C29.1074 27.6222 33.1978 24.3724 37.8069 22.243C38.4527 21.9465 39.2356 22.0972 39.7248 22.6217C40.2141 23.1472 40.312 23.9261 39.9695 24.5593C38.6093 27.035 37.4741 29.914 36.5934 33.11C36.3879 33.8312 35.7323 34.3302 34.9788 34.3302ZM44.3437 30.9973H57.6619C55.4602 25.2883 52.7495 22.6638 51.0077 22.6638C49.2561 22.6638 46.5455 25.2883 44.3437 30.9973ZM60.0203 34.3302H41.9853C41.4569 34.3302 40.9481 34.0768 40.6447 33.6472C40.3316 33.2176 40.2337 32.6637 40.4001 32.1559C42.9737 24.1258 46.9368 19.3298 51.0077 19.3298C55.0687 19.3298 59.0319 24.1258 61.6055 32.1559C61.7719 32.6637 61.6839 33.2176 61.3707 33.6472C61.0576 34.0768 60.5585 34.3302 60.0203 34.3302ZM68.2794 30.9973H71.0096C69.8256 29.8181 68.5436 28.7426 67.1834 27.7885C67.5748 28.818 67.9369 29.8885 68.2794 30.9973ZM74.6988 34.3302H67.0268C66.2733 34.3302 65.6177 33.8312 65.4122 33.11C64.5315 29.914 63.3963 27.035 62.0459 24.5593C61.6936 23.9261 61.7915 23.1472 62.2808 22.6217C62.7701 22.0972 63.5431 21.9465 64.1987 22.243C68.8078 24.3724 72.8983 27.6222 76.0199 31.6431C76.4015 32.1471 76.4798 32.8262 76.196 33.3977C75.9122 33.9682 75.3349 34.3302 74.6988 34.3302ZM23.1185 45.9977H31.1624C31.27 44.3019 31.4266 42.6314 31.6321 40.9972H24.4984C23.8819 42.606 23.4317 44.2813 23.1185 45.9977ZM32.7477 49.3317H21.2006C20.7309 49.3317 20.2709 49.1272 19.9578 48.7768C19.6349 48.4226 19.4881 47.9519 19.5468 47.4812C19.8795 44.4183 20.6525 41.4562 21.8268 38.681C22.091 38.0645 22.6978 37.6642 23.3632 37.6642H33.5599C34.0492 37.6642 34.5091 37.8766 34.8223 38.2474C35.1452 38.6183 35.2821 39.1106 35.2038 39.5891C34.7928 42.2019 34.5287 44.9399 34.4112 47.7307C34.3721 48.6271 33.6382 49.3317 32.7477 49.3317ZM41.1927 45.9977H60.8129C60.6955 44.3019 60.4998 42.6314 60.2551 40.9972H41.7505C41.5058 42.6314 41.3199 44.3019 41.1927 45.9977ZM62.5841 49.3317H39.4215C38.9616 49.3317 38.5212 49.1438 38.2081 48.815C37.8949 48.4852 37.7285 48.039 37.7481 47.5849C37.8949 44.6649 38.208 41.7889 38.7071 39.0391C38.8441 38.2435 39.5389 37.6642 40.3413 37.6642H61.6643C62.4667 37.6642 63.1615 38.2435 63.3083 39.0391C63.7976 41.7889 64.1205 44.6649 64.2575 47.5849C64.2771 48.039 64.1107 48.4852 63.7976 48.815C63.4844 49.1438 63.044 49.3317 62.5841 49.3317ZM70.8432 45.9977H78.8871C78.5837 44.2813 78.1238 42.606 77.5171 40.9972H70.3735C70.579 42.6314 70.7356 44.3019 70.8432 45.9977ZM80.805 49.3317H69.2579C68.3674 49.3317 67.6335 48.6271 67.5944 47.7307C67.477 44.9399 67.2128 42.2019 66.8018 39.5891C66.7333 39.1106 66.8702 38.6183 67.1834 38.2474C67.4965 37.8766 67.9663 37.6642 68.4458 37.6642H78.6424C79.3176 37.6642 79.9146 38.0645 80.1788 38.681C81.3531 41.4562 82.1261 44.4183 82.4588 47.4812C82.5176 47.9519 82.3708 48.4226 82.0478 48.7768C81.7347 49.1272 81.2747 49.3317 80.805 49.3317ZM24.4984 60.9981H31.6321C31.4266 59.3649 31.27 57.6945 31.1624 55.9986H23.1185C23.4317 57.7151 23.8819 59.3903 24.4984 60.9981ZM33.5599 64.3321H23.3632C22.6978 64.3321 22.091 63.9319 21.8268 63.3193C20.6525 60.5363 19.8795 57.5731 19.5468 54.5151C19.4881 54.0435 19.6349 53.5728 19.9578 53.2185C20.2709 52.8643 20.7309 52.6647 21.2006 52.6647H32.7477C33.6382 52.6647 34.3721 53.3692 34.4112 54.2607C34.5287 57.0604 34.7928 59.8023 35.2038 62.4073C35.2821 62.8897 35.1452 63.378 34.8223 63.7489C34.5091 64.1198 34.0492 64.3321 33.5599 64.3321ZM41.7505 60.9981H60.2551C60.4998 59.3649 60.6955 57.6945 60.8129 55.9986H41.1927C41.3199 57.6945 41.5058 59.3649 41.7505 60.9981ZM61.6643 64.3321H40.3413C39.5389 64.3321 38.8441 63.7528 38.7071 62.9611C38.208 60.2065 37.8949 57.3315 37.7481 54.4104C37.7285 53.9564 37.8949 53.5102 38.2081 53.1814C38.5212 52.8526 38.9616 52.6647 39.4215 52.6647H62.5841C63.044 52.6647 63.4844 52.8526 63.7976 53.1814C64.1107 53.5102 64.2771 53.9564 64.2575 54.4104C64.1205 57.3315 63.7976 60.2065 63.3083 62.9611C63.1615 63.7528 62.4667 64.3321 61.6643 64.3321ZM70.3735 60.9981H77.5171C78.1238 59.3903 78.5837 57.7151 78.8871 55.9986H70.8432C70.7356 57.6945 70.579 59.3649 70.3735 60.9981ZM78.6424 64.3321H68.4458C67.9663 64.3321 67.4965 64.1198 67.1834 63.7489C66.8702 63.378 66.7235 62.8897 66.8018 62.4073C67.2128 59.8023 67.477 57.0604 67.5944 54.2607C67.6335 53.3692 68.3674 52.6647 69.2579 52.6647H80.805C81.2747 52.6647 81.7347 52.8643 82.0478 53.2185C82.3708 53.5728 82.5176 54.0435 82.4588 54.5151C82.1261 57.5731 81.3531 60.5363 80.1788 63.3193C79.9146 63.9319 79.3079 64.3321 78.6424 64.3321ZM30.996 70.9991C32.1801 72.1783 33.462 73.2527 34.832 74.2117C34.4308 73.1783 34.0687 72.1068 33.736 70.9991H30.996ZM38.5016 79.9031C38.2668 79.9031 38.032 79.8532 37.8069 79.7494C33.1978 77.624 29.1172 74.3781 25.9956 70.3571C25.6041 69.8532 25.5357 69.1692 25.8194 68.5987C26.0934 68.0282 26.6707 67.6651 27.3068 67.6651H34.9885C35.7322 67.6651 36.3879 68.1652 36.5934 68.8903C37.4741 72.0824 38.6093 74.9574 39.9695 77.4371C40.312 78.0653 40.2141 78.8491 39.7248 79.3746C39.4019 79.7201 38.9616 79.9031 38.5016 79.9031ZM68.2794 70.9991C67.9369 72.1068 67.5748 73.1783 67.1834 74.2117C68.5436 73.2527 69.8256 72.1783 71.0096 70.9991H68.2794ZM63.504 79.9031C63.0539 79.9031 62.6037 79.7201 62.2808 79.3746C61.7915 78.8491 61.6936 78.0653 62.0459 77.4371C63.3963 74.9574 64.5315 72.0824 65.4122 68.8903C65.6177 68.1652 66.2734 67.6651 67.0171 67.6651H74.6988C75.3349 67.6651 75.9122 68.0282 76.196 68.5987C76.4798 69.1692 76.4015 69.8532 76.0101 70.3571C72.8884 74.3781 68.8078 77.624 64.1987 79.7494C63.9737 79.8532 63.7388 79.9031 63.504 79.9031ZM44.3437 70.9991C46.5455 76.7071 49.2561 79.3326 51.0077 79.3326C52.7495 79.3326 55.4602 76.7071 57.6619 70.9991H44.3437ZM51.0077 82.6656C46.9368 82.6656 42.9737 77.8696 40.4001 69.8444C40.2337 69.3365 40.3316 68.7817 40.6447 68.353C40.9481 67.9195 41.4569 67.6651 41.9853 67.6651H60.0203C60.5585 67.6651 61.0576 67.9195 61.3707 68.353C61.6839 68.7817 61.7719 69.3365 61.6055 69.8444C59.0319 77.8696 55.0687 82.6656 51.0077 82.6656ZM51.0077 15.9968C31.7006 15.9968 16.0044 31.6969 16.0044 50.9982C16.0044 70.2984 31.7006 85.9995 51.0077 85.9995C70.305 85.9995 86.0013 70.2984 86.0013 50.9982C86.0013 31.6969 70.305 15.9968 51.0077 15.9968ZM51.0077 89.3325C29.8609 89.3325 12.6675 72.1362 12.6675 50.9982C12.6675 29.8602 29.8609 12.6628 51.0077 12.6628C72.1447 12.6628 89.3381 29.8602 89.3381 50.9982C89.3381 72.1362 72.1447 89.3325 51.0077 89.3325Z"/>
</mask>
<path d="M30.996 30.9973H33.736C34.0687 29.8885 34.4308 28.818 34.832 27.7885C33.462 28.7426 32.1801 29.8181 30.996 30.9973ZM34.9788 34.3302H27.3068C26.6707 34.3302 26.0934 33.9682 25.8096 33.3977C25.5356 32.8262 25.6041 32.1471 25.9857 31.6431C29.1074 27.6222 33.1978 24.3724 37.8069 22.243C38.4527 21.9465 39.2356 22.0972 39.7248 22.6217C40.2141 23.1472 40.312 23.9261 39.9695 24.5593C38.6093 27.035 37.4741 29.914 36.5934 33.11C36.3879 33.8312 35.7323 34.3302 34.9788 34.3302ZM44.3437 30.9973H57.6619C55.4602 25.2883 52.7495 22.6638 51.0077 22.6638C49.2561 22.6638 46.5455 25.2883 44.3437 30.9973ZM60.0203 34.3302H41.9853C41.4569 34.3302 40.9481 34.0768 40.6447 33.6472C40.3316 33.2176 40.2337 32.6637 40.4001 32.1559C42.9737 24.1258 46.9368 19.3298 51.0077 19.3298C55.0687 19.3298 59.0319 24.1258 61.6055 32.1559C61.7719 32.6637 61.6839 33.2176 61.3707 33.6472C61.0576 34.0768 60.5585 34.3302 60.0203 34.3302ZM68.2794 30.9973H71.0096C69.8256 29.8181 68.5436 28.7426 67.1834 27.7885C67.5748 28.818 67.9369 29.8885 68.2794 30.9973ZM74.6988 34.3302H67.0268C66.2733 34.3302 65.6177 33.8312 65.4122 33.11C64.5315 29.914 63.3963 27.035 62.0459 24.5593C61.6936 23.9261 61.7915 23.1472 62.2808 22.6217C62.7701 22.0972 63.5431 21.9465 64.1987 22.243C68.8078 24.3724 72.8983 27.6222 76.0199 31.6431C76.4015 32.1471 76.4798 32.8262 76.196 33.3977C75.9122 33.9682 75.3349 34.3302 74.6988 34.3302ZM23.1185 45.9977H31.1624C31.27 44.3019 31.4266 42.6314 31.6321 40.9972H24.4984C23.8819 42.606 23.4317 44.2813 23.1185 45.9977ZM32.7477 49.3317H21.2006C20.7309 49.3317 20.2709 49.1272 19.9578 48.7768C19.6349 48.4226 19.4881 47.9519 19.5468 47.4812C19.8795 44.4183 20.6525 41.4562 21.8268 38.681C22.091 38.0645 22.6978 37.6642 23.3632 37.6642H33.5599C34.0492 37.6642 34.5091 37.8766 34.8223 38.2474C35.1452 38.6183 35.2821 39.1106 35.2038 39.5891C34.7928 42.2019 34.5287 44.9399 34.4112 47.7307C34.3721 48.6271 33.6382 49.3317 32.7477 49.3317ZM41.1927 45.9977H60.8129C60.6955 44.3019 60.4998 42.6314 60.2551 40.9972H41.7505C41.5058 42.6314 41.3199 44.3019 41.1927 45.9977ZM62.5841 49.3317H39.4215C38.9616 49.3317 38.5212 49.1438 38.2081 48.815C37.8949 48.4852 37.7285 48.039 37.7481 47.5849C37.8949 44.6649 38.208 41.7889 38.7071 39.0391C38.8441 38.2435 39.5389 37.6642 40.3413 37.6642H61.6643C62.4667 37.6642 63.1615 38.2435 63.3083 39.0391C63.7976 41.7889 64.1205 44.6649 64.2575 47.5849C64.2771 48.039 64.1107 48.4852 63.7976 48.815C63.4844 49.1438 63.044 49.3317 62.5841 49.3317ZM70.8432 45.9977H78.8871C78.5837 44.2813 78.1238 42.606 77.5171 40.9972H70.3735C70.579 42.6314 70.7356 44.3019 70.8432 45.9977ZM80.805 49.3317H69.2579C68.3674 49.3317 67.6335 48.6271 67.5944 47.7307C67.477 44.9399 67.2128 42.2019 66.8018 39.5891C66.7333 39.1106 66.8702 38.6183 67.1834 38.2474C67.4965 37.8766 67.9663 37.6642 68.4458 37.6642H78.6424C79.3176 37.6642 79.9146 38.0645 80.1788 38.681C81.3531 41.4562 82.1261 44.4183 82.4588 47.4812C82.5176 47.9519 82.3708 48.4226 82.0478 48.7768C81.7347 49.1272 81.2747 49.3317 80.805 49.3317ZM24.4984 60.9981H31.6321C31.4266 59.3649 31.27 57.6945 31.1624 55.9986H23.1185C23.4317 57.7151 23.8819 59.3903 24.4984 60.9981ZM33.5599 64.3321H23.3632C22.6978 64.3321 22.091 63.9319 21.8268 63.3193C20.6525 60.5363 19.8795 57.5731 19.5468 54.5151C19.4881 54.0435 19.6349 53.5728 19.9578 53.2185C20.2709 52.8643 20.7309 52.6647 21.2006 52.6647H32.7477C33.6382 52.6647 34.3721 53.3692 34.4112 54.2607C34.5287 57.0604 34.7928 59.8023 35.2038 62.4073C35.2821 62.8897 35.1452 63.378 34.8223 63.7489C34.5091 64.1198 34.0492 64.3321 33.5599 64.3321ZM41.7505 60.9981H60.2551C60.4998 59.3649 60.6955 57.6945 60.8129 55.9986H41.1927C41.3199 57.6945 41.5058 59.3649 41.7505 60.9981ZM61.6643 64.3321H40.3413C39.5389 64.3321 38.8441 63.7528 38.7071 62.9611C38.208 60.2065 37.8949 57.3315 37.7481 54.4104C37.7285 53.9564 37.8949 53.5102 38.2081 53.1814C38.5212 52.8526 38.9616 52.6647 39.4215 52.6647H62.5841C63.044 52.6647 63.4844 52.8526 63.7976 53.1814C64.1107 53.5102 64.2771 53.9564 64.2575 54.4104C64.1205 57.3315 63.7976 60.2065 63.3083 62.9611C63.1615 63.7528 62.4667 64.3321 61.6643 64.3321ZM70.3735 60.9981H77.5171C78.1238 59.3903 78.5837 57.7151 78.8871 55.9986H70.8432C70.7356 57.6945 70.579 59.3649 70.3735 60.9981ZM78.6424 64.3321H68.4458C67.9663 64.3321 67.4965 64.1198 67.1834 63.7489C66.8702 63.378 66.7235 62.8897 66.8018 62.4073C67.2128 59.8023 67.477 57.0604 67.5944 54.2607C67.6335 53.3692 68.3674 52.6647 69.2579 52.6647H80.805C81.2747 52.6647 81.7347 52.8643 82.0478 53.2185C82.3708 53.5728 82.5176 54.0435 82.4588 54.5151C82.1261 57.5731 81.3531 60.5363 80.1788 63.3193C79.9146 63.9319 79.3079 64.3321 78.6424 64.3321ZM30.996 70.9991C32.1801 72.1783 33.462 73.2527 34.832 74.2117C34.4308 73.1783 34.0687 72.1068 33.736 70.9991H30.996ZM38.5016 79.9031C38.2668 79.9031 38.032 79.8532 37.8069 79.7494C33.1978 77.624 29.1172 74.3781 25.9956 70.3571C25.6041 69.8532 25.5357 69.1692 25.8194 68.5987C26.0934 68.0282 26.6707 67.6651 27.3068 67.6651H34.9885C35.7322 67.6651 36.3879 68.1652 36.5934 68.8903C37.4741 72.0824 38.6093 74.9574 39.9695 77.4371C40.312 78.0653 40.2141 78.8491 39.7248 79.3746C39.4019 79.7201 38.9616 79.9031 38.5016 79.9031ZM68.2794 70.9991C67.9369 72.1068 67.5748 73.1783 67.1834 74.2117C68.5436 73.2527 69.8256 72.1783 71.0096 70.9991H68.2794ZM63.504 79.9031C63.0539 79.9031 62.6037 79.7201 62.2808 79.3746C61.7915 78.8491 61.6936 78.0653 62.0459 77.4371C63.3963 74.9574 64.5315 72.0824 65.4122 68.8903C65.6177 68.1652 66.2734 67.6651 67.0171 67.6651H74.6988C75.3349 67.6651 75.9122 68.0282 76.196 68.5987C76.4798 69.1692 76.4015 69.8532 76.0101 70.3571C72.8884 74.3781 68.8078 77.624 64.1987 79.7494C63.9737 79.8532 63.7388 79.9031 63.504 79.9031ZM44.3437 70.9991C46.5455 76.7071 49.2561 79.3326 51.0077 79.3326C52.7495 79.3326 55.4602 76.7071 57.6619 70.9991H44.3437ZM51.0077 82.6656C46.9368 82.6656 42.9737 77.8696 40.4001 69.8444C40.2337 69.3365 40.3316 68.7817 40.6447 68.353C40.9481 67.9195 41.4569 67.6651 41.9853 67.6651H60.0203C60.5585 67.6651 61.0576 67.9195 61.3707 68.353C61.6839 68.7817 61.7719 69.3365 61.6055 69.8444C59.0319 77.8696 55.0687 82.6656 51.0077 82.6656ZM51.0077 15.9968C31.7006 15.9968 16.0044 31.6969 16.0044 50.9982C16.0044 70.2984 31.7006 85.9995 51.0077 85.9995C70.305 85.9995 86.0013 70.2984 86.0013 50.9982C86.0013 31.6969 70.305 15.9968 51.0077 15.9968ZM51.0077 89.3325C29.8609 89.3325 12.6675 72.1362 12.6675 50.9982C12.6675 29.8602 29.8609 12.6628 51.0077 12.6628C72.1447 12.6628 89.3381 29.8602 89.3381 50.9982C89.3381 72.1362 72.1447 89.3325 51.0077 89.3325Z" fill="white"/>
<path d="M30.996 30.9973H33.736C34.0687 29.8885 34.4308 28.818 34.832 27.7885C33.462 28.7426 32.1801 29.8181 30.996 30.9973ZM34.9788 34.3302H27.3068C26.6707 34.3302 26.0934 33.9682 25.8096 33.3977C25.5356 32.8262 25.6041 32.1471 25.9857 31.6431C29.1074 27.6222 33.1978 24.3724 37.8069 22.243C38.4527 21.9465 39.2356 22.0972 39.7248 22.6217C40.2141 23.1472 40.312 23.9261 39.9695 24.5593C38.6093 27.035 37.4741 29.914 36.5934 33.11C36.3879 33.8312 35.7323 34.3302 34.9788 34.3302ZM44.3437 30.9973H57.6619C55.4602 25.2883 52.7495 22.6638 51.0077 22.6638C49.2561 22.6638 46.5455 25.2883 44.3437 30.9973ZM60.0203 34.3302H41.9853C41.4569 34.3302 40.9481 34.0768 40.6447 33.6472C40.3316 33.2176 40.2337 32.6637 40.4001 32.1559C42.9737 24.1258 46.9368 19.3298 51.0077 19.3298C55.0687 19.3298 59.0319 24.1258 61.6055 32.1559C61.7719 32.6637 61.6839 33.2176 61.3707 33.6472C61.0576 34.0768 60.5585 34.3302 60.0203 34.3302ZM68.2794 30.9973H71.0096C69.8256 29.8181 68.5436 28.7426 67.1834 27.7885C67.5748 28.818 67.9369 29.8885 68.2794 30.9973ZM74.6988 34.3302H67.0268C66.2733 34.3302 65.6177 33.8312 65.4122 33.11C64.5315 29.914 63.3963 27.035 62.0459 24.5593C61.6936 23.9261 61.7915 23.1472 62.2808 22.6217C62.7701 22.0972 63.5431 21.9465 64.1987 22.243C68.8078 24.3724 72.8983 27.6222 76.0199 31.6431C76.4015 32.1471 76.4798 32.8262 76.196 33.3977C75.9122 33.9682 75.3349 34.3302 74.6988 34.3302ZM23.1185 45.9977H31.1624C31.27 44.3019 31.4266 42.6314 31.6321 40.9972H24.4984C23.8819 42.606 23.4317 44.2813 23.1185 45.9977ZM32.7477 49.3317H21.2006C20.7309 49.3317 20.2709 49.1272 19.9578 48.7768C19.6349 48.4226 19.4881 47.9519 19.5468 47.4812C19.8795 44.4183 20.6525 41.4562 21.8268 38.681C22.091 38.0645 22.6978 37.6642 23.3632 37.6642H33.5599C34.0492 37.6642 34.5091 37.8766 34.8223 38.2474C35.1452 38.6183 35.2821 39.1106 35.2038 39.5891C34.7928 42.2019 34.5287 44.9399 34.4112 47.7307C34.3721 48.6271 33.6382 49.3317 32.7477 49.3317ZM41.1927 45.9977H60.8129C60.6955 44.3019 60.4998 42.6314 60.2551 40.9972H41.7505C41.5058 42.6314 41.3199 44.3019 41.1927 45.9977ZM62.5841 49.3317H39.4215C38.9616 49.3317 38.5212 49.1438 38.2081 48.815C37.8949 48.4852 37.7285 48.039 37.7481 47.5849C37.8949 44.6649 38.208 41.7889 38.7071 39.0391C38.8441 38.2435 39.5389 37.6642 40.3413 37.6642H61.6643C62.4667 37.6642 63.1615 38.2435 63.3083 39.0391C63.7976 41.7889 64.1205 44.6649 64.2575 47.5849C64.2771 48.039 64.1107 48.4852 63.7976 48.815C63.4844 49.1438 63.044 49.3317 62.5841 49.3317ZM70.8432 45.9977H78.8871C78.5837 44.2813 78.1238 42.606 77.5171 40.9972H70.3735C70.579 42.6314 70.7356 44.3019 70.8432 45.9977ZM80.805 49.3317H69.2579C68.3674 49.3317 67.6335 48.6271 67.5944 47.7307C67.477 44.9399 67.2128 42.2019 66.8018 39.5891C66.7333 39.1106 66.8702 38.6183 67.1834 38.2474C67.4965 37.8766 67.9663 37.6642 68.4458 37.6642H78.6424C79.3176 37.6642 79.9146 38.0645 80.1788 38.681C81.3531 41.4562 82.1261 44.4183 82.4588 47.4812C82.5176 47.9519 82.3708 48.4226 82.0478 48.7768C81.7347 49.1272 81.2747 49.3317 80.805 49.3317ZM24.4984 60.9981H31.6321C31.4266 59.3649 31.27 57.6945 31.1624 55.9986H23.1185C23.4317 57.7151 23.8819 59.3903 24.4984 60.9981ZM33.5599 64.3321H23.3632C22.6978 64.3321 22.091 63.9319 21.8268 63.3193C20.6525 60.5363 19.8795 57.5731 19.5468 54.5151C19.4881 54.0435 19.6349 53.5728 19.9578 53.2185C20.2709 52.8643 20.7309 52.6647 21.2006 52.6647H32.7477C33.6382 52.6647 34.3721 53.3692 34.4112 54.2607C34.5287 57.0604 34.7928 59.8023 35.2038 62.4073C35.2821 62.8897 35.1452 63.378 34.8223 63.7489C34.5091 64.1198 34.0492 64.3321 33.5599 64.3321ZM41.7505 60.9981H60.2551C60.4998 59.3649 60.6955 57.6945 60.8129 55.9986H41.1927C41.3199 57.6945 41.5058 59.3649 41.7505 60.9981ZM61.6643 64.3321H40.3413C39.5389 64.3321 38.8441 63.7528 38.7071 62.9611C38.208 60.2065 37.8949 57.3315 37.7481 54.4104C37.7285 53.9564 37.8949 53.5102 38.2081 53.1814C38.5212 52.8526 38.9616 52.6647 39.4215 52.6647H62.5841C63.044 52.6647 63.4844 52.8526 63.7976 53.1814C64.1107 53.5102 64.2771 53.9564 64.2575 54.4104C64.1205 57.3315 63.7976 60.2065 63.3083 62.9611C63.1615 63.7528 62.4667 64.3321 61.6643 64.3321ZM70.3735 60.9981H77.5171C78.1238 59.3903 78.5837 57.7151 78.8871 55.9986H70.8432C70.7356 57.6945 70.579 59.3649 70.3735 60.9981ZM78.6424 64.3321H68.4458C67.9663 64.3321 67.4965 64.1198 67.1834 63.7489C66.8702 63.378 66.7235 62.8897 66.8018 62.4073C67.2128 59.8023 67.477 57.0604 67.5944 54.2607C67.6335 53.3692 68.3674 52.6647 69.2579 52.6647H80.805C81.2747 52.6647 81.7347 52.8643 82.0478 53.2185C82.3708 53.5728 82.5176 54.0435 82.4588 54.5151C82.1261 57.5731 81.3531 60.5363 80.1788 63.3193C79.9146 63.9319 79.3079 64.3321 78.6424 64.3321ZM30.996 70.9991C32.1801 72.1783 33.462 73.2527 34.832 74.2117C34.4308 73.1783 34.0687 72.1068 33.736 70.9991H30.996ZM38.5016 79.9031C38.2668 79.9031 38.032 79.8532 37.8069 79.7494C33.1978 77.624 29.1172 74.3781 25.9956 70.3571C25.6041 69.8532 25.5357 69.1692 25.8194 68.5987C26.0934 68.0282 26.6707 67.6651 27.3068 67.6651H34.9885C35.7322 67.6651 36.3879 68.1652 36.5934 68.8903C37.4741 72.0824 38.6093 74.9574 39.9695 77.4371C40.312 78.0653 40.2141 78.8491 39.7248 79.3746C39.4019 79.7201 38.9616 79.9031 38.5016 79.9031ZM68.2794 70.9991C67.9369 72.1068 67.5748 73.1783 67.1834 74.2117C68.5436 73.2527 69.8256 72.1783 71.0096 70.9991H68.2794ZM63.504 79.9031C63.0539 79.9031 62.6037 79.7201 62.2808 79.3746C61.7915 78.8491 61.6936 78.0653 62.0459 77.4371C63.3963 74.9574 64.5315 72.0824 65.4122 68.8903C65.6177 68.1652 66.2734 67.6651 67.0171 67.6651H74.6988C75.3349 67.6651 75.9122 68.0282 76.196 68.5987C76.4798 69.1692 76.4015 69.8532 76.0101 70.3571C72.8884 74.3781 68.8078 77.624 64.1987 79.7494C63.9737 79.8532 63.7388 79.9031 63.504 79.9031ZM44.3437 70.9991C46.5455 76.7071 49.2561 79.3326 51.0077 79.3326C52.7495 79.3326 55.4602 76.7071 57.6619 70.9991H44.3437ZM51.0077 82.6656C46.9368 82.6656 42.9737 77.8696 40.4001 69.8444C40.2337 69.3365 40.3316 68.7817 40.6447 68.353C40.9481 67.9195 41.4569 67.6651 41.9853 67.6651H60.0203C60.5585 67.6651 61.0576 67.9195 61.3707 68.353C61.6839 68.7817 61.7719 69.3365 61.6055 69.8444C59.0319 77.8696 55.0687 82.6656 51.0077 82.6656ZM51.0077 15.9968C31.7006 15.9968 16.0044 31.6969 16.0044 50.9982C16.0044 70.2984 31.7006 85.9995 51.0077 85.9995C70.305 85.9995 86.0013 70.2984 86.0013 50.9982C86.0013 31.6969 70.305 15.9968 51.0077 15.9968ZM51.0077 89.3325C29.8609 89.3325 12.6675 72.1362 12.6675 50.9982C12.6675 29.8602 29.8609 12.6628 51.0077 12.6628C72.1447 12.6628 89.3381 29.8602 89.3381 50.9982C89.3381 72.1362 72.1447 89.3325 51.0077 89.3325Z" stroke="white" stroke-width="2" mask="url(#path-1-outside-1_669_8186)"/>
<path d="M87.6758 24.8325C86.4826 24.8325 85.5025 23.8658 85.5025 22.666C85.5025 19.2662 82.7412 16.4991 79.3384 16.4991C78.1414 16.4991 77.1748 15.5286 77.1748 14.3326C77.1748 13.1369 78.141 12.1651 79.3384 12.1651C85.1237 12.1651 89.8393 16.8765 89.8393 22.666C89.8393 23.862 88.8727 24.8325 87.6758 24.8325Z" fill="white" stroke="white"/>
<path d="M99.3352 23.1675C98.1311 23.1675 97.1694 22.197 97.1694 21.0006C97.1694 12.0899 89.9116 4.83404 81.0008 4.83404C79.8083 4.83404 78.835 3.86436 78.835 2.66719C78.835 1.47002 79.8083 0.500349 81.0008 0.500349C92.3071 0.500349 101.501 9.69526 101.501 21.0006C101.501 22.199 100.527 23.1675 99.3352 23.1675Z" fill="white" stroke="white"/>
<path d="M14.3359 24.8325C13.1415 24.8325 12.165 23.864 12.165 22.6654C12.165 16.8726 16.8758 12.1656 22.662 12.1656C23.8673 12.1656 24.8329 13.1346 24.8329 14.3318C24.8329 15.5286 23.8677 16.4989 22.662 16.4989C19.2677 16.4989 16.4974 19.2631 16.4974 22.6654C16.4974 23.8604 15.5339 24.8325 14.3359 24.8325Z" fill="white" stroke="white"/>
<path d="M2.66902 23.1675C1.47506 23.1675 0.5 22.1983 0.5 21.0003C0.5 9.69437 9.69734 0.499939 21.0004 0.499939C22.194 0.499939 23.1694 1.46776 23.1694 2.66615C23.1694 3.86417 22.1943 4.83332 21.0004 4.83332C12.0875 4.83332 4.83805 12.0844 4.83805 21.0003C4.83805 22.1983 3.86299 23.1675 2.66902 23.1675Z" fill="white" stroke="white"/>
<path d="M22.662 89.8325C16.8758 89.8325 12.165 85.1255 12.165 79.3318C12.165 78.1328 13.1418 77.1656 14.3359 77.1656C15.5336 77.1656 16.4974 78.1364 16.4974 79.3318C16.4974 82.7351 19.2677 85.4992 22.662 85.4992C23.8673 85.4992 24.8329 86.4682 24.8329 87.6654C24.8329 88.8622 23.8677 89.8325 22.662 89.8325Z" fill="white" stroke="white"/>
<path d="M21.0004 101.498C9.69733 101.498 0.5 92.3031 0.5 80.9972C0.5 79.7988 1.47543 78.8309 2.66902 78.8309C3.86262 78.8309 4.83805 79.7988 4.83805 80.9972C4.83805 89.9131 12.0875 97.1642 21.0004 97.1642C22.1943 97.1642 23.1694 98.1333 23.1694 99.3313C23.1694 100.53 22.194 101.498 21.0004 101.498Z" fill="white" stroke="white"/>
<path d="M79.3384 89.8325C78.1414 89.8325 77.1748 88.862 77.1748 87.666C77.1748 86.47 78.1414 85.4995 79.3384 85.4995C82.7412 85.4995 85.5025 82.7324 85.5025 79.3326C85.5025 78.1327 86.4826 77.1661 87.6758 77.1661C88.8727 77.1661 89.8393 78.1365 89.8393 79.3326C89.8393 85.1211 85.1237 89.8325 79.3384 89.8325Z" fill="white" stroke="white"/>
<path d="M81.0008 101.502C79.8083 101.502 78.835 100.533 78.835 99.3356C78.835 98.138 79.8087 97.1697 81.0008 97.1697C89.9116 97.1697 97.1694 89.9139 97.1694 81.0022C97.1694 79.8069 98.1309 78.8353 99.3352 78.8353C100.528 78.8353 101.501 79.8049 101.501 81.0022C101.501 92.3077 92.2971 101.502 81.0008 101.502Z" fill="white" stroke="white"/>
</svg>
