<svg width="100" height="100" viewBox="0 0 100 100" fill="none" xmlns="http://www.w3.org/2000/svg">
<path d="M24.39 41.1789C19.002 41.1789 14.634 35.916 14.634 29.4143C14.634 22.917 19.002 17.6497 24.39 17.6497C29.778 17.6497 34.146 22.917 34.146 29.4143C34.146 35.916 29.778 41.1789 24.39 41.1789ZM24.39 5.88512C13.614 5.88512 4.87793 16.4198 4.87793 29.4143C4.87793 42.4044 24.39 76.4727 24.39 76.4727C24.39 76.4727 43.9021 42.4044 43.9021 29.4143C43.9021 16.4198 35.1623 5.88512 24.39 5.88512Z" fill="white"/>
<path d="M97.5576 94.1169V100H0V94.1169C0 90.8847 2.19747 88.2348 4.87789 88.2348H92.6797C95.3601 88.2348 97.5576 90.8847 97.5576 94.1169Z" fill="white"/>
<path d="M100 29.4132C100 45.6541 89.0811 58.8213 75.609 58.8213C62.1368 58.8213 51.2217 45.6541 51.2217 29.4132C51.2217 13.1625 62.1368 0.000228882 75.609 0.000228882C89.0811 0.000228882 100 13.1625 100 29.4132Z" fill="white"/>
<path d="M80.4867 88.2329H70.73V41.1762H80.4867V88.2329Z" fill="white"/>
</svg>
