<svg width="100" height="100" viewBox="0 0 100 100" fill="none" xmlns="http://www.w3.org/2000/svg">
<path d="M93.7514 44.9998H56.2523V24.9997H93.7514C97.2078 24.9997 100 22.7604 100 20.0001C100 17.2392 97.2078 14.9999 93.7514 14.9999H56.2523V4.99958C56.2523 2.23927 53.4601 0 50.0038 0C46.5474 0 43.7476 2.23927 43.7476 4.99958V29.9999H6.24857C2.79977 29.9999 0 32.2391 0 35C0 37.7603 2.79977 39.9996 6.24857 39.9996H43.7476V59.9998H6.24857C2.79977 59.9998 0 62.239 0 65C0 67.7609 2.79977 70.0001 6.24857 70.0001H43.7476V89.9996H31.2505C27.8167 89.9996 25.0019 92.2498 25.0019 94.9998V100H74.9981V94.9998C74.9981 92.2389 72.2059 89.9996 68.7495 89.9996H56.2523V55.0002H93.7514C97.2078 55.0002 100 52.7609 100 50C100 47.2391 97.2078 44.9998 93.7514 44.9998Z" fill="white"/>
</svg>
