<svg width="100" height="101" viewBox="0 0 100 101" fill="none" xmlns="http://www.w3.org/2000/svg">
<path d="M29.9967 82.0556L23.8762 74.9695C21.982 72.7689 18.0153 72.7689 16.1211 74.9695L11.793 79.9757L14.7667 54.1423L24.2479 45.9108L29.9967 53.4031V82.0556ZM94.9702 51.374C94.8429 50.245 94.2828 49.1969 93.3917 48.4271L82.3575 38.842C80.7077 41.7448 78.9611 44.6041 77.2756 47.231L85.2293 54.1423L88.2081 79.9757L83.8799 74.9695C81.9857 72.7689 78.0191 72.7689 76.1198 74.9695L69.9993 82.0556V57.9088C69.6479 58.3892 69.3475 58.8089 69.1132 59.125L64.9989 64.7257L60.8897 59.125C60.6555 58.8089 60.35 58.3892 59.9986 57.9088V82.0556L53.8781 74.9695C51.9838 72.7689 48.0172 72.7689 46.1179 74.9695L39.9974 82.0556V53.9406L49.998 45.2594L53.3179 48.1383C50.8942 44.4024 48.2922 40.1521 46.0314 35.9022L35.7507 44.8292L29.0547 36.1039C28.2146 35.0151 26.9212 34.3129 25.5005 34.1754C24.0901 34.0274 22.6593 34.4877 21.6103 35.3983L6.60935 48.4271C5.71826 49.1969 5.15814 50.245 5.03084 51.374L0.0305225 94.7955C-0.213892 96.8687 1.02859 98.8408 3.07556 99.6403C3.69678 99.8889 4.35363 100.003 5.00031 100.003C6.47189 100.003 7.9078 99.3917 8.87528 98.2665L20.0012 85.3948L31.1221 98.2665C31.1934 98.3503 31.3003 98.3872 31.3767 98.4677C31.6822 98.7738 32.0183 99.0392 32.4053 99.2676C32.5784 99.3682 32.7617 99.4588 32.9501 99.5431C33.0774 99.5967 33.1894 99.6906 33.3269 99.7347C33.551 99.8118 33.7852 99.7984 34.0143 99.842C34.2536 99.8923 34.4828 99.9464 34.7272 99.9598C34.8189 99.9665 34.9054 100.003 34.9971 100.003C35.1855 100.003 35.3535 99.9091 35.5368 99.8923C35.9595 99.8487 36.3719 99.7783 36.7793 99.6303C37.0542 99.5297 37.2884 99.3951 37.543 99.2509C37.7416 99.1364 37.9657 99.0928 38.1541 98.9515C38.3068 98.8341 38.3833 98.6626 38.5156 98.5319C38.6277 98.4275 38.7804 98.3805 38.8772 98.2665L49.998 85.3948L61.1188 98.2665C61.1901 98.3503 61.3022 98.3872 61.3786 98.4677C61.6841 98.7738 62.0201 99.0392 62.4071 99.2676C62.5802 99.3682 62.7585 99.4588 62.9469 99.5431C63.0793 99.5967 63.1862 99.6906 63.3288 99.7347C63.5834 99.8219 63.8583 99.8286 64.118 99.8755C64.2962 99.9057 64.4541 99.9565 64.6323 99.9699C65.223 100.01 65.8086 99.9732 66.3738 99.8219C66.4196 99.8118 66.4603 99.7816 66.5011 99.7649C67.0255 99.6101 67.5144 99.3582 67.9625 99.0459C68.0236 99.0023 68.0949 98.9956 68.1509 98.9515C68.2476 98.8777 68.2935 98.7704 68.38 98.6895C68.543 98.5419 68.7364 98.4342 68.879 98.2665L79.9998 85.3948L91.1207 98.2665C92.0882 99.3917 93.5292 100.003 95.0008 100.003C95.6475 100.003 96.3043 99.8889 96.9256 99.6403C98.9725 98.8408 100.21 96.8687 99.9705 94.7955L94.9702 51.374Z" fill="white"/>
<path d="M66.1075 28.5024C60.0218 28.5024 55.0871 24.2509 55.0871 19.0017C55.0871 13.7591 60.0218 9.50056 66.1075 9.50056C72.1933 9.50056 77.1224 13.7591 77.1224 19.0017C77.1224 24.2509 72.1933 28.5024 66.1075 28.5024ZM66.1075 -0.00012207C53.9416 -0.00012207 44.0723 8.50989 44.0723 19.0017C44.0723 29.4964 66.1075 57.0054 66.1075 57.0054C66.1075 57.0054 88.1428 29.4964 88.1428 19.0017C88.1428 8.50989 78.279 -0.00012207 66.1075 -0.00012207Z" fill="white"/>
</svg>
