<svg width="100" height="100" viewBox="0 0 100 100" fill="none" xmlns="http://www.w3.org/2000/svg">
<path d="M20.7996 68.4204C18.2433 68.4204 16.0002 66.554 15.6024 63.9511C15.3696 62.4233 13.5455 48.8291 20.787 40.3984C24.2617 36.3481 29.2685 34.2066 35.2657 34.2066C47.6832 34.2066 51.6319 42.8277 54.5184 49.1254C57.2947 55.2072 58.7591 57.8947 64.1891 57.8947C66.8513 57.8947 68.7643 57.1202 70.2075 55.4738C74.2155 50.8733 73.8726 40.7454 73.4367 37.5543C73.0389 34.6806 75.0535 32.0227 77.9314 31.6291C80.8094 31.2312 83.4673 33.2458 83.8651 36.1238C84.1063 37.8633 85.9728 53.4085 78.143 62.3852C74.6979 66.3339 69.8731 68.4204 64.1891 68.4204C51.7716 68.4204 47.8271 59.8035 44.9407 53.5058C42.1601 47.4198 40.6957 44.7322 35.2657 44.7322C31.3847 44.7322 29.7002 46.1712 28.7691 47.2547C25.2605 51.3473 25.6076 59.7442 26.0096 62.364C26.4456 65.2335 24.4733 67.9253 21.5996 68.3612C21.3287 68.4035 21.0621 68.4204 20.7996 68.4204Z" fill="white"/>
<path d="M10.5281 89.4762H89.4719V10.5281H10.5281V89.4762ZM94.7359 100H5.26408C2.35352 100 0 97.6422 0 94.7359V5.26404C0 2.3578 2.35352 0 5.26408 0H94.7359C97.6422 0 100 2.3578 100 5.26404V94.7359C100 97.6422 97.6422 100 94.7359 100Z" fill="white"/>
</svg>
