<svg width="100" height="100" viewBox="0 0 100 100" fill="none" xmlns="http://www.w3.org/2000/svg">
<path d="M60.3418 77.5V73.75C60.3418 71.6875 62.2852 70 64.652 70H77.5843V77.5H60.3418ZM25.8627 77.5H8.62218V70H21.5507C23.9188 70 25.8627 71.6875 25.8627 73.75V77.5ZM75.8631 65C74.073 65 72.3872 64.2708 71.2987 63.0375C70.1144 61.6875 67.5814 58.7583 64.5787 55H8.79411L16.1836 32.5H49.4784C48.1614 29.85 47.1739 27.3208 46.5806 25H12.9323C11.0071 25 9.31611 26.1 8.78644 27.7083L0.168096 53.9625C0.0560322 54.3 0 54.65 0 55V58.75V85V98.125C0 99.1667 0.948231 100 2.15698 100H15.0874C16.2918 100 17.2405 99.1667 17.2405 98.125V85H68.964V98.125C68.964 99.1667 69.9142 100 71.1172 100H84.0495C85.2539 100 86.2026 99.1667 86.2026 98.125V85V58.75V56.1708C83.6132 59.375 81.4826 61.8375 80.4218 63.0375C79.3352 64.2708 77.6475 65 75.8631 65Z" fill="white"/>
<path d="M62.0703 20.9917C62.0703 14.3667 68.2439 8.99166 75.8632 8.99166C83.4769 8.99166 89.6523 14.3667 89.6523 20.9917C89.6523 27.625 83.4769 32.9958 75.8632 32.9958C68.2439 32.9958 62.0703 27.625 62.0703 20.9917ZM99.999 20.9917C99.999 9.4 89.1902 0 75.8632 0C62.5287 0 51.7236 9.4 51.7236 20.9917C51.7236 32.5917 75.8632 60 75.8632 60C75.8632 60 99.999 32.5917 99.999 20.9917Z" fill="white"/>
</svg>
