<svg width="100" height="101" viewBox="0 0 100 101" fill="none" xmlns="http://www.w3.org/2000/svg">
<path d="M19.9994 39.8854H49.9985V23.2201H0V78.7764H19.9994V39.8854Z" fill="white"/>
<path d="M61.9686 45.4442H24.9961V101H80.0012V77.4392L75.8874 70.8206C73.8685 67.5852 67.2274 56.6651 61.9686 45.4442Z" fill="white"/>
<path d="M80.0023 31.8292C74.477 31.8292 70.0007 27.2285 70.0007 21.5546C70.0007 15.8756 74.477 11.2749 80.0023 11.2749C85.5227 11.2749 89.999 15.8756 89.999 21.5546C89.999 27.2285 85.5227 31.8292 80.0023 31.8292ZM80.0023 0.995117C68.9516 0.995117 59.999 10.1966 59.999 21.5546C59.999 32.9024 80.0023 62.6685 80.0023 62.6685C80.0023 62.6685 100.001 32.9024 100.001 21.5546C100.001 10.1966 91.0431 0.995117 80.0023 0.995117Z" fill="white"/>
</svg>
