<svg width="100" height="100" viewBox="0 0 100 100" fill="none" xmlns="http://www.w3.org/2000/svg">
<path d="M75.0041 29.9995C68.1031 29.9995 62.5094 25.5245 62.5094 19.9999C62.5094 14.4783 68.1031 10.0002 75.0041 10.0002C81.9051 10.0002 87.5052 14.4783 87.5052 19.9999C87.5052 25.5245 81.9051 29.9995 75.0041 29.9995ZM75.0041 6.86646e-05C61.2021 6.86646e-05 50.0146 8.95364 50.0146 19.9999C50.0146 31.0426 75.0041 59.999 75.0041 59.999C75.0041 59.999 99.9999 31.0426 99.9999 19.9999C99.9999 8.95364 88.8061 6.86646e-05 75.0041 6.86646e-05Z" fill="white"/>
<path d="M6.60961 99.9995C3.57805 99.9995 0.917697 98.2282 0.44131 95.7533C0.169089 94.3033 -2.00249 81.3856 6.59722 73.3789C10.7239 69.5327 16.6694 67.497 23.7905 67.497C38.5338 67.497 43.2172 75.6894 46.6385 81.6678C49.9423 87.4467 51.6808 89.9997 58.1275 89.9997C61.289 89.9997 63.5534 89.264 65.2733 87.7001C70.031 83.3287 69.6227 73.7071 69.0968 70.6788C68.6328 67.947 71.0209 65.4217 74.4422 65.047C77.8636 64.6544 81.0126 66.5792 81.4828 69.3184C81.7674 70.9719 83.9885 85.7392 74.6897 94.2711C70.6064 98.0212 64.8773 99.9995 58.1275 99.9995C43.3904 99.9995 38.7008 91.8141 35.2795 85.8288C31.9695 80.0499 30.2372 77.4968 23.7905 77.4968C19.1813 77.4968 17.1829 78.8642 16.0755 79.8964C11.9117 83.7787 12.3263 91.7572 12.8027 94.2464C13.3224 96.9712 10.9775 99.5282 7.56857 99.9426C7.24685 99.9817 6.93132 99.9995 6.60961 99.9995Z" fill="white"/>
</svg>
