<svg width="100" height="100" viewBox="0 0 100 100" fill="none" xmlns="http://www.w3.org/2000/svg">
<path d="M99.8763 95.9222C99.8763 95.8778 99.8763 95.8778 99.8763 95.8334L97.2212 86.9908L95.9956 82.8276V48.8349C92.7078 53.8048 88.8747 58.6721 85.7749 62.3739V72.0949C85.7749 73.2775 84.6229 74.2414 83.2199 74.2414H16.7839C15.3784 74.2414 14.2289 73.2775 14.2289 72.0949V42.0466C14.2289 40.864 15.3784 39.9001 16.7839 39.9001H52.0918C50.812 37.0562 50.0019 34.397 50.0019 32.1718C50.0019 31.8813 50.0894 31.6044 50.1056 31.3139H9.11852C6.30759 31.3139 4.00776 33.2451 4.00776 35.607V82.8276L2.77807 86.9908L0.12299 95.8334C0.12299 95.8778 0.12299 95.8778 0.12299 95.9222C-0.489815 98.1508 1.24688 100 4.00776 100H34.6704C34.6704 97.6381 36.9702 95.7069 39.7811 95.7069H60.2226C63.0315 95.7069 65.333 97.6381 65.333 100H95.9956C98.7544 100 100.491 98.1508 99.8763 95.9222Z" fill="white"/>
<path d="M64.1986 18.0296C64.1986 12.3392 69.6925 7.72703 76.4642 7.72703C83.2349 7.72703 88.7289 12.3392 88.7289 18.0296C88.7289 23.7164 83.2349 28.332 76.4642 28.332C69.6925 28.332 64.1986 23.7164 64.1986 18.0296ZM97.9275 18.0296C97.9275 8.07234 88.3195 0.000156403 76.4642 0.000156403C64.6084 0.000156403 55 8.07234 55 18.0296C55 27.9868 76.4642 51.5127 76.4642 51.5127C76.4642 51.5127 97.9275 27.9868 97.9275 18.0296Z" fill="white"/>
</svg>
