<svg width="100" height="100" viewBox="0 0 100 100" fill="none" xmlns="http://www.w3.org/2000/svg">
<path d="M72.2165 37.8205C64.159 37.8205 57.6308 31.658 57.6308 24.0747C57.6308 16.4747 64.159 10.3206 72.2165 10.3206C80.2696 10.3206 86.8022 16.4747 86.8022 24.0747C86.8022 31.658 80.2696 37.8205 72.2165 37.8205ZM72.2165 -0.000190735C58.1125 -0.000190735 46.687 10.7789 46.687 24.0747C46.687 37.358 72.2165 68.7578 72.2165 68.7578C72.2165 68.7578 97.7459 37.358 97.7459 24.0747C97.7459 10.7789 86.316 -0.000190735 72.2165 -0.000190735Z" fill="white"/>
<path d="M12.1548 60.1632C8.80447 60.1632 6.07739 62.7298 6.07739 65.8923C6.07739 69.0548 8.80447 71.6214 12.1548 71.6214C15.5051 71.6214 18.2322 69.0548 18.2322 65.8923C18.2322 62.7298 15.5051 60.1632 12.1548 60.1632ZM12.1548 77.3506C5.45418 77.3506 0 72.2131 0 65.8923C0 59.5757 5.45418 54.4299 12.1548 54.4299C18.8554 54.4299 24.3095 59.5757 24.3095 65.8923C24.3095 72.2131 18.8554 77.3506 12.1548 77.3506Z" fill="white"/>
<path d="M72.2155 91.6758H35.7467C32.0826 91.6758 26.6284 89.3883 26.6284 83.08C26.6284 76.78 32.0826 74.4884 35.7467 74.4884H53.9789C55.349 74.455 57.0198 73.93 57.0198 71.6217C57.0198 69.3217 55.349 68.7926 53.9435 68.7592H29.6693V63.0301H53.9789C57.6474 63.0301 63.0971 65.3217 63.0971 71.6217C63.0971 77.93 57.6474 80.2175 53.9789 80.2175H35.7467C34.3765 80.2508 32.7058 80.78 32.7058 83.08C32.7058 85.3925 34.3765 85.9133 35.782 85.9466H72.2155V91.6758Z" fill="white"/>
<path d="M81.7674 100L77.4668 95.9542L95.7034 78.7668L99.9995 82.8126L81.7674 100Z" fill="white"/>
<path d="M95.7034 100L77.4668 82.8126L81.7674 78.7668L99.9995 95.9542L95.7034 100Z" fill="white"/>
</svg>
