<svg width="100" height="100" viewBox="0 0 100 100" fill="none" xmlns="http://www.w3.org/2000/svg">
<path d="M65.0694 66.3628V49.5483H86.9025L91.2694 66.3628H65.0694ZM82.5369 93.6889C78.9205 93.6889 75.9857 90.8623 75.9857 87.3861C75.9857 83.9015 78.9205 81.0832 82.5369 81.0832C86.1534 81.0832 89.0851 83.9015 89.0851 87.3861C89.0851 90.8623 86.1534 93.6889 82.5369 93.6889ZM34.5055 93.6889C30.8891 93.6889 27.956 90.8623 27.956 87.3861C27.956 83.9015 30.8891 81.0832 34.5055 81.0832C38.1219 81.0832 41.0571 83.9015 41.0571 87.3861C41.0571 90.8623 38.1219 93.6889 34.5055 93.6889ZM91.2694 41.1391H65.0694V28.5251C65.0694 26.2159 63.1047 24.3246 60.7038 24.3246H45.4489C42.5713 36.8516 27.5851 56.203 24.3228 60.3041C23.3944 61.4712 21.952 62.1623 20.4227 62.1623C18.8947 62.1623 17.454 61.4712 16.5226 60.3041C15.7734 59.3606 14.3817 57.5811 12.6758 55.2884V66.3628V83.1731C12.6758 85.4865 14.6404 87.3861 17.0414 87.3861H21.4065C21.4065 94.351 27.2726 100 34.5055 100C41.7401 100 47.6066 94.351 47.6066 87.3861H69.4346C69.4346 94.351 75.3023 100 82.5369 100C89.7698 100 95.6346 94.351 95.6346 87.3861C98.0355 87.3861 99.9998 85.4865 99.9998 83.1731V66.3628L91.2694 41.1391Z" fill="white"/>
<path d="M8.7546 19.8567C8.7546 13.5909 13.9776 8.50458 20.4208 8.50458C26.8636 8.50458 32.0901 13.5909 32.0901 19.8567C32.0901 26.1308 26.8636 31.213 20.4208 31.213C13.9776 31.213 8.7546 26.1308 8.7546 19.8567ZM40.8451 19.8567C40.8451 8.88946 31.6995 -0.000209808 20.4208 -0.000209808C9.14173 -0.000209808 0 8.88946 0 19.8567C0 30.8322 20.4208 56.7563 20.4208 56.7563C20.4208 56.7563 40.8451 30.8322 40.8451 19.8567Z" fill="white"/>
</svg>
