<svg width="100" height="100" viewBox="0 0 100 100" fill="none" xmlns="http://www.w3.org/2000/svg">
<path d="M93.75 6.25001H6.25C2.8125 6.25001 0 9.06251 0 12.5V75C0 78.4375 2.8125 81.25 6.25 81.25H93.75C97.1875 81.25 100 78.4375 100 75V12.5C100 9.06251 97.1875 6.25001 93.75 6.25001ZM87.5 18.75V68.75H12.5V18.75H87.5Z" fill="white"/>
<path d="M31.25 99.375C31.25 99.7188 30.9687 100 30.625 100H19.375C19.0312 100 18.75 99.7188 18.75 99.375V75.625C18.75 75.2813 19.0312 75 19.375 75H30.625C30.9687 75 31.25 75.2813 31.25 75.625V99.375Z" fill="white"/>
<path d="M81.25 99.375C81.25 99.7188 80.9687 100 80.625 100H69.375C69.0312 100 68.75 99.7188 68.75 99.375V75.625C68.75 75.2813 69.0312 75 69.375 75H80.625C80.9687 75 81.25 75.2813 81.25 75.625V99.375Z" fill="white"/>
<path d="M31.25 11.875C31.25 12.2188 30.9687 12.5 30.625 12.5H19.375C19.0312 12.5 18.75 12.2188 18.75 11.875V0.625002C18.75 0.281252 19.0312 1.90735e-06 19.375 1.90735e-06H30.625C30.9687 1.90735e-06 31.25 0.281252 31.25 0.625002V11.875Z" fill="white"/>
<path d="M81.25 11.875C81.25 12.2188 80.9687 12.5 80.625 12.5H69.375C69.0312 12.5 68.75 12.2188 68.75 11.875V0.625002C68.75 0.281252 69.0312 1.90735e-06 69.375 1.90735e-06H80.625C80.9687 1.90735e-06 81.25 0.281252 81.25 0.625002V11.875Z" fill="white"/>
<path d="M27.6534 55.2372C27.4071 55.4841 27.0127 55.4841 26.7665 55.2372L23.2352 51.7059C22.9893 51.4591 22.9893 51.0653 23.2352 50.8216L38.7393 35.3091C38.9852 35.0653 39.4187 35.0247 39.7002 35.2091L53.2509 44.2466C53.5362 44.4341 53.9696 44.3903 54.2118 44.1497L66.0983 32.2622C66.3446 32.0153 66.7393 32.0153 66.9852 32.2622L70.5165 35.7935C70.7627 36.0403 70.7627 36.4341 70.5165 36.681L55.0046 52.1903C54.7627 52.4341 54.329 52.4747 54.044 52.2903L40.5009 43.2528C40.2159 43.0653 39.7821 43.1091 39.5399 43.3528L27.6534 55.2372Z" fill="white"/>
<path d="M72.9853 42.127C73.2275 42.3739 73.501 42.2989 73.5869 41.9676L78.1066 25.1176C78.1925 24.7833 77.9931 24.5833 77.6609 24.6708L60.8097 29.1895C60.4775 29.277 60.4035 29.5489 60.6494 29.7926L72.9853 42.127Z" fill="white"/>
</svg>
