<svg width="104" height="104" viewBox="0 0 104 104" fill="none" xmlns="http://www.w3.org/2000/svg">
<path d="M76.8628 91.6626L76.8694 91.652L76.8764 91.6416C77.334 90.9569 77.8699 89.8534 77.8749 88.4373L77.8505 88.0199L77.8485 87.9851L77.8499 87.9503L77.8669 87.5375C77.8681 85.4986 77.2993 83.6985 76.4006 82.3975C75.4995 81.0931 74.2961 80.3236 73.0101 80.2278L69.7807 79.9894L68.9929 79.9312L69.1454 79.1561L69.9154 75.2428C69.9359 75.138 69.9518 75.0456 69.9637 74.9716C69.9037 69.7559 68.2735 65.064 65.7081 61.6875C63.1334 58.2986 59.6492 56.2679 55.868 56.2679C55.3966 56.2679 54.8738 56.3123 54.2173 56.4127C54.2171 56.4127 54.2168 56.4127 54.2166 56.4128L52.209 56.7249L51.6311 56.8148L51.4399 56.262L50.6389 53.9456L50.6388 53.9455C48.1973 46.8803 42.6907 42.4485 36.7145 42.4485C28.4819 42.4485 21.5366 50.8563 21.5366 61.5261C21.5366 61.6738 21.5452 61.8197 21.5552 61.9896C21.5562 62.0071 21.5573 62.0249 21.5583 62.0429L21.5585 62.0429L21.559 62.0553L21.6817 65.0688L21.7015 65.5551L21.2524 65.743L19.3173 66.5526C19.3173 66.5526 19.3172 66.5526 19.3172 66.5526C12.6889 69.3261 8.09421 77.4974 8.09421 87.0333V88.4174C8.09421 91.6488 10.8996 94.4163 14.2341 94.4163H71.5773H71.6534L71.7277 94.4327L71.955 94.4827C71.9554 94.4828 71.9558 94.4829 71.9562 94.483C72.277 94.5525 72.5302 94.5809 72.7411 94.5809C74.2283 94.5809 75.7031 93.6612 76.7345 91.871L76.7398 91.8617L76.7455 91.8525L76.8628 91.6626ZM80.1041 54.0326C80.1041 40.1343 71.0536 29.1044 60.2319 29.1044C54.6321 29.1044 49.5342 32.041 45.8907 36.8182C50.054 39.1855 53.5553 43.1224 55.847 48.1489C55.854 48.1489 55.861 48.1489 55.868 48.1489C65.8078 48.1489 73.9594 57.1105 76.1641 68.8482C78.6254 64.7084 80.1041 59.5945 80.1041 54.0326ZM36.7145 34.3294C37.412 34.3294 38.0985 34.3794 38.7723 34.4601C43.6013 26.3442 51.3851 20.9854 60.2319 20.9854C75.0732 20.9854 86.8983 35.96 86.8983 54.0326C86.8983 62.2845 84.4317 69.8335 80.3627 75.6358C83.0147 78.4638 84.6691 82.7076 84.6691 87.3928C84.6691 87.5808 84.6614 87.7654 84.6527 87.938C84.6624 88.1085 84.6691 88.2602 84.6691 88.4174C84.6691 91.3676 83.8391 94.1957 82.2621 96.6044C80.0183 100.423 76.5695 102.7 72.7411 102.7C72.1983 102.7 71.6438 102.645 71.0592 102.535H14.2341C7.04256 102.535 1.3 96.1395 1.3 88.4174V87.0333C1.3 75.2836 6.56683 64.7552 14.7755 60.0249C15.4034 45.8631 24.8788 34.3294 36.7145 34.3294Z" fill="white" stroke="white" stroke-width="1.4"/>
<path d="M39.3362 26.012L39.3362 26.012C38.6942 26.762 37.842 27.1639 36.9609 27.1639C35.9981 27.1639 35.0804 26.6854 34.4324 25.8227L30.2656 20.2832L30.2655 20.2831C29.054 18.6722 29.1126 16.1828 30.4173 14.6585L30.4178 14.6579C31.0882 13.8767 31.9866 13.4709 32.9099 13.5083C33.8316 13.5456 34.6994 14.0212 35.3208 14.8475C35.3209 14.8475 35.3209 14.8475 35.3209 14.8475L39.4879 20.3873L39.4879 20.3874C40.6994 21.9984 40.6408 24.4878 39.3362 26.012Z" fill="white" stroke="white" stroke-width="1.4"/>
<path d="M99.6585 64.6536L99.659 64.6538C101.504 65.3515 102.381 67.6469 101.89 69.6633L101.89 69.6634C101.482 71.3411 100.192 72.5848 98.6292 72.5848C98.2846 72.5848 97.9377 72.522 97.5989 72.3932C97.5986 72.393 97.5983 72.3929 97.5979 72.3928L91.7675 70.1931C91.7675 70.1931 91.7675 70.193 91.7674 70.193C89.9218 69.497 89.045 67.1991 89.5354 65.1833L89.5355 65.183C90.0312 63.1499 91.8762 61.7077 93.8287 62.4536C93.8293 62.4538 93.8298 62.454 93.8304 62.4542L99.6585 64.6536Z" fill="white" stroke="white" stroke-width="1.4"/>
<path d="M93.365 48.4544C91.7113 48.4544 90.3874 47.0697 90.0541 45.2881L90.054 45.2878C89.6709 43.2432 90.6613 41.0041 92.5586 40.4523L98.4903 38.7264C98.4909 38.7262 98.4915 38.726 98.492 38.7259C100.474 38.1398 102.231 39.7178 102.616 41.7749C103 43.8195 102.009 46.0588 100.112 46.6107C100.112 46.6107 100.112 46.6107 100.112 46.6107L94.1804 48.3365C93.9043 48.4198 93.6289 48.4544 93.365 48.4544Z" fill="white" stroke="white" stroke-width="1.4"/>
<path d="M87.1314 16.9475L87.1313 16.9475L82.6851 22.1363L82.6849 22.1366C81.3807 23.6603 81.32 26.1494 82.5329 27.7609C83.181 28.6253 84.0987 29.1038 85.0615 29.1038C85.9432 29.1038 86.7951 28.6997 87.4352 27.9522C87.4352 27.9522 87.4353 27.9521 87.4354 27.952L91.8814 22.7634L91.8816 22.7631C93.1856 21.2396 93.2466 18.7488 92.0349 17.1388L87.1314 16.9475ZM87.1314 16.9475C87.8012 16.1659 88.6999 15.7601 89.6234 15.7978M87.1314 16.9475L89.6234 15.7978M89.6234 15.7978C90.5453 15.8354 91.4135 16.3115 92.0348 17.1387L89.6234 15.7978Z" fill="white" stroke="white" stroke-width="1.4"/>
<path d="M69.3168 16.6801L69.0677 17.3343C69.4071 17.4635 69.7558 17.5262 70.099 17.5262C71.6621 17.5262 72.9518 16.2825 73.3602 14.6048L73.3602 14.6048L75.1282 7.34152L75.1282 7.34129C75.6185 5.32413 74.742 3.02843 72.897 2.33202C70.9461 1.59313 69.0995 3.02473 68.6043 5.06199C68.6042 5.06202 68.6042 5.06206 68.6042 5.0621L66.8376 12.3253L66.8376 12.3254C66.3473 14.3428 67.2241 16.6391 69.0698 17.3351L69.3168 16.6801ZM69.3168 16.6801C69.5771 16.7792 69.8414 16.8262 70.099 16.8262C71.2574 16.8262 72.3267 15.8905 72.6801 14.4392L69.3168 16.6801Z" fill="white" stroke="white" stroke-width="1.4"/>
<path d="M55.8078 11.8613L55.8078 11.8615C56.1907 13.9061 55.2022 16.1449 53.3046 16.6965C53.0286 16.7793 52.755 16.8143 52.4901 16.8143C50.8364 16.8143 49.5125 15.4296 49.1792 13.648C49.1792 13.648 49.1792 13.6479 49.1792 13.6479C49.1791 13.6478 49.1791 13.6477 49.1791 13.6477L47.7929 6.25706L47.7928 6.25687C47.4097 4.21104 48.3995 1.97524 50.2944 1.42033C52.2867 0.830983 54.035 2.41481 54.4214 4.47006L54.4215 4.47037L55.8078 11.8613Z" fill="white" stroke="white" stroke-width="1.4"/>
</svg>
