<svg width="100" height="100" viewBox="0 0 100 100" fill="none" xmlns="http://www.w3.org/2000/svg">
<path d="M49.9985 62.5038C57.3041 62.5038 63.2235 56.905 63.2235 50.0031C63.2235 43.0975 57.3041 37.5023 49.9985 37.5023C42.6928 37.5023 36.7734 43.0975 36.7734 50.0031C36.7734 56.905 42.6928 62.5038 49.9985 62.5038ZM3.29643 61.0527L11.0145 56.84C10.5754 54.62 10.3233 52.3386 10.3233 50.0031C10.3233 47.6603 10.5754 45.3789 11.0145 43.1553L3.29643 38.9426C0.157249 37.2388 -0.93882 33.3943 0.879005 30.4126L7.49345 19.5868C9.31509 16.6051 13.3785 15.5835 16.5215 17.291L24.2434 21.5072C27.9058 18.5472 32.141 16.2261 36.7734 14.6775V6.24857C36.7734 2.81203 39.7484 0 43.3879 0H56.6129C60.2448 0 63.2235 2.81203 63.2235 6.24857V14.6775C67.8597 16.2261 72.0988 18.5472 75.7574 21.5072L83.4755 17.2982C86.6223 15.5799 90.6895 16.6051 92.5035 19.5868L99.1141 30.4126C100.94 33.3835 99.8512 37.2279 96.7006 38.9462L88.9824 43.1589C89.4216 45.3825 89.6775 47.6603 89.6775 50.0031C89.6775 52.3386 89.4216 54.62 88.9824 56.84L96.7006 61.0527C99.8512 62.7637 100.94 66.6082 99.1141 69.5863L92.5035 80.4121C90.6895 83.3902 86.6261 84.4154 83.4755 82.7007L75.7612 78.4953C72.0988 81.4517 67.8597 83.7765 63.2235 85.3265V93.7525C63.2235 97.1873 60.2562 100.003 56.6129 100H43.3879C39.7484 100.003 36.7811 97.1873 36.7734 93.7525V85.3265C32.141 83.7765 27.8943 81.4517 24.2358 78.4953L16.5215 82.7007C13.3823 84.4154 9.31509 83.3974 7.49345 80.4121L0.879005 69.5863C-0.93882 66.6082 0.157249 62.771 3.29643 61.0527Z" fill="white"/>
</svg>
