<svg width="100" height="100" viewBox="0 0 100 100" fill="none" xmlns="http://www.w3.org/2000/svg">
<path d="M99.8171 18.3084L94.4214 12.9407C94.1775 12.6982 93.6944 12.5006 93.3513 12.5006H56.2853V0.624329C56.2853 0.282959 56.0008 0 55.6531 0H44.3469C43.9992 0 43.7193 0.282959 43.7193 0.624329V25.0011H6.64877C6.3056 25.0011 5.82248 25.1987 5.57414 25.4413L0.182869 30.8089C-0.0609563 31.0515 -0.0609563 31.4513 0.182869 31.6938L5.57414 37.057C5.82248 37.2996 6.3056 37.5017 6.64877 37.5017H43.7193V43.7497H6.64877C6.3056 43.7497 5.82248 43.9518 5.57414 44.1899L0.182869 49.5576C-0.0609563 49.8001 -0.0609563 50.1999 0.182869 50.4424L5.57414 55.8101C5.82248 56.0527 6.3056 56.2503 6.64877 56.2503H43.7193V87.4994H25.5001C25.1524 87.4994 24.8679 87.7824 24.8679 88.1238V99.3756C24.8679 99.717 25.1524 100 25.5001 100H44.3469H55.6531H74.5045C74.8476 100 75.1321 99.717 75.1321 99.3756V88.1238C75.1321 87.7824 74.8476 87.4994 74.5045 87.4994H56.2853V25.0011H93.3513C93.6944 25.0011 94.1775 24.799 94.4214 24.5609L99.8171 19.1933C100.061 18.9507 100.061 18.5509 99.8171 18.3084Z" fill="white"/>
</svg>
