<svg width="100" height="100" viewBox="0 0 100 100" fill="none" xmlns="http://www.w3.org/2000/svg">
<path d="M81.8168 81.8185H72.726H63.6352V72.7277H72.726H81.8168V81.8185ZM54.5445 27.274H45.4538V18.1832H54.5445V27.274ZM54.5445 45.4555H45.4538V36.3648H54.5445V45.4555ZM54.5445 63.637H45.4538V54.5462H54.5445V63.637ZM54.5445 81.8185H45.4538V72.7277H54.5445V81.8185ZM36.363 27.274H27.2723V18.1832H36.363V27.274ZM36.363 45.4555H27.2723V36.3648H36.363V45.4555ZM36.363 63.637H27.2723V54.5462H36.363V63.637ZM36.363 81.8185H27.2723V72.7277H36.363V81.8185ZM18.1815 63.637H9.09074V54.5462H18.1815V63.637ZM18.1815 81.8185H9.09074V72.7277H18.1815V81.8185ZM86.5883 54.5462C85.7057 55.7488 84.9776 56.7141 84.5197 57.3154L80.9066 62.0207L77.299 57.3154C76.8411 56.7141 76.1185 55.7488 75.2304 54.5462H63.6352V36.7343C60.0938 30.352 57.275 23.8153 57.275 19.0934C57.275 15.5079 58.1356 12.143 59.5698 9.09249H18.1815V45.4555H0V100H18.1815H54.5445H63.6352H90.9075V54.5462H86.5883Z" fill="white"/>
<path d="M80.911 30.0012C74.8877 30.0012 70.001 25.1145 70.001 19.0968C70.001 13.0678 74.8877 8.18678 80.911 8.18678C86.9344 8.18678 91.821 13.0678 91.821 19.0968C91.821 25.1145 86.9344 30.0012 80.911 30.0012ZM80.911 0.00146866C70.3688 0.00146866 61.8213 8.54894 61.8213 19.0968C61.8213 29.639 80.911 54.5459 80.911 54.5459C80.911 54.5459 100.001 29.639 100.001 19.0968C100.001 8.54894 91.4533 0.00146866 80.911 0.00146866Z" fill="white"/>
</svg>
