<svg width="100" height="100" viewBox="0 0 100 100" fill="none" xmlns="http://www.w3.org/2000/svg">
<path d="M21.5527 66.8157L17.2354 69.4491L50.0021 89.4627L82.7604 69.4491L78.4516 66.8157L87.065 61.549L100 69.4491L50.0021 99.9961L2.58343e-06 69.4491L12.9308 61.549L21.5527 66.8157Z" fill="white"/>
<path d="M26.8176 31.9991C28.0372 34.5183 29.5712 37.1727 31.2582 39.8151L17.2354 48.3832L50.0021 68.3968L82.7604 48.3832L68.7418 39.8151C70.4288 37.1727 71.967 34.5183 73.1824 31.9991L100 48.3832L50.0021 78.9302L2.58343e-06 48.3832L26.8176 31.9991Z" fill="white"/>
<path d="M49.9972 29.0002C55.7109 29.0002 60.342 24.6744 60.342 19.3333C60.342 13.9961 55.7109 9.66685 49.9972 9.66685C44.2876 9.66685 39.6523 13.9961 39.6523 19.3333C39.6523 24.6744 44.2876 29.0002 49.9972 29.0002ZM49.9972 -1.23789e-06C61.4245 -1.23789e-06 70.6909 8.65537 70.6909 19.3333C70.6909 30.0117 49.9972 58 49.9972 58C49.9972 58 29.3075 30.0117 29.3075 19.3333C29.3075 8.65537 38.5698 -1.23789e-06 49.9972 -1.23789e-06Z" fill="white"/>
</svg>
