<svg width="100" height="101" viewBox="0 0 100 101" fill="none" xmlns="http://www.w3.org/2000/svg">
<path d="M36.8742 0.999464H13.1247C12.7795 0.999464 12.5 1.27889 12.5 1.6241V12.8722C12.5 13.2174 12.7795 13.4968 13.1247 13.4968H18.7507V19.7476H31.2481V13.4968H36.8742C37.2194 13.4968 37.4989 13.2174 37.4989 12.8722V1.6241C37.4989 1.27889 37.2194 0.999464 36.8742 0.999464Z" fill="white"/>
<path d="M86.873 0.998493H63.1261C62.7816 0.998493 62.499 1.28115 62.499 1.62563V12.875C62.499 13.2186 62.7816 13.5 63.1261 13.5H68.7482V19.75H81.251V13.5H86.873C87.2175 13.5 87.5001 13.2186 87.5001 12.875V1.62563C87.5001 1.28115 87.2175 0.998493 86.873 0.998493Z" fill="white"/>
<path d="M43.7487 100.375C43.7487 100.719 43.4666 101 43.1224 101H0.622196C0.277914 101 0 100.719 0 100.375V89.1248C0 88.7813 0.277914 88.5001 0.622196 88.5001H43.1224C43.4666 88.5001 43.7487 88.7813 43.7487 89.1248V100.375Z" fill="white"/>
<path d="M100 100.375C100 100.719 99.7169 101 99.3755 101H56.8755C56.5296 101 56.251 100.719 56.251 100.375V89.1248C56.251 88.7811 56.5296 88.4998 56.8755 88.4998H99.3755C99.7169 88.4998 100 88.7811 100 89.1248V100.375Z" fill="white"/>
<path d="M43.75 57.2498V38.4992H56.2492V57.2498H43.75ZM99.929 81.6277L93.8187 26.6209C93.7827 26.2804 93.4682 25.9991 93.1268 25.9991H6.87243C6.53097 25.9991 6.21647 26.2804 6.17603 26.6209L0.0701868 81.6277C0.0297509 81.9687 0.281344 82.25 0.622803 82.25H43.1255C43.4669 82.25 43.75 81.9687 43.75 81.625V69.7499H56.2492V81.625C56.2492 81.9687 56.5322 82.25 56.8737 82.25H99.3764C99.7178 82.25 99.9694 81.9687 99.929 81.6277Z" fill="white"/>
</svg>
