<svg width="100" height="100" viewBox="0 0 100 100" fill="none" xmlns="http://www.w3.org/2000/svg">
<path d="M50 0C22.3828 0 0 22.3875 0 50C0 77.6125 22.3828 100 50 100C77.6172 100 100 77.6125 100 50C100 22.3875 77.6172 0 50 0ZM50 12.5C70.6797 12.5 87.5 29.3219 87.5 50C87.5 70.6812 70.6797 87.5 50 87.5C29.3206 87.5 12.5 70.6812 12.5 50C12.5 29.3219 29.3206 12.5 50 12.5Z" fill="white"/>
<path d="M49.999 60.3589L35.2881 45.6495L39.7103 41.2308L49.999 51.5182L66.5381 34.9808L70.9603 39.3995L49.999 60.3589Z" fill="white"/>
</svg>
