<svg width="100" height="100" viewBox="0 0 100 100" fill="none" xmlns="http://www.w3.org/2000/svg">
<path d="M99.2682 -3.8147e-05H71.4606C71.0584 -3.8147e-05 70.9622 0.199944 71.2458 0.440575L80.7088 8.52184C80.4249 8.28121 79.9587 8.28121 79.6704 8.52184L0.212948 76.3874C-0.0709827 76.6312 -0.0709827 77.0312 0.212948 77.2718L9.52485 85.2249C9.80805 85.4687 10.2749 85.4687 10.5629 85.2249L90.0207 17.3624C90.3039 17.1156 90.3039 16.7187 90.0207 16.475L99.4834 24.5593C99.7669 24.8 100 24.7187 100 24.3749V0.624962C100 0.281212 99.6711 -3.8147e-05 99.2682 -3.8147e-05Z" fill="white"/>
<path d="M41.4588 99.375C41.4588 99.7188 41.1299 100 40.7271 100H27.555C27.1529 100 26.8232 99.7188 26.8232 99.375V81.875C26.8232 81.5313 27.1529 81.25 27.555 81.25H40.7271C41.1299 81.25 41.4588 81.5313 41.4588 81.875V99.375Z" fill="white"/>
<path d="M70.7284 99.375C70.7284 99.7188 70.3995 100 69.9966 100H56.8246C56.4224 100 56.0928 99.7188 56.0928 99.375V56.875C56.0928 56.5313 56.4224 56.25 56.8246 56.25H69.9966C70.3995 56.25 70.7284 56.5313 70.7284 56.875V99.375Z" fill="white"/>
<path d="M99.9994 99.375C99.9994 99.7188 99.6704 100 99.2676 100H86.0955C85.6934 100 85.3638 99.7188 85.3638 99.375V38.125C85.3638 37.7813 85.6934 37.5 86.0955 37.5H99.2676C99.6704 37.5 99.9994 37.7813 99.9994 38.125V99.375Z" fill="white"/>
</svg>
