<svg width="100" height="100" viewBox="0 0 100 100" fill="none" xmlns="http://www.w3.org/2000/svg">
<path d="M16.1715 89.9933L41.4026 63.3298L72.0435 89.9933H16.1715ZM9.47433 35.535L34.0546 56.9352L9.47433 82.916V35.535ZM35.9253 29.9404L27.801 38.5209L17.9361 29.9404H35.9253ZM85.2449 63.8495V88.5157L35.1442 44.9155L49.3196 29.9404H52.092C52.092 26.3788 52.8249 23.0006 54.1026 19.9282H4.73477C4.65762 19.9282 4.59976 19.9741 4.5178 19.9741C4.18029 19.9894 3.86209 20.0963 3.53423 20.183C3.2594 20.2645 2.98454 20.3103 2.73382 20.4377C2.47346 20.56 2.2565 20.7638 2.02025 20.9473C1.75024 21.1511 1.48024 21.3396 1.25845 21.5994C1.20541 21.6606 1.12824 21.6861 1.08485 21.7523C0.940201 21.9306 0.891995 22.1548 0.781099 22.3485C0.607524 22.644 0.438789 22.9242 0.31825 23.2554C0.207355 23.5917 0.168763 23.928 0.130191 24.2745C0.0964403 24.5037 0 24.7025 0 24.9318V94.9969C0 95.6542 0.130191 96.2962 0.371268 96.9128C0.848601 98.1305 1.76954 99.1088 2.93154 99.6183C3.51012 99.868 4.12243 100 4.73477 100H89.9797C92.5977 100 94.7144 97.7586 94.7144 94.9969V45.9956C91.889 52.2577 88.2921 58.7236 85.2449 63.8495Z" fill="white"/>
<path d="M78.7795 33.6351C72.9248 33.6351 68.172 28.6181 68.172 22.4253C68.172 16.2268 72.9248 11.2098 78.7795 11.2098C84.645 11.2098 89.3924 16.2268 89.3924 22.4253C89.3924 28.6181 84.645 33.6351 78.7795 33.6351ZM78.7795 6.86646e-05C67.0648 6.86646e-05 57.5591 10.0398 57.5591 22.4253C57.5591 34.8051 78.7795 67.27 78.7795 67.27C78.7795 67.27 100 34.8051 100 22.4253C100 10.0398 90.4996 6.86646e-05 78.7795 6.86646e-05Z" fill="white"/>
</svg>
