<svg width="100" height="100" viewBox="0 0 100 100" fill="none" xmlns="http://www.w3.org/2000/svg">
<path d="M8.8837 81.6976C3.9778 81.6976 0 85.3905 0 89.945C0 94.4801 2.47742 99.9417 8.8837 100C15.283 99.9417 17.7603 94.4801 17.7603 89.945C17.7603 85.3905 13.7896 81.6976 8.8837 81.6976Z" fill="white"/>
<path d="M50.0028 81.6976C45.0969 81.6976 41.1191 85.3905 41.1191 89.945C41.1191 94.4801 43.5966 99.9417 50.0028 100C56.4021 99.9417 58.8794 94.4801 58.8794 89.945C58.8794 85.3905 54.9087 81.6976 50.0028 81.6976Z" fill="white"/>
<path d="M91.1239 81.6976C86.218 81.6976 82.2402 85.3905 82.2402 89.945C82.2402 94.4801 84.7177 99.9417 91.1239 100C97.5232 99.9417 100.001 94.4801 100.001 89.945C100.001 85.3905 96.0298 81.6976 91.1239 81.6976Z" fill="white"/>
<path d="M50.0028 -0.000141144C45.0969 -0.000141144 41.1191 3.69272 41.1191 8.24726C41.1191 12.7824 43.5966 18.2439 50.0028 18.3022C56.4021 18.2439 58.8794 12.7824 58.8794 8.24726C58.8794 3.69272 54.9087 -0.000141144 50.0028 -0.000141144Z" fill="white"/>
<path d="M53.9799 71.6739C53.9799 72.5963 53.6154 73.3423 53.1647 73.3423H46.6363C46.1789 73.3423 45.8145 72.5963 45.8145 71.6739V24.878C45.8145 23.9557 46.1789 23.2097 46.6363 23.2097H53.1647C53.6154 23.2097 53.9799 23.9557 53.9799 24.878V71.6739Z" fill="white"/>
<path d="M13.1654 72.1009C13.1654 72.7872 12.8009 73.3423 12.3502 73.3423H5.82181C5.36449 73.3423 5 72.7872 5 72.1009V37.2815C5 36.5952 5.36449 36.0401 5.82181 36.0401H12.3502C12.8009 36.0401 13.1654 36.5952 13.1654 37.2815V72.1009Z" fill="white"/>
<path d="M95.1654 72.1009C95.1654 72.7872 94.8009 73.3423 94.3502 73.3423H87.8218C87.3645 73.3423 87 72.7872 87 72.1009V37.2815C87 36.5952 87.3645 36.0401 87.8218 36.0401H94.3502C94.8009 36.0401 95.1654 36.5952 95.1654 37.2815V72.1009Z" fill="white"/>
<path d="M7.99508 42.17C6.33924 42.17 5 41.8053 5 41.3543L5 34.8223C5 34.3647 6.33924 34 7.99509 34L92.0049 34C93.6608 34 95 34.3647 95 34.8223L95 41.3543C95 41.8053 93.6608 42.17 92.0049 42.17L7.99508 42.17Z" fill="white"/>
</svg>
