<svg width="100" height="100" viewBox="0 0 100 100" fill="none" xmlns="http://www.w3.org/2000/svg">
<path d="M29.9928 84.6249C27.7892 80.4081 25.9897 75.4709 24.7107 70H15.3701C18.886 76.0584 23.9356 81.1123 29.9928 84.6249ZM84.6299 70H75.2893C74.0103 75.4709 72.2164 80.4081 70.0072 84.6249C76.0645 81.1123 81.114 76.0584 84.6299 70ZM70.0072 15.3751C72.2164 19.5914 74.0103 24.5335 75.2893 30H84.6299C81.114 23.9416 76.0645 18.8877 70.0072 15.3751ZM49.9972 9.99999C44.3553 9.99999 38.2648 17.6496 34.9649 30H65.0352C61.7352 17.6496 55.6448 9.99999 49.9972 9.99999ZM90.0006 50C90.0006 46.55 89.5631 43.1958 88.7326 40H76.9725C77.3158 43.2207 77.4985 46.5666 77.4985 50C77.4985 53.4333 77.3158 56.7793 76.9725 60H88.7326C89.5631 56.8042 90.0006 53.45 90.0006 50ZM66.9232 60C67.2942 56.8457 67.499 53.4998 67.499 50C67.499 46.4996 67.2942 43.1543 66.9232 40H33.0768C32.7059 43.1543 32.501 46.4996 32.501 50C32.501 53.4998 32.7059 56.8457 33.0768 60H66.9232ZM49.9972 90C55.6448 90 61.7352 82.3498 65.0352 70H34.9649C38.2648 82.3498 44.3553 90 49.9972 90ZM9.99943 50C9.99943 53.45 10.4369 56.8042 11.2674 60H23.0275C22.6843 56.7793 22.5015 53.4333 22.5015 50C22.5015 46.5666 22.6843 43.2207 23.0275 40H11.2674C10.4369 43.1958 9.99943 46.55 9.99943 50ZM15.3701 30H24.7107C25.9897 24.5335 27.7836 19.5914 29.9928 15.3751C23.9356 18.8877 18.886 23.9416 15.3701 30ZM49.9972 0C77.5705 0 100 22.429 100 50C100 77.5704 77.5705 100 49.9972 100C22.4296 100 0 77.5704 0 50C0 22.429 22.4296 0 49.9972 0Z" fill="white"/>
</svg>
