<svg width="100" height="100" viewBox="0 0 100 100" fill="none" xmlns="http://www.w3.org/2000/svg">
<path d="M96.6675 99.9956H3.33246C1.49444 99.9956 0 98.338 0 96.292V3.70351C0 1.65752 1.49444 -7.62939e-05 3.33246 -7.62939e-05C5.17906 -7.62939e-05 6.66492 1.65752 6.66492 3.70351V92.5884H96.6675C98.5056 92.5884 100 94.246 100 96.292C100 98.338 98.5056 99.9956 96.6675 99.9956Z" fill="white"/>
<path d="M18.3293 92.5932H28.3294V31.4856H18.3293V92.5932ZM31.6628 100H14.996C13.1532 100 11.6626 98.3434 11.6626 96.2969V27.782C11.6626 25.7354 13.1532 24.0784 14.996 24.0784H31.6628C33.5055 24.0784 34.9961 25.7354 34.9961 27.782V96.2969C34.9961 98.3434 33.5055 100 31.6628 100Z" fill="white"/>
<path d="M46.6636 92.5931H56.6668V64.8166H46.6636V92.5931ZM59.9956 100H43.3348C41.4947 100 39.9976 98.3436 39.9976 96.2973V61.1134C39.9976 59.0671 41.4947 57.4102 43.3348 57.4102H59.9956C61.844 57.4102 63.3328 59.0671 63.3328 61.1134V96.2973C63.3328 98.3436 61.844 100 59.9956 100Z" fill="white"/>
<path d="M75.0005 92.5929H84.9982V46.2991H75.0005V92.5929ZM88.3364 100H71.6622C69.8266 100 68.3325 98.3423 68.3325 96.2962V42.5957C68.3325 40.5496 69.8266 38.8914 71.6622 38.8914H88.3364C90.172 38.8914 91.6661 40.5496 91.6661 42.5957V96.2962C91.6661 98.3423 90.172 100 88.3364 100Z" fill="white"/>
</svg>
