<svg width="100" height="100" viewBox="0 0 100 100" fill="none" xmlns="http://www.w3.org/2000/svg">
<path d="M83.6366 100H3.63637C1.62819 100 0 98.5083 0 96.6666V23.3329C0 21.4912 1.62819 19.9995 3.63637 19.9995H34.5456C36.5537 19.9995 38.1819 21.4912 38.1819 23.3329C38.1819 25.1746 36.5537 26.6662 34.5456 26.6662H7.27275V93.3333H80.0002V26.6662H52.7274C50.7192 26.6662 49.0911 25.1746 49.0911 23.3329C49.0911 21.4912 50.7192 19.9995 52.7274 19.9995H83.6366C85.6448 19.9995 87.273 21.4912 87.273 23.3329V96.6666C87.273 98.5083 85.6448 100 83.6366 100Z" fill="white"/>
<path d="M96.3647 85.0015H83.6374C81.6292 85.0015 80.001 83.5098 80.001 81.6681C80.001 79.8264 81.6292 78.3348 83.6374 78.3348H92.7283V15.0011H52.7282C50.72 15.0011 49.0918 13.5094 49.0918 11.6677C49.0918 9.82603 50.72 8.33435 52.7282 8.33435H96.3647C98.3728 8.33435 100.001 9.82603 100.001 11.6677V81.6681C100.001 83.5098 98.3728 85.0015 96.3647 85.0015Z" fill="white"/>
<path d="M19.9987 24.9971C17.9905 24.9971 16.3623 23.5012 16.3623 21.6637V11.6637C16.3623 9.82198 17.9905 8.33031 19.9987 8.33031H34.5442C36.5524 8.33031 38.1806 9.82198 38.1806 11.6637C38.1806 13.5053 36.5524 14.997 34.5442 14.997H23.6351V21.6637C23.6351 23.5012 22.0069 24.9971 19.9987 24.9971Z" fill="white"/>
<path d="M38.181 33.3338H49.0901V6.66696H38.181V33.3338ZM52.7264 40.0005H34.5446C32.5364 40.0005 30.9082 38.5088 30.9082 36.6671V3.3336C30.9082 1.49193 32.5364 0.00025177 34.5446 0.00025177H52.7264C54.7346 0.00025177 56.3628 1.49193 56.3628 3.3336V36.6671C56.3628 38.5088 54.7346 40.0005 52.7264 40.0005Z" fill="white"/>
<path d="M69.0915 69.998H18.1823C16.1741 69.998 14.5459 68.5064 14.5459 66.6647C14.5459 64.823 16.1741 63.3313 18.1823 63.3313H69.0915C71.0997 63.3313 72.7279 64.823 72.7279 66.6647C72.7279 68.5064 71.0997 69.998 69.0915 69.998Z" fill="white"/>
<path d="M43.6369 54.999H18.1823C16.1741 54.999 14.5459 53.5073 14.5459 51.6657C14.5459 49.824 16.1741 48.3323 18.1823 48.3323H43.6369C45.6451 48.3323 47.2733 49.824 47.2733 51.6657C47.2733 53.5073 45.6451 54.999 43.6369 54.999Z" fill="white"/>
<path d="M69.0915 85.0015H18.1823C16.1741 85.0015 14.5459 83.5098 14.5459 81.6681C14.5459 79.8264 16.1741 78.3348 18.1823 78.3348H69.0915C71.0997 78.3348 72.7279 79.8264 72.7279 81.6681C72.7279 83.5098 71.0997 85.0015 69.0915 85.0015Z" fill="white"/>
</svg>
