<svg width="100" height="100" viewBox="0 0 100 100" fill="none" xmlns="http://www.w3.org/2000/svg">
<path d="M89.9943 70.0381C88.1534 70.0381 86.6637 68.2438 86.6637 66.0338V8.0084H13.3286V66.0338C13.3286 68.2438 11.8388 70.0381 9.99322 70.0381C8.15237 70.0381 6.6626 68.2438 6.6626 66.0338V4.0041C6.6626 1.79404 8.15237 -0.000190735 9.99322 -0.000190735H89.9943C91.8399 -0.000190735 93.3296 1.79404 93.3296 4.0041V66.0338C93.3296 68.2438 91.8399 70.0381 89.9943 70.0381Z" fill="white"/>
<path d="M8.33137 74.5889C7.41257 74.5889 6.66602 75.8534 6.66602 77.4097V85.88C6.66602 87.4444 7.41257 88.7007 8.33137 88.7007H91.6687C92.5875 88.7007 93.334 87.4444 93.334 85.88V77.4097C93.334 75.8534 92.5875 74.5889 91.6687 74.5889H70.0005V77.4097C70.0005 80.5303 68.5075 83.0593 66.6651 83.0593H33.3301C31.4926 83.0593 29.9995 80.5303 29.9995 77.4097V74.5889H8.33137ZM91.6687 100H8.33137C3.73741 100 0 93.6695 0 85.88V77.4097C0 69.6283 3.73741 63.2978 8.33137 63.2978H33.3301C35.1725 63.2978 36.6656 65.8267 36.6656 68.9393V71.7682H63.3344V68.9393C63.3344 65.8267 64.8227 63.2978 66.6651 63.2978H91.6687C96.2626 63.2978 100 69.6283 100 77.4097V85.88C100 93.6695 96.2626 100 91.6687 100Z" fill="white"/>
<path d="M34.9946 26.7334C29.4824 26.7334 24.9935 31.2676 24.9935 36.8355C24.9935 42.4035 29.4824 46.9377 34.9946 46.9377C40.5069 46.9377 44.9957 42.4035 44.9957 36.8355C44.9957 31.2676 40.5069 26.7334 34.9946 26.7334ZM34.9946 53.6709C25.8015 53.6709 18.3276 46.1215 18.3276 36.8355C18.3276 27.5496 25.8015 20.0001 34.9946 20.0001C44.1878 20.0001 51.6617 27.5496 51.6617 36.8355C51.6617 46.1215 44.1878 53.6709 34.9946 53.6709Z" fill="white"/>
<path d="M48.3272 40.2344H34.9953C33.1549 40.2344 31.6602 38.7245 31.6602 36.8655V23.399C31.6602 21.5355 33.1549 20.0301 34.9953 20.0301C36.8358 20.0301 38.3305 21.5355 38.3305 23.399V33.4966H48.3272C50.1721 33.4966 51.6624 35.0065 51.6624 36.8655C51.6624 38.7245 50.1721 40.2344 48.3272 40.2344Z" fill="white"/>
<path d="M58.3261 30.1289H56.6608C54.8179 30.1289 53.3301 28.626 53.3301 26.7645C53.3301 24.9031 54.8179 23.3956 56.6608 23.3956H58.3261C60.169 23.3956 61.6614 24.9031 61.6614 26.7645C61.6614 28.626 60.169 30.1289 58.3261 30.1289Z" fill="white"/>
<path d="M68.329 30.124H66.6642C64.8196 30.124 63.3301 28.6195 63.3301 26.7562C63.3301 24.8976 64.8196 23.393 66.6642 23.393H68.329C70.1736 23.393 71.6631 24.8976 71.6631 26.7562C71.6631 28.6195 70.1736 30.124 68.329 30.124Z" fill="white"/>
<path d="M78.33 40.2295H56.6618C54.8207 40.2295 53.3301 38.7238 53.3301 36.8641C53.3301 35.0044 54.8207 33.494 56.6618 33.494H78.33C80.1711 33.494 81.6617 35.0044 81.6617 36.8641C81.6617 38.7238 80.1711 40.2295 78.33 40.2295Z" fill="white"/>
<path d="M78.33 50.3311H56.6618C54.8207 50.3311 53.3301 48.8254 53.3301 46.9657C53.3301 45.1059 54.8207 43.5955 56.6618 43.5955H78.33C80.1711 43.5955 81.6617 45.1059 81.6617 46.9657C81.6617 48.8254 80.1711 50.3311 78.33 50.3311Z" fill="white"/>
</svg>
