<svg width="100" height="101" viewBox="0 0 100 101" fill="none" xmlns="http://www.w3.org/2000/svg">
<path d="M6.66667 66.6698H93.3333V16.6698H6.66667V66.6698ZM96.6667 73.3364H3.33333C1.4925 73.3364 0 71.8448 0 70.0031V13.3364C0 11.4948 1.4925 10.0031 3.33333 10.0031H96.6667C98.5075 10.0031 100 11.4948 100 13.3364V70.0031C100 71.8448 98.5075 73.3364 96.6667 73.3364Z" fill="white"/>
<path d="M50.0008 16.6665C48.16 16.6665 46.6675 15.1748 46.6675 13.3332V3.33317C46.6675 1.4915 48.16 -0.000162125 50.0008 -0.000162125C51.8416 -0.000162125 53.3341 1.4915 53.3341 3.33317V13.3332C53.3341 15.1748 51.8416 16.6665 50.0008 16.6665Z" fill="white"/>
<path d="M50.0008 86.6665C48.16 86.6665 46.6675 85.1748 46.6675 83.3332V69.9998C46.6675 68.1582 48.16 66.6665 50.0008 66.6665C51.8416 66.6665 53.3341 68.1582 53.3341 69.9998V83.3332C53.3341 85.1748 51.8416 86.6665 50.0008 86.6665Z" fill="white"/>
<path d="M50 86.6681C48.1617 86.6681 46.6667 88.164 46.6667 90.0015C46.6667 91.839 48.1617 93.3348 50 93.3348C51.8383 93.3348 53.3333 91.839 53.3333 90.0015C53.3333 88.164 51.8383 86.6681 50 86.6681ZM50 100.001C44.4858 100.001 40 95.514 40 90.0015C40 84.489 44.4858 80.0015 50 80.0015C55.5142 80.0015 60 84.489 60 90.0015C60 95.514 55.5142 100.001 50 100.001Z" fill="white"/>
<path d="M15.0008 61.6665C13.16 61.6665 11.6675 60.1748 11.6675 58.3332V34.9998C11.6675 33.1582 13.16 31.6665 15.0008 31.6665C16.8416 31.6665 18.3341 33.1582 18.3341 34.9998V58.3332C18.3341 60.1748 16.8416 61.6665 15.0008 61.6665Z" fill="white"/>
<path d="M25.0008 61.6665C23.16 61.6665 21.6675 60.1748 21.6675 58.3332V26.6665C21.6675 24.8248 23.16 23.3332 25.0008 23.3332C26.8416 23.3332 28.3341 24.8248 28.3341 26.6665V58.3332C28.3341 60.1748 26.8416 61.6665 25.0008 61.6665Z" fill="white"/>
<path d="M35.0008 61.6665C33.16 61.6665 31.6675 60.1748 31.6675 58.3332V39.9998C31.6675 38.1582 33.16 36.6665 35.0008 36.6665C36.8416 36.6665 38.3341 38.1582 38.3341 39.9998V58.3332C38.3341 60.1748 36.8416 61.6665 35.0008 61.6665Z" fill="white"/>
<path d="M45.0008 61.6665C43.16 61.6665 41.6675 60.1748 41.6675 58.3332V44.9998C41.6675 43.1582 43.16 41.6665 45.0008 41.6665C46.8416 41.6665 48.3341 43.1582 48.3341 44.9998V58.3332C48.3341 60.1748 46.8416 61.6665 45.0008 61.6665Z" fill="white"/>
<path d="M55.0008 61.6665C53.16 61.6665 51.6675 60.1748 51.6675 58.3332V33.3332C51.6675 31.4915 53.16 29.9998 55.0008 29.9998C56.8416 29.9998 58.3341 31.4915 58.3341 33.3332V58.3332C58.3341 60.1748 56.8416 61.6665 55.0008 61.6665Z" fill="white"/>
<path d="M65.0008 61.6665C63.16 61.6665 61.6675 60.1748 61.6675 58.3332V28.3332C61.6675 26.4915 63.16 24.9998 65.0008 24.9998C66.8416 24.9998 68.3341 26.4915 68.3341 28.3332V58.3332C68.3341 60.1748 66.8416 61.6665 65.0008 61.6665Z" fill="white"/>
<path d="M75.0008 61.6665C73.16 61.6665 71.6675 60.1748 71.6675 58.3332V24.9998C71.6675 23.1582 73.16 21.6665 75.0008 21.6665C76.8416 21.6665 78.3341 23.1582 78.3341 24.9998V58.3332C78.3341 60.1748 76.8416 61.6665 75.0008 61.6665Z" fill="white"/>
<path d="M85.0008 61.6665C83.16 61.6665 81.6675 60.1748 81.6675 58.3332V29.9998C81.6675 28.1582 83.16 26.6665 85.0008 26.6665C86.8416 26.6665 88.3341 28.1582 88.3341 29.9998V58.3332C88.3341 60.1748 86.8416 61.6665 85.0008 61.6665Z" fill="white"/>
</svg>
