<svg width="100" height="101" viewBox="0 0 100 101" fill="none" xmlns="http://www.w3.org/2000/svg">
<path d="M26.6622 30.0207H73.329V6.69401H26.6622V30.0207ZM76.6686 36.687H23.3323C21.4921 36.687 20.0024 35.1955 20.0024 33.3544V3.35454C20.0024 1.51442 21.4921 0.0247726 23.3323 0.0247726H76.6686C78.5088 0.0247726 79.9985 1.51442 79.9985 3.35454V33.3544C79.9985 35.1955 78.5088 36.687 76.6686 36.687Z" fill="white"/>
<path d="M58.3415 45.0098H41.6727C39.8345 45.0098 38.3428 43.5171 38.3428 41.6761C38.3428 39.8351 39.8345 38.3434 41.6727 38.3434H58.3415C60.1797 38.3434 61.6714 39.8351 61.6714 41.6761C61.6714 43.5171 60.1797 45.0098 58.3415 45.0098Z" fill="white"/>
<path d="M79.9971 61.6821C78.1628 61.6821 76.6701 60.1903 76.6701 58.3493V55.0164H23.3387V58.3493C23.3387 60.1903 21.846 61.6821 20.0019 61.6821C18.1579 61.6821 16.665 60.1903 16.665 58.3493V51.6826C16.665 49.8425 18.1579 48.3497 20.0019 48.3497H79.9971C81.8412 48.3497 83.334 49.8425 83.334 51.6826V58.3493C83.334 60.1903 81.8412 61.6821 79.9971 61.6821Z" fill="white"/>
<path d="M69.9979 85.0136H93.3345V71.6816H69.9979V85.0136ZM96.6669 91.6802H66.6655C64.8218 91.6802 63.333 90.1876 63.333 88.347V68.3483C63.333 66.5077 64.8218 65.0151 66.6655 65.0151H96.6669C98.5106 65.0151 99.9993 66.5077 99.9993 68.3483V88.347C99.9993 90.1876 98.5106 91.6802 96.6669 91.6802Z" fill="white"/>
<path d="M86.6653 100.008H76.6618C74.8198 100.008 73.3306 98.5157 73.3306 96.6748C73.3306 94.8348 74.8198 93.3416 76.6618 93.3416H86.6653C88.5073 93.3416 89.9966 94.8348 89.9966 96.6748C89.9966 98.5157 88.5073 100.008 86.6653 100.008Z" fill="white"/>
<path d="M6.66736 85.0107H30.0029V71.6784H6.66736V85.0107ZM33.3366 91.6777H3.33368C1.49638 91.6777 0 90.1852 0 88.3442V68.3458C0 66.5047 1.49638 65.0123 3.33368 65.0123H33.3366C35.1739 65.0123 36.6703 66.5047 36.6703 68.3458V88.3442C36.6703 90.1852 35.1739 91.6777 33.3366 91.6777Z" fill="white"/>
<path d="M23.3353 100.008H13.3333C11.489 100.008 10.0024 98.5146 10.0024 96.6743C10.0024 94.8339 11.489 93.3415 13.3333 93.3415H23.3353C25.1701 93.3415 26.6662 94.8339 26.6662 96.6743C26.6662 98.5146 25.1701 100.008 23.3353 100.008Z" fill="white"/>
</svg>
