<svg width="100" height="101" viewBox="0 0 100 101" fill="none" xmlns="http://www.w3.org/2000/svg">
<path d="M96.6676 100.008H3.33236C1.48674 100.008 0 98.5138 0 96.6756C0 94.83 1.48674 93.3433 3.33236 93.3433H96.6676C98.5059 93.3433 100 94.83 100 96.6756C100 98.5138 98.5059 100.008 96.6676 100.008Z" fill="white"/>
<path d="M6.66471 80.0084H93.3353V66.6721H6.66471V80.0084ZM96.6676 86.6729H3.33236C1.48674 86.6729 0 85.1788 0 83.3406V63.3399C0 61.5017 1.48674 60.0077 3.33236 60.0077H96.6676C98.5059 60.0077 100 61.5017 100 63.3399V83.3406C100 85.1788 98.5059 86.6729 96.6676 86.6729Z" fill="white"/>
<path d="M6.66471 50.0157H93.3353V36.6794H6.66471V50.0157ZM96.6676 56.6802H3.33236C1.48674 56.6802 0 55.1862 0 53.3479V33.3472C0 31.5016 1.48674 30.0149 3.33236 30.0149H96.6676C98.5059 30.0149 100 31.5016 100 33.3472V53.3479C100 55.1862 98.5059 56.6802 96.6676 56.6802Z" fill="white"/>
<path d="M6.66471 20.0108H93.3353V6.6819H6.66471V20.0108ZM96.6676 26.6826H3.33236C1.48674 26.6826 0 25.1886 0 23.3431V3.34237C0 1.50415 1.48674 0.0101357 3.33236 0.0101357H96.6676C98.5059 0.0101357 100 1.50415 100 3.34237V23.3431C100 25.1886 98.5059 26.6826 96.6676 26.6826Z" fill="white"/>
<path d="M49.9962 100.008C48.1594 100.008 46.6675 98.5088 46.6675 96.6721V83.3364C46.6675 81.4997 48.1594 80.0078 49.9962 80.0078C51.8401 80.0078 53.3321 81.4997 53.3321 83.3364V96.6721C53.3321 98.5088 51.8401 100.008 49.9962 100.008Z" fill="white"/>
<path d="M26.6663 76.6851H16.6625C14.8217 76.6851 13.3325 75.1891 13.3325 73.3483C13.3325 71.5076 14.8217 70.0184 16.6625 70.0184H26.6663C28.5071 70.0184 29.9963 71.5076 29.9963 73.3483C29.9963 75.1891 28.5071 76.6851 26.6663 76.6851Z" fill="white"/>
<path d="M26.6663 46.6802H16.6625C14.8217 46.6802 13.3325 45.1911 13.3325 43.3503C13.3325 41.5027 14.8217 40.0136 16.6625 40.0136H26.6663C28.5071 40.0136 29.9963 41.5027 29.9963 43.3503C29.9963 45.1911 28.5071 46.6802 26.6663 46.6802Z" fill="white"/>
<path d="M26.6663 16.6875H16.6625C14.8217 16.6875 13.3325 15.1914 13.3325 13.3507C13.3325 11.51 14.8217 10.0209 16.6625 10.0209H26.6663C28.5071 10.0209 29.9963 11.51 29.9963 13.3507C29.9963 15.1914 28.5071 16.6875 26.6663 16.6875Z" fill="white"/>
</svg>
