<svg width="100" height="101" viewBox="0 0 100 101" fill="none" xmlns="http://www.w3.org/2000/svg">
<path d="M41.6652 17.3616C28.1259 21.1768 18.3317 34.1162 18.3317 48.9583C18.3317 51.805 18.6794 54.5934 19.3686 57.2942L28.5083 51.8391C28.3912 50.8999 28.3319 49.9364 28.3319 48.9583C28.3319 39.8681 33.702 31.7074 41.6652 28.2767V17.3616ZM17.4985 65.8345C17.1321 65.8345 16.7642 65.7761 16.4104 65.6496C15.4973 65.3235 14.7662 64.6033 14.4058 63.6739C12.5871 59.0023 11.665 54.0484 11.665 48.9583C11.665 29.3521 25.7934 12.4808 44.5279 9.72161C45.4867 9.57562 46.4534 9.87731 47.1826 10.5294C47.9127 11.1863 48.3319 12.1353 48.3319 13.1328V30.7195C48.3319 32.2621 47.3397 33.6198 45.9035 34.0383C39.4824 35.9118 34.9986 42.0482 34.9986 48.9583C34.9986 50.2819 35.1505 51.5423 35.4516 52.7053C35.8412 54.2138 35.2037 55.8051 33.8973 56.5837L19.1644 65.3771C18.6525 65.6836 18.0772 65.8345 17.4985 65.8345Z" fill="white"/>
<path d="M71.491 51.8391L80.6308 57.2942C81.32 54.5934 81.6677 51.805 81.6677 48.9583C81.6677 34.1162 71.8735 21.1768 58.3341 17.3616V28.2767C66.2969 31.7074 71.6675 39.8681 71.6675 48.9583C71.6675 49.9364 71.6082 50.8999 71.491 51.8391ZM82.5008 65.8345C81.9222 65.8345 81.3468 65.6836 80.835 65.3771L66.1021 56.5837C64.7962 55.8051 64.1578 54.2138 64.5478 52.7053C64.8489 51.5423 65.0008 50.2819 65.0008 48.9583C65.0008 42.0482 60.5165 35.9118 54.0959 34.0383C52.6597 33.6198 51.6675 32.2621 51.6675 30.7195V13.1328C51.6675 12.1353 52.0866 11.1863 52.8168 10.5294C53.546 9.87731 54.5151 9.57562 55.471 9.72161C74.206 12.4808 88.3343 29.3521 88.3343 48.9583C88.3343 54.0484 87.4123 59.0023 85.5931 63.6739C85.2332 64.6033 84.5021 65.3235 83.5885 65.6496C83.2352 65.7761 82.8668 65.8345 82.5008 65.8345Z" fill="white"/>
<path d="M27.7032 72.221C33.6009 78.2915 41.5353 81.7055 49.9984 81.7055C58.461 81.7055 66.3955 78.2915 72.2931 72.221L63.1453 66.7577C59.3793 69.7427 54.7965 71.363 49.9984 71.363C45.1999 71.363 40.6175 69.7427 36.8511 66.7577L27.7032 72.221ZM49.9984 88.6021C38.1686 88.6021 27.1909 83.0885 19.8786 73.4762C19.2803 72.6912 19.042 71.6733 19.2256 70.692C19.4083 69.7107 19.9951 68.8572 20.8326 68.3597L35.5653 59.5645C36.8564 58.7977 38.4819 59.0076 39.5515 60.0757C42.3737 62.9055 46.0837 64.4665 49.9984 64.4665C53.9127 64.4665 57.6231 62.9055 60.4448 60.0757C61.5144 59.0076 63.1413 58.7977 64.4311 59.5645L79.1642 68.3597C80.0017 68.8572 80.5881 69.7107 80.7712 70.692C80.9543 71.6733 80.716 72.6912 80.1177 73.4762C72.8059 83.0885 61.8277 88.6021 49.9984 88.6021Z" fill="white"/>
<path d="M75.0007 16.1992C74.1477 16.1992 73.2938 15.8646 72.644 15.1905C71.342 13.8422 71.342 11.6623 72.644 10.314L80.9771 1.69275C81.6022 1.04813 82.4499 0.683994 83.3338 0.683994H96.6671C98.5081 0.683994 100 2.2291 100 4.13344C100 6.03779 98.5081 7.57799 96.6671 7.57799H84.7148L77.3574 15.1905C76.7071 15.8646 75.8537 16.1992 75.0007 16.1992Z" fill="white"/>
<path d="M96.6647 17.9365H89.9981C88.1574 17.9365 86.665 16.3919 86.665 14.4878C86.665 12.5838 88.1574 11.0392 89.9981 11.0392H96.6647C98.5054 11.0392 99.9982 12.5838 99.9982 14.4878C99.9982 16.3919 98.5054 17.9365 96.6647 17.9365Z" fill="white"/>
<path d="M24.9998 16.1938C24.1468 16.1938 23.2929 15.8592 22.6431 15.1851L15.2857 7.57262H3.33333C1.49231 7.57262 0 6.03242 0 4.12807C0 2.22373 1.49231 0.678623 3.33333 0.678623H16.6667C17.5501 0.678623 18.3983 1.04276 19.0229 1.68738L27.3565 10.3086C28.6585 11.6569 28.6585 13.8368 27.3565 15.1851C26.7066 15.8592 25.8527 16.1938 24.9998 16.1938Z" fill="white"/>
<path d="M9.99965 17.9365H3.33306C1.49232 17.9365 0 16.3919 0 14.4878C0 12.5838 1.49232 11.0392 3.33306 11.0392H9.99965C11.8409 11.0392 13.3332 12.5838 13.3332 14.4878C13.3332 16.3919 11.8409 17.9365 9.99965 17.9365Z" fill="white"/>
<path d="M93.3322 100.679H79.9988C79.1152 100.679 78.2674 100.318 77.6423 99.67L69.3088 91.0503C68.0071 89.7025 68.0071 87.5178 69.3088 86.1744C70.6092 84.8266 72.7217 84.8266 74.0221 86.1744L81.3797 93.7811H93.3322C95.173 93.7811 96.6654 95.3271 96.6654 97.2299C96.6654 99.1371 95.173 100.679 93.3322 100.679Z" fill="white"/>
<path d="M93.3324 90.3345H86.6658C84.8253 90.3345 83.3325 88.7899 83.3325 86.8834C83.3325 84.9814 84.8253 83.4368 86.6658 83.4368H93.3324C95.1734 83.4368 96.6662 84.9814 96.6662 86.8834C96.6662 88.7899 95.1734 90.3345 93.3324 90.3345Z" fill="white"/>
</svg>
