<svg width="100" height="101" viewBox="0 0 100 101" fill="none" xmlns="http://www.w3.org/2000/svg">
<path d="M23.3292 43.3341H76.6678V33.3341H23.3292V43.3341ZM79.9956 49.998H20.0013C18.1591 49.998 16.665 48.504 16.665 46.6619V29.9979C16.665 28.1558 18.1591 26.6702 20.0013 26.6702H79.9956C81.8378 26.6702 83.3319 28.1558 83.3319 29.9979V46.6619C83.3319 48.504 81.8378 49.998 79.9956 49.998Z" fill="white"/>
<path d="M23.3316 16.6764H76.6702V6.67635H23.3316V16.6764ZM79.9981 23.3403H20.0038C18.1616 23.3403 16.6675 21.8463 16.6675 20.0042V3.34008C16.6675 1.49796 18.1616 0.00390434 20.0038 0.00390434H79.9981C81.8402 0.00390434 83.3344 1.49796 83.3344 3.34008V20.0042C83.3344 21.8463 81.8402 23.3403 79.9981 23.3403Z" fill="white"/>
<path d="M13.3341 64.998C11.4916 64.998 10.0073 63.5053 10.0073 61.6628V56.6643C10.0073 54.8218 11.4916 53.329 13.3341 53.329H86.6689C88.5114 53.329 90.0042 54.8218 90.0042 56.6643C90.0042 58.5067 88.5114 59.9994 86.6689 59.9994H16.6694V61.6628C16.6694 63.5053 15.1767 64.998 13.3341 64.998Z" fill="white"/>
<path d="M76.6647 85.006H93.3324V75.0057H76.6647V85.006ZM96.6659 91.6729H73.3311C71.4925 91.6729 69.9976 90.178 69.9976 88.3394V71.6723C69.9976 69.8338 71.4925 68.3388 73.3311 68.3388H96.6659C98.5045 68.3388 99.9995 69.8338 99.9995 71.6723V88.3394C99.9995 90.178 98.5045 91.6729 96.6659 91.6729Z" fill="white"/>
<path d="M41.6729 84.9953H58.3345V75.002H41.6729V84.9953ZM61.6685 91.6631H38.3389C36.496 91.6631 35.0049 90.1721 35.0049 88.3292V71.6681C35.0049 69.8253 36.496 68.3343 38.3389 68.3343H61.6685C63.5114 68.3343 65.0025 69.8253 65.0025 71.6681V88.3292C65.0025 90.1721 63.5114 91.6631 61.6685 91.6631Z" fill="white"/>
<path d="M6.66844 85.0021H23.3356V75.0038H6.66844V85.0021ZM26.674 91.6704H3.33829C1.49363 91.6704 0 90.1768 0 88.3322V71.6656C0 69.8291 1.49363 68.3355 3.33829 68.3355H26.674C28.5105 68.3355 30.0042 69.8291 30.0042 71.6656V88.3322C30.0042 90.1768 28.5105 91.6704 26.674 91.6704Z" fill="white"/>
<path d="M20.0051 99.9883H9.99964C8.15611 99.9883 6.66992 98.5021 6.66992 96.6587C6.66992 94.8152 8.15611 93.3291 9.99964 93.3291H20.0051C21.8405 93.3291 23.3348 94.8152 23.3348 96.6587C23.3348 98.5021 21.8405 99.9883 20.0051 99.9883Z" fill="white"/>
<path d="M54.9992 100.008H44.996C43.1621 100.008 41.6699 98.5074 41.6699 96.6735C41.6699 94.8314 43.1621 93.3393 44.996 93.3393H54.9992C56.8414 93.3393 58.3336 94.8314 58.3336 96.6735C58.3336 98.5074 56.8414 100.008 54.9992 100.008Z" fill="white"/>
<path d="M90.003 99.998H80.0071C78.1602 99.998 76.6724 98.5017 76.6724 96.6634C76.6724 94.825 78.1602 93.3287 80.0071 93.3287H90.003C91.8499 93.3287 93.3378 94.825 93.3378 96.6634C93.3378 98.5017 91.8499 99.998 90.003 99.998Z" fill="white"/>
<path d="M40.0062 14.9932H30.0063C28.1596 14.9932 26.6675 13.5011 26.6675 11.6628C26.6675 9.82443 28.1596 8.33229 30.0063 8.33229H40.0062C41.8446 8.33229 43.3368 9.82443 43.3368 11.6628C43.3368 13.5011 41.8446 14.9932 40.0062 14.9932Z" fill="white"/>
<path d="M40.0062 41.668H30.0063C28.1596 41.668 26.6675 40.1759 26.6675 38.3376C26.6675 36.491 28.1596 34.9989 30.0063 34.9989H40.0062C41.8446 34.9989 43.3368 36.491 43.3368 38.3376C43.3368 40.1759 41.8446 41.668 40.0062 41.668Z" fill="white"/>
</svg>
