<svg width="100" height="101" viewBox="0 0 100 101" fill="none" xmlns="http://www.w3.org/2000/svg">
<path d="M40.0012 6.66698C21.6225 6.66698 6.66538 21.6209 6.66538 40.0015C6.66538 58.3812 21.6225 73.336 40.0012 73.336C58.3798 73.336 73.3368 58.3812 73.3368 40.0015C73.3368 21.6209 58.3798 6.66698 40.0012 6.66698ZM40.0012 80.0029C17.9467 80.0029 0 62.0585 0 40.0015C0 17.9436 17.9467 2.28882e-05 40.0012 2.28882e-05C62.0556 2.28882e-05 80.0023 17.9436 80.0023 40.0015C80.0023 62.0585 62.0556 80.0029 40.0012 80.0029Z" fill="white"/>
<path d="M96.6627 100.008C95.8118 100.008 94.961 99.6821 94.3078 99.0307L64.3058 69.0297C63.0081 67.7286 63.0081 65.6179 64.3058 64.3168C65.6121 63.014 67.7176 63.014 69.0239 64.3168L99.026 94.3178C100.324 95.6189 100.324 97.7296 99.026 99.0307C98.3729 99.6821 97.5221 100.008 96.6627 100.008Z" fill="white"/>
<path d="M14.9961 53.3477C13.1514 53.3477 11.6626 51.855 11.6626 50.0143V40.0141C11.6626 38.1734 13.1514 36.6806 14.9961 36.6806C16.8409 36.6806 18.3297 38.1734 18.3297 40.0141V50.0143C18.3297 51.855 16.8409 53.3477 14.9961 53.3477Z" fill="white"/>
<path d="M24.992 53.3306C23.1496 53.3306 21.6577 51.8379 21.6577 49.9972V31.663C21.6577 29.8223 23.1496 28.3297 24.992 28.3297C26.8345 28.3297 28.3264 29.8223 28.3264 31.663V49.9972C28.3264 51.8379 26.8345 53.3306 24.992 53.3306Z" fill="white"/>
<path d="M34.9974 53.3477C33.1576 53.3477 31.6626 51.8545 31.6626 50.0138V25.0128C31.6626 23.1721 33.1576 21.6797 34.9974 21.6797C36.8373 21.6797 38.3322 23.1721 38.3322 25.0128V50.0138C38.3322 51.8545 36.8373 53.3477 34.9974 53.3477Z" fill="white"/>
<path d="M44.995 53.3281C43.1579 53.3281 41.6602 51.8353 41.6602 49.995V31.6605C41.6602 29.8202 43.1579 28.3274 44.995 28.3274C46.8404 28.3274 48.3299 29.8202 48.3299 31.6605V49.995C48.3299 51.8353 46.8404 53.3281 44.995 53.3281Z" fill="white"/>
<path d="M54.9923 53.3306C53.1499 53.3306 51.6577 51.8384 51.6577 49.9977V24.9967C51.6577 23.1552 53.1499 21.6631 54.9923 21.6631C56.8347 21.6631 58.3269 23.1552 58.3269 24.9967V49.9977C58.3269 51.8384 56.8347 53.3306 54.9923 53.3306Z" fill="white"/>
<path d="M64.999 53.3281C63.1599 53.3281 61.665 51.8351 61.665 49.9944V36.6607C61.665 34.82 63.1599 33.3269 64.999 33.3269C66.8381 33.3269 68.333 34.82 68.333 36.6607V49.9944C68.333 51.8351 66.8381 53.3281 64.999 53.3281Z" fill="white"/>
</svg>
