<svg width="100" height="100" viewBox="0 0 100 100" fill="none" xmlns="http://www.w3.org/2000/svg">
<path d="M96.6662 81.4824H91.6654C89.8246 81.4824 88.3321 79.8204 88.3329 77.774C88.3338 75.7324 89.8263 74.0749 91.6662 74.0749H91.6671H93.3329V7.40756H57.8097L43.7131 19.5929C43.1281 20.0975 42.4077 20.3707 41.6665 20.3707H6.66664V74.0749H9.99995C11.8408 74.0749 13.3333 75.7324 13.3333 77.7787C13.3333 79.825 11.8408 81.4824 9.99995 81.4824H3.33332C1.49249 81.4824 0 79.825 0 77.7787V16.6669C0 14.6206 1.49249 12.9632 3.33332 12.9632H40.5231L54.6197 0.777855C55.2047 0.27322 55.9252 7.76052e-05 56.6664 7.76052e-05H96.6662C98.507 7.76052e-05 99.9995 1.6575 99.9995 3.70382V77.7787C99.9995 78.7602 99.6479 79.7046 99.0229 80.3991C98.3979 81.0935 97.55 81.4824 96.6662 81.4824Z" fill="white"/>
<path d="M96.6656 20.3706H41.6658C39.825 20.3706 38.3325 18.7132 38.3325 16.6669C38.3325 14.6205 39.825 12.9631 41.6658 12.9631H96.6656C98.5064 12.9631 99.9989 14.6205 99.9989 16.6669C99.9989 18.7132 98.5064 20.3706 96.6656 20.3706Z" fill="white"/>
<path d="M50.0008 72.2207C48.16 72.2207 46.6675 70.5633 46.6675 68.517V57.4057C46.6675 55.3594 48.16 53.702 50.0008 53.702C51.8416 53.702 53.3341 55.3594 53.3341 57.4057V68.517C53.3341 70.5633 51.8416 72.2207 50.0008 72.2207Z" fill="white"/>
<path d="M76.6664 83.3325C74.8256 83.3325 73.3331 81.6751 73.3331 79.6288V72.2213H26.6666V79.6288C26.6666 81.6751 25.1741 83.3325 23.3333 83.3325C21.4925 83.3325 20 81.6751 20 79.6288V68.5175C20 66.4712 21.4925 64.8138 23.3333 64.8138H76.6664C78.5072 64.8138 79.9997 66.4712 79.9997 68.5175V79.6288C79.9997 81.6751 78.5072 83.3325 76.6664 83.3325Z" fill="white"/>
<path d="M25 85.185C23.1616 85.185 21.6666 86.8471 21.6666 88.8888C21.6666 90.9305 23.1616 92.5925 25 92.5925C26.8383 92.5925 28.3333 90.9305 28.3333 88.8888C28.3333 86.8471 26.8383 85.185 25 85.185ZM25 100C19.4858 100 15 95.0138 15 88.8888C15 82.7637 19.4858 77.7775 25 77.7775C30.5141 77.7775 34.9999 82.7637 34.9999 88.8888C34.9999 95.0138 30.5141 100 25 100Z" fill="white"/>
<path d="M75 85.185C73.1616 85.185 71.6666 86.8471 71.6666 88.8888C71.6666 90.9305 73.1616 92.5925 75 92.5925C76.8383 92.5925 78.3333 90.9305 78.3333 88.8888C78.3333 86.8471 76.8383 85.185 75 85.185ZM75 100C69.4858 100 65 95.0138 65 88.8888C65 82.7637 69.4858 77.7775 75 77.7775C80.5141 77.7775 84.9999 82.7637 84.9999 88.8888C84.9999 95.0138 80.5141 100 75 100Z" fill="white"/>
<path d="M50 85.185C48.1616 85.185 46.6666 86.8471 46.6666 88.8888C46.6666 90.9305 48.1616 92.5925 50 92.5925C51.8383 92.5925 53.3333 90.9305 53.3333 88.8888C53.3333 86.8471 51.8383 85.185 50 85.185ZM50 100C44.4858 100 40 95.0138 40 88.8888C40 82.7637 44.4858 77.7775 50 77.7775C55.5141 77.7775 59.9999 82.7637 59.9999 88.8888C59.9999 95.0138 55.5141 100 50 100Z" fill="white"/>
</svg>
