<?xml version="1.0" standalone="no"?>
<!DOCTYPE svg PUBLIC "-//W3C//DTD SVG 20010904//EN"
 "http://www.w3.org/TR/2001/REC-SVG-20010904/DTD/svg10.dtd">
<svg version="1.0" xmlns="http://www.w3.org/2000/svg"
 width="600.000000pt" height="600.000000pt" viewBox="0 0 600.000000 600.000000"
 preserveAspectRatio="xMidYMid meet">
<metadata>
Created by potrace 1.14, written by Peter Selinger 2001-2017
</metadata>
<g transform="translate(0.000000,600.000000) scale(0.100000,-0.100000)"
fill="#000000" stroke="none">
<path d="M824 4063 l1 -228 658 -2 c362 -1 660 -3 662 -5 2 -2 -132 -72 -298
-157 -166 -85 -405 -208 -532 -273 -126 -65 -289 -148 -361 -185 l-132 -67 1
-243 c0 -134 1 -243 3 -243 1 0 47 23 101 51 379 198 561 292 798 414 297 154
319 165 350 189 17 13 44 48 60 77 l30 54 3 423 3 422 -674 0 -674 0 1 -227z"/>
<path d="M2359 4283 c-1 -11 -1 -413 0 -435 1 -15 52 -16 657 -16 360 0 658
-2 660 -5 3 -2 -78 -46 -178 -97 -101 -51 -246 -125 -323 -165 -271 -140 -621
-319 -717 -367 -87 -43 -98 -51 -99 -76 -1 -35 -1 -421 0 -445 1 -16 30 -3
174 71 185 97 364 189 602 312 477 246 483 250 521 305 46 65 48 88 49 518 l0
407 -672 0 c-370 0 -673 -3 -674 -7z"/>
<path d="M3895 4063 l0 -228 688 -2 687 -1 0 229 0 229 -688 0 -687 0 0 -227z"/>
<path d="M3896 3431 c-8 -16 2 -289 12 -312 18 -44 74 -101 121 -122 42 -18
72 -19 640 -20 l596 0 3 230 2 231 -685 0 c-377 0 -687 -3 -689 -7z"/>
<path d="M2490 2365 l0 -55 -86 0 c-75 0 -85 2 -83 18 1 9 1 27 0 40 l-1 22
-219 0 c-218 -1 -220 -1 -223 -23 -2 -12 -1 -34 1 -50 l3 -27 150 1 c83 0 152
-1 153 -3 9 -9 -34 -78 -75 -118 -45 -45 -151 -107 -222 -130 l-38 -11 20 -39
20 -39 52 15 c106 30 215 90 275 151 32 32 65 67 74 78 14 19 25 21 105 19 49
-1 91 -2 94 -3 3 0 4 -18 2 -40 l-4 -39 -66 0 c-37 0 -88 -1 -114 -1 l-48 -1
0 -45 c0 -36 4 -45 18 -46 9 0 60 -1 114 -1 l96 -1 4 -54 c4 -68 2 -74 -26
-63 -34 13 -135 24 -191 21 -222 -11 -347 -139 -267 -273 41 -69 144 -110 287
-113 148 -3 253 36 306 113 l24 35 0 358 0 359 -67 0 -68 0 0 -55z m-82 -535
c78 -24 104 -85 56 -134 -33 -33 -81 -46 -167 -46 -106 0 -177 40 -177 99 0
35 44 74 100 89 47 12 135 8 188 -8z"/>
<path d="M3385 2015 l0 -405 66 0 66 0 0 405 1 405 -67 0 -66 0 0 -405z"/>
<path d="M2797 2378 c-4 -11 -3 -44 2 -80 1 -5 69 -8 151 -8 167 0 158 5 136
-77 -38 -141 -146 -284 -267 -352 l-57 -32 19 -39 c11 -22 26 -40 35 -40 44 0
210 114 271 187 95 112 163 289 163 425 l0 27 -224 1 c-170 0 -225 -3 -229
-12z"/>
<path d="M3727 2383 c-10 -17 -3 -391 7 -405 22 -29 54 -37 145 -36 49 1 93
-1 97 -5 4 -3 7 -46 7 -94 l1 -88 -167 -3 -167 -2 0 -45 c0 -29 5 -45 13 -46
6 -1 184 -2 394 -3 249 -1 383 2 384 9 0 6 1 27 2 48 l2 37 -162 0 c-90 0
-164 3 -164 8 -1 4 -2 46 -3 95 -1 71 1 87 14 88 8 0 66 1 128 1 l112 0 0 47
0 48 -250 0 c-138 0 -253 3 -257 6 -7 8 -8 235 -1 243 4 3 119 5 257 5 l251 0
0 49 0 49 -319 0 c-176 1 -322 -2 -324 -6z"/>
</g>
</svg>
